<svg xmlns="http://www.w3.org/2000/svg"><symbol id="card-back-icon" viewBox="0 0 196 196"><rect width="127.1" height="162.35" x="34.5" y="16.7" fill="#c4c4c4" rx="15.9"/><path fill="#444" d="M145.6 187.8H50.4a24.7 24.7 0 0 1-24.8-24.7V32.5A24.8 24.8 0 0 1 50.4 7.8h95.2a24.8 24.8 0 0 1 24.8 24.7v130.6a24.7 24.7 0 0 1-24.8 24.7zM50.4 25.5a7 7 0 0 0-7.1 7v130.6a7.1 7.1 0 0 0 7.1 7.1h95.2a7.1 7.1 0 0 0 7.1-7.1V32.5a7 7 0 0 0-7.1-7z"/><ellipse cx="98" cy="97.8" fill="#444" rx="30" ry="45.9"/></symbol><symbol id="card-front-icon" viewBox="0 0 196 196"><path fill="#c4c4c4" d="M145.6 188H50.4a24.8 24.8 0 0 1-24.8-24.7V32.7A24.8 24.8 0 0 1 50.4 8h95.2a24.8 24.8 0 0 1 24.8 24.7v130.6a24.8 24.8 0 0 1-24.8 24.7z"/><path fill="#444" d="M145.6 188H50.4a24.8 24.8 0 0 1-24.8-24.7V32.7A24.8 24.8 0 0 1 50.4 8h95.2a24.8 24.8 0 0 1 24.8 24.7v130.6a24.8 24.8 0 0 1-24.8 24.7zM50.4 25.6a7.1 7.1 0 0 0-7.1 7.1v130.6a7.1 7.1 0 0 0 7.1 7.1h95.2a7.1 7.1 0 0 0 7.1-7.1V32.7a7.1 7.1 0 0 0-7.1-7.1z"/><rect width="74.1" height="63.53" x="60.9" y="60.9" fill="#444" rx="5.3"/><rect width="81.2" height="21.18" x="57.4" y="135.1" fill="#444" rx="5.3"/><rect width="60" height="10.59" x="57.4" y="39.8" fill="#444" rx="5.3"/><rect width="10.6" height="10.59" x="128" y="39.8" fill="#444" rx="5.3"/></symbol><symbol id="deck-icon" viewBox="0 0 196 196"><path fill="#ccc" d="M76.2 181.5l-44.9-40.2V29l87.3-14.2 46.1 26-1 50.9-1.4 68.5z"/><path fill="#444" d="M76.2 188.2l-1.5-.2-.9-.2-1.7-1-.5-.4-44.7-40.1a6.8 6.8 0 0 1-2.2-5V29.2a7.6 7.6 0 0 1 .1-1.5.7.7 0 0 0 .1-.5 9.4 9.4 0 0 1 1.2-2.2 4.3 4.3 0 0 1 1.6-1.4l.9-.6 1.8-.5 87.2-14.2a6.4 6.4 0 0 1 4.3.7l45.9 26 .8.4 1.5 1.5.6 1.2a7.3 7.3 0 0 1 .6 2.1v.9l-1 50.6v.3l-1.3 68.4a6.7 6.7 0 0 1-5.1 6.3l-86 21.2-.9.2zm6.6-73.3V173l72.9-18 1.1-55.1zM38 138.3l31.5 28.3v-55L38 69.3zM82.8 64v37.3l74.3-15.1.7-37.2zM38 46.9l31.5 42.4V62.2L38 41.4zm11.3-14l28.2 18.6 68.3-13.7-28.4-16z"/></symbol><symbol id="rank-icon" viewBox="0 0 196 196"><defs><linearGradient id="a" x1="-127.25" x2="-241.62" y1="1032.05" y2="872.68" gradientTransform="matrix(1 0 0 -1 287 1044)" gradientUnits="userSpaceOnUse"><stop offset="0"/><stop offset="1" stop-color="#8d8d8d"/></linearGradient></defs><circle cx="98" cy="98" r="90" fill="url(#a)"/><path fill="#f4c82a" d="M90.9 52.5a7.4 7.4 0 0 1 14.2 0l6.4 19.5a7.5 7.5 0 0 0 7.1 5.1h20.5a7.5 7.5 0 0 1 4.4 13.6l-16.6 12.1a7.5 7.5 0 0 0-2.7 8.3l6.3 19.6A7.4 7.4 0 0 1 119 139l-16.6-12a7.5 7.5 0 0 0-8.8 0L77 139a7.4 7.4 0 0 1-11.5-8.3l6.3-19.6a7.5 7.5 0 0 0-2.7-8.3L52.5 90.7a7.5 7.5 0 0 1 4.4-13.6h20.5a7.5 7.5 0 0 0 7.1-5.1z"/></symbol><symbol id="level-icon" viewBox="0 0 196 196"><defs><linearGradient id="a" x1="-127.25" x2="-241.62" y1="1032.05" y2="872.68" gradientTransform="matrix(1 0 0 -1 287 1044)" gradientUnits="userSpaceOnUse"><stop offset="0" stop-color="#701f1f"/><stop offset="1" stop-color="#ea5806"/></linearGradient></defs><circle cx="98" cy="98" r="90" fill="url(#a)"/><path fill="#f4c82a" d="M90.9 52.5a7.4 7.4 0 0 1 14.2 0l6.4 19.5a7.5 7.5 0 0 0 7.1 5.1h20.5a7.5 7.5 0 0 1 4.4 13.6l-16.6 12.1a7.5 7.5 0 0 0-2.7 8.3l6.3 19.6A7.4 7.4 0 0 1 119 139l-16.6-12a7.5 7.5 0 0 0-8.8 0L77 139a7.4 7.4 0 0 1-11.5-8.3l6.3-19.6a7.5 7.5 0 0 0-2.7-8.3L52.5 90.7a7.5 7.5 0 0 1 4.4-13.6h20.5a7.5 7.5 0 0 0 7.1-5.1z"/></symbol></svg>