<svg xmlns="http://www.w3.org/2000/svg" width="64" height="63.6" viewBox="0 0 64 63.6"><circle cx="31.8" cy="31.8" r="31.3" fill="#ec1d44"/><path fill="#fff" d="M37.4 44.7s-2 1-1.3 3.9 2.2 2.2 3.5 2a1.7 1.7 0 0 0 0 2.4H42l1.4.6h.7l.6 1 2.1.2.8-.6 1.1.8 1.3-.7v-.7l1.2-.4.9-1-.4-1.5-.4-.6.5-1.9-1.6-2.2.9-1.6-1.4-1.8-.5-.3-.8-2.5-2.5-1-3.1 3.5-2.9 2z"/><path fill="#fcccba" d="M21.4 16a23.8 23.8 0 0 0-1.4 8.3c0 4.8-.3 9.8-.3 9.8l1.1 3.7 2.9 4.2 3.9 2.8 1.6.5s8.1.5 12.5-2.3 4.2-6.7 4.2-6.7H48l3.5-1.6 1.8-3.4V29l-1.5-2.5-2.9-.9-2.3 1.8-.5.9-1.3-.4-1.6-2.2.2-3 1-2.9.2-2.2-1.6-.9-4.5-2.2-7 .6-3.9-.9s-4.3.7-4.8.3-1.4 1.5-1.4 1.5z"/><ellipse cx="32.1" cy="29.4" fill="#f8a78b" rx="9.4" ry="2.4"/><path fill="#fcccba" d="M14.8 27l-1.4 2.9.6 3.8 2.4 2 3.9.3-.6-1.9.3-5.3-5.2-1.8z"/><path fill="#fecf0c" d="M20 24.9l-6-3.2.2 1.5 5.8 3.2v-1.5z"/><path fill="#f78f20" d="M12.4 25.8l1.2-.9 6.4 2.5v1.4l-7.6-3z"/><path fill="#faaa19" d="M20 26.4v1l-6.4-2.5-.2-1.2.8-.5 5.8 3.2z"/><path fill="#ffe2b9" d="M10.2 22.3l2.2 3.5 1.2-.9-.2-1.2.8-.5-.2-1.5-3.8.6z"/><path fill="#723d19" d="M19.3 24.5a10.6 10.6 0 0 1 .4-5.7 6.4 6.4 0 0 1-1.8-6s.4-.1 1.4.4c-.6-1.2-.5-1.4-.5-1.4s-2.2-2.1-2.2-3.7a3.5 3.5 0 0 1 3-.4 4.6 4.6 0 0 1-.3-3.4c2.1-.8 6.3-.1 8.3 1.4a5 5 0 0 1 1.7-2.9l1.3 2.1s1.8-2.6 4.4-1.7a5.3 5.3 0 0 0 .1 4.8l1.4-1.8 1.3 1.5.7-.2s.7 3.6 4.1 3.5 4.4 2.9 4.4 2.9 3-3.2 5.8-.5c-.1 2.5-3.3 3.4-3.3 3.4s2 2.1 1 6a8.2 8.2 0 0 0 1.7 1.4l-.4 1 1.3.7v.2l-.5.5s-3.6-2.2-6.9 1.6c-2.5-.8-2.4-4.3-2.4-4.3s1.9-4.9 1.2-6.4a10.4 10.4 0 0 1-5-2.2l-3.1 1.2s-3.4.5-4.9-1.4c.1 1.3-1.5.8-1.5.8a3.2 3.2 0 0 1-1.4-1 4.1 4.1 0 0 1-4.1.3c-2.2-1-2.1-.6-2.1-.6a5.3 5.3 0 0 0-1.5 2.8c-.4 2-.9 6.9-.9 6.9z"/><path fill="#fff" d="M20.6 37.3l-1.9-.2-.8.7-.3 1-.9.2-.5.8.2 1.2-1.6 1-.4 1.4.2.4-1.2.7-.6.8.3 1.4-1.6 1-.3 1.2.3.9-.3 1.1v.9l1.2.2 1-.5-.3.5.5.7H15l.9-.8.9.8h1.5l1-1 1.3.3 1.6-.8.8-1.1 1.4-.3.9-1 2.1-.8 1-1.3-.3-1.7-4.4-3-3.1-4.7z"/><path fill="#723d19" d="M48.9 36.2l1 2-2 1.4-2-.8v-2.5l3-.1z"/><path fill="#fff" d="M30.3 35.3s6.6-3.7 7.7-.7-5.4 4.7-7.7 4.7-5.8-1.4-5.8-4.3 3.5-.7 4.1 0 1.7.3 1.7.3z"/><circle cx="24.9" cy="27.5" r="3.5" fill="#fff"/><path fill="#fdbc16" d="M25 25.1l-2.4 2.3 1.9 2.5 2.9-2.4-2.4-2.4z"/><circle cx="38.8" cy="28.2" r="3.4" fill="#fff"/><path fill="#fdbc16" d="M38.5 25.8L36.3 28l2.4 2.4 2.5-2.7-2.7-1.9z"/><ellipse cx="41" cy="47.4" fill="#fdbc16" rx="2.2" ry="1.9" transform="rotate(-18.8 40.868 47.415)"/><path fill="#f04d58" d="M44.2 48l3.2-1.7 2.3 2.2-3.6 2.2-1.9-2.7z"/><path fill="#fff" d="M11.9 22.3l-.7 1.5-1-1.5h1.7z"/><path d="M0 31.3a32.3 32.3 0 0 1 .6-6.1 25.7 25.7 0 0 1 2-6.1 33.2 33.2 0 0 1 6.3-9.3 29.5 29.5 0 0 1 11.9-7.7A28 28 0 0 1 27.1.4l3.6-.4h4.2a31.6 31.6 0 0 1 6.8 1.4 20.8 20.8 0 0 1 3.2 1.2 29.9 29.9 0 0 1 4 2A28.9 28.9 0 0 1 53.4 8a33.2 33.2 0 0 1 5.7 6.7 33.6 33.6 0 0 1 3 6 31.1 31.1 0 0 1 1.6 6.7 27.3 27.3 0 0 1 .3 5.7 38.2 38.2 0 0 1-1.5 8.2 30.6 30.6 0 0 1-3.3 7.1 29.8 29.8 0 0 1-6.3 7.4 32.9 32.9 0 0 1-7.3 4.8 32.7 32.7 0 0 1-8.2 2.6 45.5 45.5 0 0 1-5.3.4 34.8 34.8 0 0 1-8.5-1.1 32.2 32.2 0 0 1-8.5-3.7 33.5 33.5 0 0 1-8.9-8.3A33.7 33.7 0 0 1 1.5 41a35 35 0 0 1-1.3-5.6C.1 34 0 32.7 0 31.3zM31.8.7H29L27 1a25.1 25.1 0 0 0-6.1 1.7 29.9 29.9 0 0 0-8.1 4.8A33.6 33.6 0 0 0 7.6 13a29.8 29.8 0 0 0-4.8 10.5 30 30 0 0 0-1.1 7.3 38.7 38.7 0 0 0 .3 4.8 26.7 26.7 0 0 0 1.5 6.2 30.8 30.8 0 0 0 8.1 12 35.3 35.3 0 0 0 6.8 4.6 31.2 31.2 0 0 0 8.5 2.7 26 26 0 0 0 3.9.5h2.7l3.4-.3a32.5 32.5 0 0 0 9.5-3.3 32 32 0 0 0 9.2-7.6 30.3 30.3 0 0 0 4.9-9 29.1 29.1 0 0 0 1.6-8.2 35 35 0 0 0-.3-6.5 35.3 35.3 0 0 0-1.4-5.7 29.4 29.4 0 0 0-4.2-7.8 29.7 29.7 0 0 0-6.9-6.8 27.1 27.1 0 0 0-7.5-4 30 30 0 0 0-10-1.7z"/><path d="M45.2 27.6c-.1-.1-.1-.2-.2-.2a6.2 6.2 0 0 1-.9-2.6c0-.1 0-.2.1-.2s.1.1.1.2a9.4 9.4 0 0 0 .4 1.6 7.5 7.5 0 0 0 .7 1.2l.3.2c0 .1.1.1.1 0a5.6 5.6 0 0 1 .5-.8c.1-.2 0-.2-.1-.3a3.2 3.2 0 0 1-1.3-1.5 3 3 0 0 1-.4-1c0-.2-.1-.4 0-.6a4.2 4.2 0 0 0 .4 1 5.4 5.4 0 0 0 1 1.6l.3.3c.3.2.3.2.5-.1a4.3 4.3 0 0 1 2.3-1.5c.3 0 .4-.1.4-.4a14.2 14.2 0 0 0 .5-2.2 14.6 14.6 0 0 0-.3-3.6 5.9 5.9 0 0 0-1.2-2.2l-.6-.5h-.1a1.3 1.3 0 0 0-1.2-.1 3.5 3.5 0 0 0-1.4.6l-.7.3s-.1.1-.1 0v-.2a.1.1 0 0 0 .1-.1 4.1 4.1 0 0 1 2.3-.9h1.2a1.8 1.8 0 0 1 1 .4 1 1 0 0 1 .5.4.9.9 0 0 0 .7.1l1-.7a4.4 4.4 0 0 0 1.2-1.9c.1-.2.1-.3-.1-.4a5.8 5.8 0 0 0-1.8-.4 5.4 5.4 0 0 0-2.5.6l-.4.2c-.3.3-.3.3-.2.7s.1.2.1.4h-.1c-.1 0-.2 0-.2-.1s-.1-.1-.1-.2a7.1 7.1 0 0 0-3.8-3 6.1 6.1 0 0 0-1.3-.3H41A3.5 3.5 0 0 1 38.4 9a1.4 1.4 0 0 1-.1-.9c0-.2-.1-.2-.3-.1l-.6.5a2.7 2.7 0 0 0-.5 1.4 6.4 6.4 0 0 0 .5 3.9l.8 1.4c.1.1.2.2.2.3s-.3-.1-.4-.1l-.8-1a5.4 5.4 0 0 1-1.1-2.6c0-.3-.1-.6-.1-.9s0-.2-.1-.2a2.3 2.3 0 0 1-.7-.7A5.8 5.8 0 0 1 34 6c.1-.5.1-1 .2-1.5l.3-.7.3-.2c.1 0 .1 0 .1.2v.1a9.7 9.7 0 0 0-.2 2.4.8.8 0 0 1 .1.4.4.4 0 0 0 .1.3v-.4c.1-.2.1-.4.2-.6s.1-.1.1-.2h.2c.1 0 .1.1 0 .1v.8a.2.2 0 0 0 .2-.2 1.8 1.8 0 0 1 .7-.5c.2-.1.2-.1.4.1a7.6 7.6 0 0 0 .8 1.1c.1.2.2.2.5.1h.6c.1 0 .1.1.2.3a2.9 2.9 0 0 0 2 2.5l1.6.2a6.6 6.6 0 0 1 4.3 2.8c0 .1.1.1.1.2s.2.2.3.1a3.8 3.8 0 0 1 2.6-1.3 2.9 2.9 0 0 1 1.6.1 5.7 5.7 0 0 1 1.3.8.5.5 0 0 1 .3.6 5.4 5.4 0 0 0-.3 1 3.8 3.8 0 0 1-2.3 2c-.3.1-.3.1-.2.3a5.8 5.8 0 0 1 .9 4.6 2.9 2.9 0 0 0-.2.9c-.1.2-.1.3 0 .4a2.4 2.4 0 0 0 1.3 1.1c.1 0 .2.1.2.3a1.4 1.4 0 0 1-.2.6c-.1.2 0 .2.1.3l.7.5c.1 0 .1.1.2.2s.1.3-.1.5-.2.2-.1.4l.8 1.3a4.7 4.7 0 0 1 .3 3.5 7.7 7.7 0 0 1-1.8 3.3 5.3 5.3 0 0 1-2.5 1.7h-.2c-.1 0-.2.1-.1.3l.2.3a4.3 4.3 0 0 0 .4.7.6.6 0 0 1-.1.7l-.8.6h-.2c-.2 0-.2.1-.1.2h.2a3.3 3.3 0 0 1 .6 2.5c0 .1 0 .2.2.3l.8.5a2 2 0 0 1 .7 2.1 1.9 1.9 0 0 1-.2.7c-.2.2-.2.2 0 .4l.8.9a2.9 2.9 0 0 1 .3 2.2l-.3.7c-.1.2-.1.3 0 .4a2.2 2.2 0 0 1 .6 1.4 2 2 0 0 1-1.8 2.2c-.2.1-.3.1-.4.3s-.1.3-.2.5a1.4 1.4 0 0 1-2.2.2c-.3-.3-.3-.3-.6-.1a2.3 2.3 0 0 1-2 .6 1.6 1.6 0 0 1-1.4-1.2.5.5 0 0 0-.5-.3 1.4 1.4 0 0 1-1.3-.5.2.2 0 0 0-.3 0 2.5 2.5 0 0 1-1.7.1 1.5 1.5 0 0 1-1.2-1.7V51c.1-.1 0-.2-.1-.2h-1.2l-.8-.3a2.3 2.3 0 0 1-1-2 .4.4 0 0 1 .1-.3c.1-.2.2-.2.3-.2a.2.2 0 0 1 .2.2c0 .1.1.2.1.3a1.8 1.8 0 0 0 .7 1 4.6 4.6 0 0 0 1.6.7h1.1a.1.1 0 0 1 0 .2l-.3.3a.2.2 0 0 0-.2.2 2.8 2.8 0 0 0 .1.9.9.9 0 0 0 .4.6 2.9 2.9 0 0 0 1.8.3c.2 0 .2-.1.2-.3s0-.2.1-.2.1-.1.2-.1a.1.1 0 0 1 .1.1 1 1 0 0 0 .9.8 1.3 1.3 0 0 0 1.2-.2c.1 0 .2-.2.3-.1s0 .3-.1.4c-.2.3-.2.3 0 .5l.5.3a2.5 2.5 0 0 0 2.2-.2.1.1 0 0 1 .1-.1c.3-.2.4-.1.5.2s0 .2.1.2a1 1 0 0 0 1.1.2 1.5 1.5 0 0 0 .7-1.2.6.6 0 0 1 .1-.4c0-.1 0-.2.1-.2h.2l.2.4h.2a2.2 2.2 0 0 0 1.1-1.8 1.3 1.3 0 0 0-.6-1 .8.8 0 0 0-.4-.4c0-.1-.1-.1-.1-.2h.4a.2.2 0 0 0 .2-.2 3 3 0 0 0-.6-2.9l-.5-.4h-.3c-.1-.1-.3-.2-.2-.4l.3-.2c.2.1.3 0 .4-.2a1.5 1.5 0 0 0-.2-1.9l-1-.8c-.3-.2-.3-.2-.2-.5v-.4a3.2 3.2 0 0 0-2.2-2.4h-.2c-.5-.1-.5-.1-.8.4a11.1 11.1 0 0 1-3.1 3.8 7.7 7.7 0 0 1-3.6 1.8 6.6 6.6 0 0 1-2 .1.7.7 0 0 1-.6-.2c-.2-.2-.2-.4.1-.5a1.1 1.1 0 0 1 .8-.2c.6-.1.6-.1.2-.6a9.9 9.9 0 0 1-1.4-2.7c-.1-.1-.2-.3-.1-.3s.2.1.2.2a22.8 22.8 0 0 0 1.7 3c.2.2.2.2.5.1l1.1-.3q.3-.2 0-.3a10.4 10.4 0 0 1-1.2-1.7c0-.1-.2-.2-.1-.3s.2.1.3.2a16.7 16.7 0 0 0 1.2 1.6c.3.2.2.2.5 0l.9-.5c.2-.2.2-.2 0-.4a8.6 8.6 0 0 1-1.8-2l-.4-.5a.3.3 0 0 1-.1-.2c0-.1-.1-.1 0-.2a.1.1 0 0 1 .1.1c.1 0 .1.1.2.2a16.7 16.7 0 0 0 2.3 2.3c.2.2.2.2.4 0l.6-.6q.3-.1 0-.3a12.5 12.5 0 0 1-1.5-1.9l-.3-.7h.2c0 .1.1.2.1.3a16.3 16.3 0 0 0 1.7 2c.2.2.2.2.4 0l.3-.5a16.5 16.5 0 0 0 2.1-4.7.9.9 0 0 0 .1-.5c0-.1.1-.2.1-.3a.3.3 0 0 1 .3-.3c.2 0 .4.1.4.3a1.9 1.9 0 0 1 .2.8c.1.3.1.3.4.3h.8a8.5 8.5 0 0 0 2.2-.9 4.4 4.4 0 0 0 1.7-1.6 20 20 0 0 0 1-2.1 3.6 3.6 0 0 0-.3-2.5 4.2 4.2 0 0 0-1.7-1.8 1.6 1.6 0 0 0-2 0 6.6 6.6 0 0 0-2.3 2l-.5.9c-.1.1-.1.1-.1.2s-.2.2-.3.1a.2.2 0 0 1-.2-.2c.1-.2-.1-.3-.3-.3l-1-.5h-.2c-.1-.1-.2-.2-.1-.3h.3l1.1.5h.3v-.2h-.2l-.9-.4H44a.2.2 0 0 1-.1-.3h.3l.9.4c.3.2.3.2.4-.1s.2-.5-.2-.8zm4.3 10.6c0-.1-.1-.2-.1-.3a2 2 0 0 1-.4-.8c-.1-.3-.1-.3-.4-.3a3.7 3.7 0 0 1-1.8 0c-.2 0-.3 0-.3.2s-.1.9-.2 1.4-.1.2.1.2a1.9 1.9 0 0 1 1.3.2h.4l.9-.3c.1-.1.1-.1.1-.2l-.5-.2c-.1-.1-.4-.1-.5-.3zm-13.3-29h.1a3.1 3.1 0 0 1 1-1.5c.1-.1.1-.1 0-.2a2.5 2.5 0 0 1-.8-1h-.2a2.7 2.7 0 0 0-.7.8c0 .2-.1.3 0 .4s.3.9.4 1.3zm15.6 15h-.2a2.7 2.7 0 0 1-1-.6c-.1-.2-.1-.1-.2 0a11.7 11.7 0 0 1-.5 1.1c-.1.2-.1.2.1.3l.9.2c.1.1.2 0 .3-.1l.5-.6zm-.1 1.3a1 1 0 0 0 .5.4l.3.3h.3a.2.2 0 0 0-.2-.2zm-16-15.9l.3.4h.1zM19.1 13h-.9c-.3-.1-.3-.1-.4.2v1.3l.3 1.3a5.2 5.2 0 0 0 1.7 2.6h.2c.2.2.2.3-.1.4l-.2.3a14.2 14.2 0 0 0-.4 2 13.8 13.8 0 0 0 .1 2.9c.2-.1.1-.2.1-.3a25 25 0 0 1 .6-3.8 18.9 18.9 0 0 1 .5-2.3c.1-.3 0-.3-.2-.4a4.4 4.4 0 0 1-1.6-2.2v-.4h.3a.3.3 0 0 0 .1.2 4.6 4.6 0 0 0 1.3 1.8c.3.2.3.2.4-.1l.3-.5c0-.1.1-.2.2-.1a1.3 1.3 0 0 1-.1.6 13.4 13.4 0 0 0-.5 3.5c-.2 3.1-.2 6.2-.2 9.3 0 .2-.1.5-.1.7a1.1 1.1 0 0 0-.1.5 22.6 22.6 0 0 0 .8 5.1 10.4 10.4 0 0 0 1.7 3.7c.2.3.2.3.4 0l.9-1.2h.1v.2l-.9 1.3c-.1.2-.1.3 0 .4l.3.5c.3.3.3.3.5-.1a6.7 6.7 0 0 1 .9-1.4c.1-.1.1-.2.3-.3s0 .2-.1.2a16.2 16.2 0 0 0-1 1.8c-.1.2-.1.3.1.4s.3.4.5 0a9.5 9.5 0 0 1 1-1.7c0-.1.1-.3.2-.3a.4.4 0 0 1-.1.3 12.4 12.4 0 0 0-1 2c-.1.3-.1.3.1.5l.9.7h.2c.2-.5.3-1.1.5-1.7a.1.1 0 0 1 .1.1 7.5 7.5 0 0 1-.4 1.6c0 .2 0 .3.2.4l1 .7c.1.2.2.1.2-.1s.3-1.4.5-2.1l.3-.6a.6.6 0 0 1-.1.4 20.5 20.5 0 0 0-.5 2.4c-.1.3-.1.3.2.4l1.1.5h.3c.1.1.2.2.2.3a.2.2 0 0 1-.2.2 1.1 1.1 0 0 1-.8 0 8 8 0 0 1-4.7-2 12.4 12.4 0 0 1-3.8-5l-.3-.7a.2.2 0 0 0-.2-.2 1.3 1.3 0 0 0-1.3.3 1.2 1.2 0 0 0-.2 1.4v.2a.1.1 0 0 1-.1.1c0 .1-.1.1-.2.1l-.3-.3c-.2-.2-.2-.2-.4-.1a1 1 0 0 0-.4 1.6c.2.3.2.4-.1.5l-.5.2a2 2 0 0 0-1.3 1.5.8.8 0 0 0 .1 1c.1.3.1.4-.2.5a1.9 1.9 0 0 0-1 .3 1.4 1.4 0 0 0-.7 1.1.8.8 0 0 0 .1.7.5.5 0 0 1-.2.8l-.7.4c-.3.2-.5.3-.6.6a1.4 1.4 0 0 0-.1 1.1c.1.1.1.2.3.2s.2-.1.3.1 0 .2-.1.3-.1.2-.2.2a1.3 1.3 0 0 0-.4.7c-.1.4 0 .6.4.7a1.7 1.7 0 0 0 1.2-.2h.3c.2 0 .3.1.2.3s-.2.3-.3.4-.2.2 0 .3l.7.2a1.5 1.5 0 0 0 1.1-.4.8.8 0 0 0 .4-.9v-.4h.3c.2.1.2.4.2.6a.7.7 0 0 0 .3.6h.2a2.2 2.2 0 0 0 2.1-.2c.2-.2.4-.3.4-.6s0-.2.1-.2a.1.1 0 0 1 .1.1c.4.5.8.4 1.3.3a4.6 4.6 0 0 0 1.8-1.3 1.8 1.8 0 0 0 .4-.9c0-.1 0-.2.1-.2s.1 0 .2.1.1.2.1.4.1.2.3.1l.9-.4a.9.9 0 0 0 .3-.7v-.2c0-.2.1-.3.3-.2s.4.1.6.1a4.1 4.1 0 0 0 2-1.4 1.5 1.5 0 0 0 .4-1.1c0-.1 0-.2.1-.2a.2.2 0 0 1 .3 0 .6.6 0 0 1 .3.6 2.7 2.7 0 0 1-1.4 2.4 2.5 2.5 0 0 1-1.7.4.3.3 0 0 0-.3.3 1.2 1.2 0 0 1-.6.8 2.8 2.8 0 0 1-1.3.3c-.2 0-.3 0-.4.2a2.9 2.9 0 0 1-2.6 1.7l-.8-.2c-.2-.1-.3-.1-.4.1a2.4 2.4 0 0 1-1.1.9 2.2 2.2 0 0 1-2.2-.5.2.2 0 0 0-.3 0 2.2 2.2 0 0 1-1.6.5 1.4 1.4 0 0 1-1.1-.7c-.1-.1-.2-.2-.4-.1h-.8a1.2 1.2 0 0 1-.9-1.8l.3-.5c.2-.1.2-.2.1-.4a1.6 1.6 0 0 1 .5-2.5l.8-.3c.2-.1.2-.1.1-.3a1.8 1.8 0 0 1 .4-2.2l.7-.4h.3c.1 0 .2-.1.1-.2a1.6 1.6 0 0 1 .1-1.5 2.4 2.4 0 0 1 1.4-1.2h.3c.1 0 .2-.1.1-.2s.3-1.9 1.2-2.1.2-.1.3-.3a1.6 1.6 0 0 1 1.7-1.4h.4c-.1-.2-.1-.3-.3-.3a9.6 9.6 0 0 1-1.7 0 7.9 7.9 0 0 1-2.2-.5 4.5 4.5 0 0 1-2.7-2.7 5.3 5.3 0 0 1 0-3.9 9.6 9.6 0 0 1 1.4-2.1c.1-.2.1-.2-.1-.3l-1.6-.6a.8.8 0 0 1-.4-.4c-.6-1-1.2-1.9-1.7-2.9a.5.5 0 0 1-.2-.4.4.4 0 0 1 .2-.5l3.6-.7.7.2 1.8.9 2.2 1.2c.1.1.2.2.3.1s-.1-.6-.1-.9a6.9 6.9 0 0 1 .5-4c.1-.2.1-.2-.1-.4a4.6 4.6 0 0 1-2-3.7 8.6 8.6 0 0 1 .1-1.6 1.3 1.3 0 0 1 .3-.5c.1-.2.2-.2.4-.2l1.1.5zm-1 15.5a.3.3 0 0 0 .1.2h.1a2.4 2.4 0 0 1 .3 2l-.2.3h-.3c-.1-.3-.5-.3-.7-.4s-.4.1-.4.4a1.3 1.3 0 0 0 .3.8l.2.3v.2a.2.2 0 0 1-.3 0h-.1a2.3 2.3 0 0 1-.8-1.6 1.2 1.2 0 0 1 .5-.7.6.6 0 0 1 .6 0l.7.3c.1.1.2 0 .2-.1a.9.9 0 0 0-.1-.5 3.4 3.4 0 0 0-.9-1.5l-.5-.3-1.2-.4c-.3-.2-.3-.2-.5.1a6.8 6.8 0 0 0-.8 4.2 3.3 3.3 0 0 0 1.8 2.6 13.8 13.8 0 0 0 2.9.8c.2 0 .2 0 .2-.3s-.1-.9-.2-1.4a16 16 0 0 1 .4-4.4c.1-.2 0-.2-.1-.3l-1.1-.4zm1.5-1.7a7.6 7.6 0 0 1-.1-1.5.5.5 0 0 0-.3-.5l-4.7-2.4h-.1c-.1-.1-.1 0-.1.1a.6.6 0 0 0 .3.6l4.5 2.5c.1.1.2.1.1.3s-.2 0-.3 0l-4.6-2.3a.5.5 0 0 0-.6.1c-.1.1-.2.1-.1.3a.8.8 0 0 1 .2.5.8.8 0 0 0 .4.4l2.8 1.2 2.3.9c.3.1.3.1.3-.2zm.1 1.5v-.5a.5.5 0 0 0-.4-.5l-4.9-1.9c-.5-.2-.9-.2-1.2.2s-.2 0-.1.1.1.1.1.2h.1l5.5 2.2.8.3c.1 0 .2.1.1-.1zM14 22.8a.9.9 0 0 0-.1-.5c0-.1 0-.2-.2-.1l-1.5.3c-.2 0-.2.1-.2.2a.4.4 0 0 1-.1.3c-.2.2-.2.5-.4.7s0 .1.1.2l.8 1.3c0 .1.1.1.2.1l.6-.4c.2-.1.2-.2.1-.3s-.1-.4-.2-.5 0-.4.2-.6l.6-.4a.4.4 0 0 0 .1-.3zm-2.8.1H11c0 .1.2.4.3.3s.1-.2.1-.3-.1 0-.2 0z"/><path d="M30.6 39.8a8.4 8.4 0 0 1-3.5-.7 4.7 4.7 0 0 1-2.5-2.1 4.2 4.2 0 0 1-.4-1.5 2.3 2.3 0 0 1 .7-1.9 1.4 1.4 0 0 1 1.2-.4 4.5 4.5 0 0 1 2.4 1.4l.2.3c0 .1 0 .2-.1.2s-.1.1-.1 0l-.3-.2c-.4-.3-.4-.3-.5.2a20.5 20.5 0 0 0-.5 2.4c-.1.3-.1.3.3.5a7.8 7.8 0 0 0 2.2.4c.3 0 .3 0 .3-.3a13.4 13.4 0 0 1-.1-2 .6.6 0 0 0 0-.6.3.3 0 0 1 0-.4l.3-.3a9.6 9.6 0 0 1 5.8-1.9 3.3 3.3 0 0 1 1.7.4 1.8 1.8 0 0 1 .9 2.1 2.8 2.8 0 0 1-.8 1.5 9.3 9.3 0 0 1-4.5 2.6 11.2 11.2 0 0 1-2.7.3zm5.2-5.7a6.7 6.7 0 0 0-2.2.4c-.2 0-.3.1-.2.3s.1.4.1.6a17 17 0 0 0 .4 2.2c.1.3.1.3.4.1a5.7 5.7 0 0 0 2.1-1.3c.3-.3.7-.6.8-1a.7.7 0 0 0-.4-1.1 2.2 2.2 0 0 0-1-.2zM31 38.4h.9l1.5-.2c.2-.1.2-.1.1-.3l-.3-1.3a7.6 7.6 0 0 1-.3-1.6c0-.2 0-.2-.2-.1l-2 .7c-.2.1-.3.2-.3.4v2.3c0 .2 0 .2.2.2zm-5-4.5l-.5.2a1.7 1.7 0 0 0-.5 1.2 3.4 3.4 0 0 0 1.4 2.1c.1.1.2.1.2-.1a6.4 6.4 0 0 0 .2-.7 19.4 19.4 0 0 1 .5-2 .2.2 0 0 0 0-.3zm7-20.4h-.7l-1.3-1h-.3v.2a4 4 0 0 0 1.1 2 5.5 5.5 0 0 0 3.1 1.6l1.5.2h-.2a7.8 7.8 0 0 1-3.4-.4 4.2 4.2 0 0 1-2.6-2.6 3.4 3.4 0 0 1 0-2 .4.4 0 0 0-.1-.3 6.1 6.1 0 0 1-.6-3.2l-.2-.4a6.3 6.3 0 0 0-1.2-1.1 11.6 11.6 0 0 0-4.3-1.8l-2-.4a9.7 9.7 0 0 0-2.4.2h-.7a.4.4 0 0 1 .1-.3h.3a3.3 3.3 0 0 1 1.7-.4A9.7 9.7 0 0 1 27 5.1c.4.2.4.2.5-.2A4.4 4.4 0 0 1 29 2.6c.2-.2.3-.1.4.1l.9 1.7c.2.2.2.2.4 0a4.4 4.4 0 0 1 2.5-1.6h1.1c.1 0 .3 0 .2.2s-.2.1-.3.1a2.8 2.8 0 0 0-2.5 1.2 6 6 0 0 0-1.3 2.8 6.6 6.6 0 0 0 .8 4.6 3.5 3.5 0 0 0 1.7 1.7zm-3.5-6.4h.1a6 6 0 0 1 .6-1.9.2.2 0 0 0 0-.3 6 6 0 0 1-.9-1.5c-.1-.3-.2-.3-.3-.1a7.1 7.1 0 0 0-1.1 2.1c0 .2 0 .4.2.5L29.4 7z"/><path d="M19.7 5h.6a13.8 13.8 0 0 1 5.2 2.8 11.4 11.4 0 0 1 1.6 1.5c.2.1.2.1.3-.1a14 14 0 0 1 1-1.6c0-.1.1-.2.2-.3a.1.1 0 0 1 .2 0 4.3 4.3 0 0 1-.1.5 10.8 10.8 0 0 0-.8 1.9 6 6 0 0 0-.1 2.3 10.4 10.4 0 0 0 .3 1.2 4.3 4.3 0 0 0 1.2 1.7l.8.7v.4c0 .1-.1 0-.2 0h-.4a4.7 4.7 0 0 1-1.7-1.4l-.3-.3a7.1 7.1 0 0 1-2.8-1.6 9 9 0 0 1-2.3-3.1c-.4-.9-.7-1.9-1-2.8a4.3 4.3 0 0 0-.1-.5c0-.2 0-.2-.1-.3l-1.4-.6h-.2c-.1-.1-.2-.1-.2-.2zm7.6 8.8c.1-.2 0-.2 0-.3a5 5 0 0 1-.2-3.4c.1-.2 0-.3-.1-.4l-.8-.6A43.8 43.8 0 0 0 22 6.3h-.3a15.9 15.9 0 0 0 2.3 4.4 10.8 10.8 0 0 0 3.3 3.1z"/><path d="M19.1 13l-.2-.3a.8.8 0 0 1-.2-.6l-.2-.2-1.1-1.1a4.9 4.9 0 0 1-1.1-2.3c-.1-.6 0-.8.5-1a6 6 0 0 1 2.3-.1c.2 0 .3.1.4-.1h.2v.2a8.7 8.7 0 0 0 1.7 3.3 9.5 9.5 0 0 0 4.1 3.1l1 .4h.2v.2h-.4a8.2 8.2 0 0 1-4.7-2.5 9.3 9.3 0 0 1-2.1-3.9c-.1-.2-.1-.3-.3-.3a8.5 8.5 0 0 0-2.3.3c-.3 0-.3.1-.2.4a8.1 8.1 0 0 0 1 1.8 9.3 9.3 0 0 0 2.3 2.1c.2.1.3.2.4 0h.2l.3.3a17.7 17.7 0 0 0 4.9 2.6h1.1a.2.2 0 0 1-.2.2h-.5a7.6 7.6 0 0 1-4.6-1.9l-.9-.8-1-.4-.5-.3c0 .2.1.2.2.3a9.1 9.1 0 0 0 2.1 1.8l.2.2c.1 0 .1.1.1.2h-.2l-.6-.2a4.6 4.6 0 0 1-1.7-1.4l-.2-.3zm22.3 15.3a2.5 2.5 0 0 1-2.7 2.5 2.6 2.6 0 0 1-2.6-2.6 2.5 2.5 0 0 1 2.6-2.6 2.8 2.8 0 0 1 2.7 2.7zm-2.8-2.2h-.2c0 .1-.1.2-.1.3a4.4 4.4 0 0 1-1.4 1.3.2.2 0 0 0-.2.2c0 .1.1.1.2.2h.2a1.8 1.8 0 0 1 .7.5 2.4 2.4 0 0 1 .6.9l.2.3a.1.1 0 0 0 .2 0h.1a.4.4 0 0 1 .1-.3 2.9 2.9 0 0 1 1.5-1.6h.2c.1-.1.2-.1.2-.3h-.7a1.5 1.5 0 0 1-1.3-1c-.1-.4-.1-.5-.3-.5zm-16.4 1.3a2.7 2.7 0 0 1 2.7-2.6 2.4 2.4 0 0 1 2.5 2.5 2.7 2.7 0 0 1-2.6 2.7 2.5 2.5 0 0 1-2.6-2.6zm2.4 2.2a.2.2 0 0 0 .2-.2 1.9 1.9 0 0 1 1-1.3l.6-.2h.4c.2 0 .2-.2.3-.3s-.2-.2-.3-.2a2.6 2.6 0 0 1-.9-.5 6.1 6.1 0 0 1-.7-1.4l-.2-.2c-.1 0-.1.1-.2.2l-.7 1.1a2.1 2.1 0 0 1-1 .6c-.1 0-.2 0-.3.2a.2.2 0 0 0 .2.2l.3.2.5.5a2.2 2.2 0 0 1 .6 1.3zm1.6-10.8a2.7 2.7 0 0 1 1.8.5 3.2 3.2 0 0 1 1.2 2 .4.4 0 0 1-.2.4c-.2.1-.3 0-.4-.1a3.2 3.2 0 0 0-1.8-1 5.2 5.2 0 0 0-4 .9h-.6c-.1 0-.1-.2-.1-.3a1.6 1.6 0 0 1 .4-.7 4.9 4.9 0 0 1 2.4-1.5 3 3 0 0 1 1.3-.2zm19 8.8h.1v.4c.1.2 0 .3-.2.3h-.3a4.1 4.1 0 0 1-2.2-3.3 7.5 7.5 0 0 1 .2-2.1 14.6 14.6 0 0 1 .7-1.9 6 6 0 0 0 .7-3.2v-.2c.1-.1 0-.2.2-.2s.1.1.2.2.1.4.1.6a5.1 5.1 0 0 1-.2 3l-.6 1.9a5.3 5.3 0 0 0 .4 3.5 2.2 2.2 0 0 0 .9 1zm-4.3 22a2.4 2.4 0 0 1-1.7-.6 2 2 0 0 1-.6-1.8 2.7 2.7 0 0 1 3.3-2 2 2 0 0 1 1.3 2.9 2.6 2.6 0 0 1-2.3 1.5zm.3-3.7a1.8 1.8 0 0 0-1.5.7 1.1 1.1 0 0 0 .4 1.8 1.9 1.9 0 0 0 2.4-.8 1 1 0 0 0-.4-1.5 1.5 1.5 0 0 0-.9-.2zM36.1 23H35c-.1-.1-.2-.2-.1-.3s.1-.2.2-.3h.1a10.1 10.1 0 0 0 2.3-.7l3.4-1.7.8-.2c.4-.1.5.1.4.5a.9.9 0 0 1-.3.6 5.7 5.7 0 0 1-1.6 1.1 11.2 11.2 0 0 1-3.6.9zm-2.8-11v-.5c0-.2.1-.3.2-.3s.2.2.2.3.1.6.1.9a4.5 4.5 0 0 0 1.4 2.4l.5.5.2.2a.1.1 0 0 1 0 .2h-.4a6.1 6.1 0 0 1-1.9-2l-.2-.3a5.7 5.7 0 0 1-1.9-2.9 6.9 6.9 0 0 1 .1-3.5 1.8 1.8 0 0 1 .5-.7h.2c.1.1 0 .2 0 .3a3.6 3.6 0 0 0-.2 1 8.6 8.6 0 0 0 .2 2.3A17.2 17.2 0 0 0 33 12zm16.6 36.6c0 .1 0 .2-.1.2l-.3.2-3 1.8h-.2c-.2.1-.3.1-.4-.1a13.3 13.3 0 0 1-1.4-1.9l-.3-.6c-.2-.3-.1-.4.1-.6h.2a10.1 10.1 0 0 1 2.3-1.2h.2a.6.6 0 0 1 .7.1l1.6 1.5.5.5a.4.4 0 0 1 .1.1zm-.6-.1c0-.1-.1-.1-.1-.2L48 47.2l-.4-.5c-.1-.1-.2-.1-.4 0l-.5.2-2.1.9c-.2.1-.2.2-.1.3a17.7 17.7 0 0 0 1.6 2.2c0 .1.1.1.2 0h.2c.9-.5 1.7-1.1 2.6-1.5h.2z"/><path d="M38.3 32.8a2.3 2.3 0 0 1-1.4-.4l-.6-.4-.3-.2c-.2-.2-.2-.4-.1-.5s.2-.2.5-.1a7.4 7.4 0 0 0 3.3.2 3.8 3.8 0 0 0 1.7-.8.4.4 0 0 1 .5-.1c.1.1 0 .2-.1.5a3.2 3.2 0 0 1-1 1 4.4 4.4 0 0 1-2.5.8zM25 23a3.7 3.7 0 0 1 2.7 1.2.5.5 0 0 1 .2.4c0 .2-.1.4-.3.3h-.4a4.3 4.3 0 0 0-2.2-.6 3.8 3.8 0 0 0-2.3.6c-.1.1-.3.2-.4.1a.3.3 0 0 1 0-.4 2.2 2.2 0 0 1 .5-.8A3.2 3.2 0 0 1 25 23zm22.3 8.3h.4a.5.5 0 0 1 .6.6 2.4 2.4 0 0 1-.2.8 2.8 2.8 0 0 1-.7.9c0 .1-.1.1-.2.1H47a.2.2 0 0 1 0-.3l.2-.3a4.1 4.1 0 0 0 .5-.9c.1-.3.1-.4-.3-.4h-.3a.5.5 0 0 0-.4.2l-.2.3h-.3a.4.4 0 0 1-.1-.3v-.2a5.5 5.5 0 0 1 2.8-3l1.2-.4c.3 0 .4.1.4.2s-.1.3-.2.3a9.5 9.5 0 0 0-2.8 2c-.1.2-.2.3-.2.4zm-5.9-6.2c0 .2-.2.3-.4.2l-1.2-.4a5.5 5.5 0 0 0-1.8-.1 2.3 2.3 0 0 0-1.2.6l-.3.2h-.3a.4.4 0 0 1-.1-.3c0-.1.1-.2.1-.3a3.3 3.3 0 0 1 5.1-.3c.1.1.1.2.1.4zm-16.5 7.2a3 3 0 0 1-2.2-1c-.1 0-.2-.1-.2-.3a.3.3 0 0 1 .4-.4l.5.2a3.9 3.9 0 0 0 3.8-.3h.1c.1-.1.3-.2.4-.1a.6.6 0 0 1 .1.4l-.2.4a4.2 4.2 0 0 1-2.7 1.1zm12.4-20.7a2.8 2.8 0 0 1 .1-.9l.3-.4c.2-.1.3 0 .3.1v.2a3 3 0 0 0 .2 2.1 6.3 6.3 0 0 0 2.9 3.3l.3.3c.1 0 .2.1.1.2s-.1.1-.2.1H41a5.3 5.3 0 0 1-3.7-4.6z"/><path d="M42.8 16.7a1.1 1.1 0 0 1-.8-.3 4.9 4.9 0 0 1-2.3-2.6 3.6 3.6 0 0 1-.2-1.1.4.4 0 0 1 .1-.3h.2v.2a6.6 6.6 0 0 0 .5 1.5 6.4 6.4 0 0 0 1.9 2.1l.6.3.2.2c0 .1-.1 0-.2 0zm-8.3 23.9a.3.3 0 0 0 .1.2 1.9 1.9 0 0 0 .2.7 19.4 19.4 0 0 0 1.5 3.6v.2h-.2l-.2-.3a8.9 8.9 0 0 1-.8-1.7 16.8 16.8 0 0 1-.7-2.4v-.3h.1zm-.2-17.3v.2c-.2.1-.3 0-.4-.1l-.3-.5a3.8 3.8 0 0 1-.1-1.5c0-.1 0-.2.1-.2a.2.2 0 0 1 .4 0 11.8 11.8 0 0 1 .3 2.1zM21.2 8.2a.9.9 0 0 1-.1.5.1.1 0 0 1-.2 0v-.2l-.6-1.9a4.7 4.7 0 0 0-.6-.9.1.1 0 0 1 0-.2h.3l.3.3a4.2 4.2 0 0 1 .9 2.4zm7.4 22.2a.1.1 0 0 1 .1-.1 24.2 24.2 0 0 1 3.3-3.2c.1-.1.2-.2.3-.1s0 .2-.1.3l-2.4 2.1-1 .9z"/><path d="M41.5 12.1a4.4 4.4 0 0 0 .2 2l.6 1.2s.2.2.1.2-.3 0-.4-.1a4.4 4.4 0 0 1-.8-1.5 3.8 3.8 0 0 1-.1-1.5l.2-.4h.2zm5.9 13.1h-.5a5.2 5.2 0 0 1-2-1.9v-.4c0-.1 0-.1.1-.1 0 .1.1.1.1.2a8.5 8.5 0 0 0 1.6 1.7 2 2 0 0 0 .8.4.1.1 0 0 1 .1.1c0 .1-.1 0-.2 0zM30.1 42.3v-.7c0-.1 0-.1.1-.1s.1 0 .1.1a24.5 24.5 0 0 0 .4 3.8c0 .1.1.2-.1.2s-.1-.1-.1-.2l-.3-1.8a6.6 6.6 0 0 1-.1-1.3zm-.2-11.9s-.1-.1 0-.1 0-.1.1-.2a27.3 27.3 0 0 1 2.5-2.3c.1-.1.2-.2.3-.1s-.1.2-.2.3l-2.5 2.3zm3.5 10.8a.1.1 0 0 1 .1.1c0 .1 0 .1.1.2a28 28 0 0 0 .6 2.8 4.3 4.3 0 0 1 .1.5c.1.1.1.1 0 .1h-.1l-.3-.6a18.4 18.4 0 0 1-.5-2.5zm15.5-16.7a3.6 3.6 0 0 1-3.3-2.2 4.7 4.7 0 0 0 3.3 2.2zm-.9-1.3a.4.4 0 0 1-.5-.1 5.4 5.4 0 0 1-2.3-2.2l.2.2a8.5 8.5 0 0 0 1.6 1.6l.5.3zM32.5 44.8a6.8 6.8 0 0 1-.4-2.8c.1.9.3 1.9.4 2.8zm-2.2-16.9a11.1 11.1 0 0 1-1.9 1.8 10.7 10.7 0 0 1 1.9-1.8zm1.5 1.8c0-.1.1-.2.1-.3l1.2-1h.1c.1-.1.1-.1.1 0v.1h-.1l-1.3 1.2zm1.1-.1a.3.3 0 0 1 .1-.2l.8-.8c.1 0 .1 0 .1-.1h.1v.2c-.1 0-.1 0-.1.1l-1 .8zm13.7 19.3c0 .2 0 .2.1.3v.2h-.3a3.5 3.5 0 0 1-.8-1 .5.5 0 0 1 .1-.6 1.2 1.2 0 0 1 1.3-.2.4.4 0 0 1 .3.6.3.3 0 0 1-.1.2l.5.2h.2c.1.1.2.2.1.3s0 .1-.1.1h-1.3zm.1-.8a.1.1 0 0 0-.1-.1c-.2-.1-.5 0-.7 0s-.1.1 0 .1.3.4.3.4.4-.3.5-.4z"/></svg>