<svg xmlns="http://www.w3.org/2000/svg" width="143.2" height="143.2" viewBox="0 0 143.2 143.2"><circle cx="71.6" cy="71.6" r="70.1" fill="none" stroke="#6d6e71" stroke-miterlimit="10" stroke-width="3.04"/><path fill="none" stroke="#6d6e71" stroke-miterlimit="10" stroke-width="3.04" d="M15.9 29l111 85.8"/><g fill="#6d6e71"><path d="M65.5 123.7c1.2.5-9.2-12.8-10.2-17.1-3.6-11.9-2.2-17-.7-20.5 8.7-18.3 14.1-27.8 14.1-27.8A60.3 60.3 0 0 0 81 78.5c8.5 9-2.9 33.8-9.5 43.8-.6.9-1.4 4.2-.3 3.7 29.3-13.9 36.4-27.5 36.8-42.7.2-4.6-.7-11.1-4.2-19.2-4.4-10.2-9.5-14.9-12.4-16.9a1.2 1.2 0 0 0-2 1c1.3 11.1-3.5 14.1-6.7 7.8-1.2-2.5-2.1-6.9-2.3-12.3a38.2 38.2 0 0 0-11-25.3 33.7 33.7 0 0 0-6.5-5.2c-.9-.5-2.1.1-2 1 .8 6.1 1.2 23.5-15.9 44.9-15.5 19.8-8.5 34.4-6 38.4 4.6 7.5 9.5 19.7 26.4 28.7z"/><path d="M68.6 74s-6.1 15.8-7.2 19.8c-3.2 11.5 4.7 25 6.4 27.6s5.4-18.2 6.8-22.9c3.5-11.7-6-24.5-6-24.5z"/></g></svg>