<svg xmlns="http://www.w3.org/2000/svg"><symbol id="about" viewBox="0 0 256 256"><path d="M28.2 27.7a93 93 0 0 0 106.7 149.2l73.2 73.2a28.6 28.6 0 0 0 40.5 0 28.6 28.6 0 0 0 0-40.5L176 137A92.9 92.9 0 0 0 28.2 27.7zm110 110a62.6 62.6 0 1 1 0-88.5 62.5 62.5 0 0 1 0 88.5z"/><circle cx="133.6" cy="64.5" r="8.6"/><circle cx="100.6" cy="60.6" r="18.4"/></symbol><symbol id="instagram" viewBox="0 0 256 256"><path d="M196.8 255.9H58.4A59.3 59.3 0 0 1-.9 196.7V58.3A59.4 59.4 0 0 1 58.4-1h138.4A59.3 59.3 0 0 1 256 58.3v138.4a59.3 59.3 0 0 1-59.2 59.2zM58.4 32.8a25.5 25.5 0 0 0-25.5 25.5v138.4a25.5 25.5 0 0 0 25.5 25.5h138.4a25.5 25.5 0 0 0 25.5-25.5V58.3a25.5 25.5 0 0 0-25.5-25.5z"/><circle cx="192.1" cy="61.9" r="19.1"/><path d="M127.6 184.2a56.7 56.7 0 1 1 56.7-56.7 56.8 56.8 0 0 1-56.7 56.7zm0-84.2a27.5 27.5 0 1 0 27.5 27.5 27.5 27.5 0 0 0-27.5-27.5z"/></symbol><symbol id="homepage" viewBox="0 0 256 256"><path d="M256.3 118.4l-39.5-36.9V35.3h-28v20L129.2-.4 1.8 118.6a3.2 3.2 0 0 0 1.8 5.8H24v117.2c0 7.5 5.8 13.7 13 13.7h63.5v-55.7a9.1 9.1 0 0 1 8.9-9.3h39.9a8.8 8.8 0 0 1 8.6 9v56h61.8c8.1 0 14.7-7 14.7-15.5V124.4h20.1a3.3 3.3 0 0 0 1.8-6z"/></symbol><symbol id="portfolio" viewBox="0 0 256 256"><path d="M244 62.8h-56.4c0-.3.1-.6.1-.9V25.3A24.4 24.4 0 0 0 163.3 1H94.2a24.3 24.3 0 0 0-24.3 24.3v37.5H13.6A13 13 0 0 0 .8 76v167.5a13 13 0 0 0 12.8 13.2H244a13 13 0 0 0 12.8-13.2V76A13 13 0 0 0 244 62.8zM94.6 25.6H163v35.9H94.6zM57.7 129.1a9.1 9.1 0 0 1 0-12.6l26.5-27.4a8.3 8.3 0 0 1 12.1 0l10.3 10.6-38.7 40zm17.5 18.2l38.7-40 68.2 70.6-38.7 40zm120.6 88.2l-39.6-11 33.3-34.5 10.6 41a3.6 3.6 0 0 1-4.3 4.5z"/></symbol><symbol id="linkedin" viewBox="0 0 256 256"><path d="M196.7 255.9H59.3A59.2 59.2 0 0 1 .1 196.7V59.3A59.2 59.2 0 0 1 59.3.1h137.4a59.2 59.2 0 0 1 59.2 59.2v137.4a59.2 59.2 0 0 1-59.2 59.2zM59.3 33.6a25.7 25.7 0 0 0-25.7 25.7v137.4a25.7 25.7 0 0 0 25.7 25.7h137.4a25.7 25.7 0 0 0 25.7-25.7V59.3a25.7 25.7 0 0 0-25.7-25.7z"/><path d="M52.1 66.5a19.7 19.7 0 1 1 19.7 19.7 19.6 19.6 0 0 1-19.7-19.7zM54.2 96h35.2v94.4H54.2zm118.6 42.2c0-9.8-5.3-13.5-13.7-13.5s-12.1 4.1-15 7.4v58.3h-35.2V96h35.2v10.7c5.4-6.2 15.8-13 32.4-13 21.9 0 31.5 13.2 31.5 29.7v67h-35.2z"/></symbol></svg>