<svg xmlns="http://www.w3.org/2000/svg"><symbol id="instagram" viewBox="0 0 256 256"><rect width="223.2" height="223.18" x="16" y="15.9" fill="none" stroke="#231f20" stroke-linejoin="round" stroke-width="33.71" rx="42.4"/><circle cx="192.1" cy="61.9" r="19.1" fill="#231f20"/><circle cx="127.6" cy="127.5" r="42.1" fill="none" stroke="#231f20" stroke-linejoin="round" stroke-width="29.2"/></symbol><symbol id="about" viewBox="0 0 256 256"><path fill="#231f20" d="M28.2 27.7a93 93 0 0 0 106.7 149.2l73.2 73.2a28.6 28.6 0 0 0 40.5 0 28.6 28.6 0 0 0 0-40.5L176 137A92.9 92.9 0 0 0 28.2 27.7zm110 110a62.6 62.6 0 1 1 0-88.5 62.5 62.5 0 0 1 0 88.5z"/><circle cx="133.6" cy="64.5" r="8.6" fill="#231f20"/><circle cx="100.6" cy="60.6" r="18.4" fill="#231f20"/></symbol><symbol id="linkedin" viewBox="0 0 256 256"><rect width="222.3" height="222.31" x="16.8" y="16.8" fill="none" stroke="#231f20" stroke-linejoin="round" stroke-width="33.58" rx="42.4"/><path fill="#231f20" d="M52.1 66.5a19.7 19.7 0 1 1 19.7 19.7 19.6 19.6 0 0 1-19.7-19.7zM54.2 96h35.2v94.4H54.2zm118.6 42.2c0-9.8-5.3-13.5-13.7-13.5s-12.1 4.1-15 7.4v58.3h-35.2V96h35.2v10.7c5.4-6.2 15.8-13 32.4-13 21.9 0 31.5 13.2 31.5 29.7v67h-35.2z"/></symbol><symbol id="navigation" viewBox="0 0 256 256"><rect width="256.5" height="67.13" y="93.9" fill="#231f20" rx="33.1"/><rect width="256.5" height="67.13" y=".4" fill="#231f20" rx="33.1"/><rect width="170.5" height="67.13" y="190.2" fill="#231f20" rx="33.1"/><rect width="67.1" height="67.13" x="183.7" y="190.2" fill="#231f20" rx="33.1"/></symbol><symbol id="homepage" viewBox="0 0 256 256"><path fill="#231f20" d="M227.5 132.8l-35-31.2V62.5h-24.9v16.9l-52.9-47.2L1.6 133a2.7 2.7 0 0 0 1.6 4.9h18.1v99.2a11.6 11.6 0 0 0 11.6 11.6h56.3v-47.1a7.9 7.9 0 0 1 7.9-7.9h35.4a7.7 7.7 0 0 1 7.7 7.7v47.3H195a13.1 13.1 0 0 0 13.1-13.1v-97.7h17.8a2.8 2.8 0 0 0 1.6-5.1z"/><path fill="none" stroke="#231f20" stroke-linecap="round" stroke-miterlimit="10" stroke-width="5.27" d="M172.9 56v-3s-.1-3.6-.1-4.1a8.7 8.7 0 0 1 8.7-8.7 8.8 8.8 0 0 1 3.3.7 13.2 13.2 0 0 1 12.5-9.5h.9a16.2 16.2 0 0 1-.1-2.2 17.4 17.4 0 0 1 34.7 0v.3a14.7 14.7 0 0 1 4 2.4 9 9 0 1 1 8.1 13.1 8.3 8.3 0 0 1-3.9-.9 13 13 0 0 1-12.7 10.5 12.8 12.8 0 0 1-12-8.1h-.9a15 15 0 0 1-5.2-.9 12.9 12.9 0 0 1-12.9 11.5 12.2 12.2 0 0 1-8.1-2.9V56a4.7 4.7 0 0 1-.3 1.7"/></symbol><symbol id="portfolio" viewBox="0 0 256 256"><rect width="93.1" height="45.38" x="82.2" y="13.2" fill="none" stroke="#231f20" stroke-linejoin="round" stroke-width="21.36" rx="12"/><path fill="#231f20" d="M244 47H13.6A12.8 12.8 0 0 0 .8 59.8v161.7a12.8 12.8 0 0 0 12.8 12.8H244a12.8 12.8 0 0 0 12.8-12.8V59.8A12.9 12.9 0 0 0 244 47zM57.7 111.1a8.6 8.6 0 0 1 0-12.2l26.5-26.5a8.6 8.6 0 0 1 12.1 0l10.3 10.2-38.7 38.7zm17.5 17.5L113.9 90l68.2 68.2-38.7 38.6zm120.6 85.2l-39.6-10.6 33.3-33.3 10.6 39.6a3.5 3.5 0 0 1-4.3 4.3z"/></symbol><symbol id="x-out" viewBox="0 0 256 256"><path fill="#231f20" d="M129.2.2C47.2.2-16.9 76.9 4.9 162.6c10 39.4 51 80.4 90.4 90.4 85.7 21.8 162.4-42.3 162.4-124.3C257.6 58.8 199.1.3 129.2.2zm67.4 150.6a32.1 32.1 0 0 1 0 45.5 32.2 32.2 0 0 1-45.4 0l-14.7-14.8a10.5 10.5 0 0 0-14.7 0l-14.7 14.8a32.3 32.3 0 0 1-45.5 0 32.3 32.3 0 0 1 0-45.5l13.6-13.5a12 12 0 0 0 0-17l-13.6-13.6a32.2 32.2 0 0 1 0-45.4 32.1 32.1 0 0 1 45.5 0l12.4 12.4a13.6 13.6 0 0 0 19.2 0l12.5-12.4a32 32 0 0 1 45.4 0 32 32 0 0 1 0 45.4L182.4 121a10.9 10.9 0 0 0 0 15.6z"/></symbol></svg>