<svg xmlns="http://www.w3.org/2000/svg"><symbol id="abyss" viewBox="0 0 500 500"><path fill="#fff" d="M150.9 442.9c-10.6.3-19.6-4.6-28.7-8.5-35.1-14.7-70.1-29.6-105-44.4a42.8 42.8 0 0 0-4.4-2c-9.2-3.2-7.3-12.2-1.2-16.1a17.9 17.9 0 0 1 5.9-2.4c29.6-6.7 59.2-13.2 88.8-19.7 7.3-1.6 14.7-3.2 21.9-5.3 1.5-.4 3.2-2.6 3.5-4.2.6-3.5.3-7.1.4-10.7.7-35.7 1.6-71.3 2.1-107 .2-11.7-.7-23.5-1.2-35.2-.1-1.4-.6-3.6-1.7-4.2-4-2.2-4.2-6-3.4-9.3 3.1-12.6 1.5-25.1 1-37.7-.2-5.3 1.4-10.6 1.9-15.8.2-1.8-.5-3.7-.5-5.6 0-4.1-1.1-8.7.3-12.2 4.1-9.9 9.1-19.4 14.1-28.8a37.9 37.9 0 0 1 7.7-10.8c6.8-6.1 15.1-8.1 23.2-3a81.7 81.7 0 0 1 16.6 13.9c4.5 5 2.8 14.9-3.8 20.1s-6.7 10.2-5.6 17.4 1.6 11.9 4.8 17.6c1.9 3.3 1.6 8.4.8 12.5-4.1 20.5-5.1 40.9-1.1 61.6a212.8 212.8 0 0 1 3.7 35.6c.4 11.9-.9 23.8-1.2 35.7-.2 6.6 0 13.2-.1 19.7-.1 10.2-.3 20.4-.6 30.5-.1 5.4.5 6.1 5.6 5l111.9-24.7c8.8-1.9 17.6-4.3 26.6-5.8a29.4 29.4 0 0 1 13.2.4c26.7 8.3 53.4 17 80 25.5l58.2 18.5c4.6 1.5 8.7 3.2 8.9 9.1.2 4.2-1 7.5-5.1 9.1a93.9 93.9 0 0 1-10.6 3.5l-174.3 42.1-133.7 32.2c-6.2 1.5-12.6 2.3-18.9 3.4zm-18-94.5l-.4-1.2-3.1.4c-36.2 8-72.5 16-108.6 24.2-3.1.7-5.8 2.7-8.7 4.1 2.7 1.8 5.1 4.3 8 5.5 32.4 13.7 64.9 27.1 97.3 40.6 4.8 2 9.5 4.3 14.2 6.5a14.7 14.7 0 0 0-1 2.2L9.4 379.9c.9 2.3 2.3 4.5 4.2 5.2C31.5 391.9 48 401.8 67 406c7.2 1.6 13.4 7.5 20.4 10.6q21.3 9.6 42.9 18.2a62.9 62.9 0 0 0 16.6 4c12.4 1.3 24.3-2.6 36.2-5.5 32.6-8 65.2-15.8 97.8-23.7l109.3-26c30.9-7.4 61.8-14.8 92.6-22.4 2.9-.7 5.5-2.9 8.2-4.4a8 8 0 0 1-.8-1.6l-125.5 31.3-.6-2.1 4.8-1.7 20.2-5.1c30.5-7.6 61-15.1 91.4-22.8a24.4 24.4 0 0 0 6.6-2.2c2.8-1.4 3.1-3.4 0-4.9a52.8 52.8 0 0 0-7.5-2.9l-124.9-40c-9.2-3-18-4.2-27.7-1.7-17.2 4.5-34.7 8-52.1 11.8l-84.1 18.7c-.3 0-.5.7-1.2 1.7 7-1.4 13.2-2.6 19.5-4 33-7.4 66.1-15 99.2-22.2a30.9 30.9 0 0 1 15.1.8c43.4 13.7 86.6 27.8 129.9 41.8a29.3 29.3 0 0 1 4 1.9v1.3a37.5 37.5 0 0 1-4.7 1.7l-20.8 5-147.3 35.7c-30.4 7.3-60.7 14.8-91.1 21.8a22.7 22.7 0 0 1-12.4-.6c-21.8-7.7-43.5-16-65.2-24.1l-61.2-22.9a43.7 43.7 0 0 1-5.7-2.9l.4-1.2zm33.5-230.3c-2.4.7-5.8 1.3-8.9 2.7-4.9 2.2-9.4 3.8-14.2-.6s-6.1-1.9-7.6 2.5a19.1 19.1 0 0 0-1.1 4.1c-1.5 16.1-2.9 32.3-4.4 48.4-.4 3.6.9 5.3 4.7 5.2 10-.1 20-.1 30 .1 3.6 0 4.6-1.7 4.5-5-.2-5.6-.1-11.3-.3-17a20.3 20.3 0 0 0-1.2-4c-1.3-4.7-3.6-9.4-3.7-14.2-.1-7.1 1.4-14.2 2.2-22.2zm51 261.3V378c-9.4-3.8-18.9-7.4-28.1-11.6-6.2-2.9-11.6-1.4-18.7 1.2l23.2 12.7c-1.7 1.3-2.5 2.4-3.3 2.5-11.2.5-22.3.9-33.5 1.1-1 0-1.9-1.4-3-2s-3.1-1.6-4.3-1.2c-6.2 1.7-10.9.3-13.4-6.3l-38.7 9.2a18.8 18.8 0 0 0 1.9 1.6c13.6 5.1 27 10.3 40.7 15.2 2.4.8 5.6.4 8.2-.3 11.9-3.3 23.6-6.9 35.4-10.4zM180.7 125c.8-3.2-2.4-5.3-6.5-6.2s-5.6 3.3-6.1 5.9c-1.3 6.5-1.5 13.2-2.2 20.1 5.3-.7 5.6-.6 5.8 3a116.9 116.9 0 0 1 0 14.5c-1.8 21.2 2.4 41.5 9.9 61.2 3 8 .5 15.7 0 23.3 7.9-2 8-2 7.1-11-.7-7.5-1.7-14.9-2.6-22.3-1.3-10.9-3.6-21.9-3.5-32.8.1-13.3 2.3-26.6 3.4-39.9a41.2 41.2 0 0 0-.7-11.1c-.2-1.4-2.3-2.5-4.6-4.7zm40.9 258.8l-.7-2.4-71.8 21.5a14.6 14.6 0 0 0 .5 2c24.3-5.9 48-14.1 72-21.1zm-43-7.4c-.2-.7-.2-1.1-.4-1.3-4.3-3.3-9.7-5.1-12.1-10.8-.5-1.2-5.4-.5-8.3-.6-.1 0-.6 2.4-.1 3a27.6 27.6 0 0 0 20.9 9.7zm-17-15.8c1.8-1.6 3-2.6 4.1-3.7-1.8-.7-3.6-1.8-5.5-2.1s-1.9 1.3-2.9 2zm-18.5-2.6l8.2 7.1c-2-8.8-2.7-9.4-8.2-7.1zm-6.5-160.5h1v-13.8c-1.3 1.5-1.9 1.9-1.8 2.3.2 3.8.5 7.7.8 11.5zm14 153l-1.7-2.2-5.5 2.7c1.3.9 2.7 2.4 4.1 2.4s2-1.9 3.1-2.9z"/><path fill="#fff" d="M174.9 427.6l164.7-38.4c.2.9.5 1.8.7 2.7l-164.8 38.5zm-82.6-33.8c-1.9.6-4 1-5.9 1.8s-3 3-.5 4.9c4 2.9 14.6 1.9 18.6-1.9l-3.6-3.4.7-1.1 5.6 3.9c-1.5 1.8-2.6 4.3-4.5 5.1-5.6 2.3-11.5 2.6-17.1-.2-1.9-.9-4.5-3.4-4.3-5s2.8-3.8 4.8-4.9 3.9-.7 5.8-1zm42.3 37.3h30.1c-6.4 5.4-24.3 4.7-30.1 0zm275.2-100.4l-25.3-7.7c.3-.9.5-1.7.8-2.5l25.2 7.8z"/></symbol><symbol id="social-media-icons" viewBox="0 0 500 500"><path fill="#fff" d="M370.1 384.8l12 5.8-20.9 43.6c-13.1-6.2-26.9-11.1-38.7-19s-14.6-15.3-7.9-31.4c8.9-21.4 19.5-42 29.7-62.8 7.8-15.6 21.8-18.5 35.4-11.7 20.2 10 40.6 19.8 61.1 29.2 14.6 6.6 19.6 21.6 12.3 35.3-10.7 20.2-20.6 40.8-29.5 61.8-5.3 12.6-22.5 20.1-34.8 11.9-2.9-1.9-6.4-3.1-10.1-4.8l20.8-43.4 12.4 5.1 8.8-11.3-14.1-6.7c4.6-19.6 7.2-21.1 24.6-15.2 7.9-11.2 7.5-12.7-4.9-17.8s-24.4-1-31.7 12.6c-1.9 3.4-3.4 7-5.4 11.1l-12.9-5.2zm-221.3 64.1c-14.6 3.3-29.1 8-43.9 9.3-18.6 1.7-32.6-7.1-38.3-25.7-7.9-26.2-15.9-52.4-22.3-79-4.1-17.5 10.2-36.6 30.8-43.1s42.3-13.7 64-17.9c24.7-4.9 42.8.2 52 28 5.6 16.7 12 33.2 16.3 50.2a121.1 121.1 0 0 1 3.5 36.4c-1.1 16.8-13 26.2-28.2 31.2-11.2 3.6-22.7 6.5-34 9.8 0 .3.1.6.1.8zm-3.6-14.6l-.2-1.1c9.9-2.8 20-5.2 29.8-8.5 13.6-4.6 25.9-17.5 19.8-36.7s-11.6-40.5-17.5-60.7a36 36 0 0 0-4.8-9.6c-10.1-15.3-25-11.5-38.4-8-19.5 5.1-38.5 12-57.5 18.5a24 24 0 0 0-15.7 27.7c3.1 15.1 6.5 30.1 10.5 44.9 2.1 7.7 6 14.8 8.5 22.4 3.8 12 12 19.9 24.7 18.9s27.2-5.1 40.8-7.8z"/><path fill="#fff" d="M118.1 337.2c19.3-8.4 43.7 7 48.6 26.3 5.5 22.1-5.3 44.3-26.9 50.1-23.1 6.2-44.2-7.1-50.3-28.1-5.5-19.4 5.9-44.7 28.6-48.3zm-13.3 44.4c3.4 11 20.1 20.5 30.6 17.2s19.6-20 16.4-31-18.8-19.4-30.8-15.5-19.8 17.8-16.2 29.3zm42-55.9c-2.8-6.5 1.1-10 7-9.8 4.1.1 10.2 2.6 11.6 5.7s1.5 10.9-5.9 12.8-11.1-1.5-12.7-8.7zm201.8-142.9c0 8.3-5.7 15.6-13.2 18.9l-33.8 14.6-39.9 17.3c-11 4.9-21.9 9.8-33 14.6a138.4 138.4 0 0 1-16.5 6.6c-9.3 2.8-19.9-2.4-24.3-13.6-3.7-9.3-7.9-18.4-11.9-27.5-4.9-11.3-9.7-22.7-14.7-34-3.9-8.9-7.9-17.7-11.9-26.7s-9.4-20.6-13.5-31.1.9-21.8 12.4-26.7l22.1-9.5 39.7-17.2c8.8-3.8 17.5-7.8 26.3-11.7l31.9-13.9c9.6-4.1 22.1 1.5 26.2 11.6s7.8 18 11.7 27l17.1 39.5 12.2 27.6c3.9 8.7 7.9 17.3 11.6 26.1 1 2.5 1.1 5.4 1.5 8.1zm-123.4-41.2c-4 2.7-7.8 4.5-10.9 7.3-8.9 8.1-12.9 18.4-11.4 30.5a34.5 34.5 0 0 0 31.8 30.4c13.2.9 23.8-4.1 31.5-14.8a33.9 33.9 0 0 0 6.3-20.3c-.2-7.2-2.8-13.5-5.6-19.9-3.9-8.7-7.8-17.4-11.6-26.1-1.4-3.3-2.6-6.5-4.2-10.3 10.9 5.3 21 5.9 31.2.3l-7.6-17.3c-15.7 4.3-28-.4-37.2-13.8l-14.8 6.5c1.3 3.3 2.4 6 3.6 8.8 9.3 21.2 18.4 42.4 27.8 63.5 4.1 9.5 1.3 18.8-7.9 24.1a17.7 17.7 0 0 1-23.7-5.7 18.1 18.1 0 0 1 5.4-24.9l4.4-2.2z"/></symbol><symbol id="face-in-phone" viewBox="0 0 500 500"><path fill="#fff" d="M471.6 343.8l-8.2-62.3h-1c-1.7 6.3-3.1 12.8-4.9 19.1-6 19.8-17.3 36.7-29.1 53.3-8 11.3-15.7 22.9-24.3 33.7q-24 30.2-49.1 59.3a336 336 0 0 1-27.1 27.6c-6.4 5.9-13.8 10.9-21.1 15.7-9.7 6.5-19.8 4.1-28.9-1-15.2-8.6-30.3-17.3-44.6-27.3-18.4-12.9-36.1-26.9-53.9-40.7-25-19.5-49.7-39.3-74.7-58.8-14.2-11.1-28.4-22-42.8-32.8-11.4-8.5-14-20.3-13.3-33.7q1.8-29.5 3-59.1a18.2 18.2 0 0 0-2.2-8.8c-6.6-12.3-13.8-24.2-20.1-36.6a39.4 39.4 0 0 1-3.9-16.2c-.1-9.4 5.9-13.5 19-14.6 6.6-.5 13.3-.4 19.9-1.3 2.3-.3 4.8-2.2 6.5-4 19.6-22.3 38.8-45.1 58.7-67.2a423.1 423.1 0 0 1 59.4-54.9c7.7-5.8 16.6-10.4 25.4-14.5 14.1-6.4 28.8-11.4 44.4-12.5 24.1-1.8 47.7.1 68.1 14.8 14.2 10.2 24.4 24 31.5 40.1 3.2 7.3 6.6 14.5 9.8 21.8.4.8-.3 2-.7 3s-.9 1.6-1.3 2.4c4.8 1.2 2.8 5.3 3.3 8.1 2.2 10.9 4.4 21.7 6 32.7a64.1 64.1 0 0 1 .3 17.5c-1.2 9.1 3.3 15.4 8.7 21.4 16.9 18.6 33.5 37.4 50.9 55.4 10 10.3 19.5 21 25.8 33.7 4.2 8.5 6.8 18 8.5 27.3 2.4 14 3.6 28.3 4.9 42.5.4 5.5-.5 11.2-.8 16.9zM275 386.3l-1.8-1c2.1-6.3 4.2-12.6 6.4-18.9.6-1.6 1.4-3.2 1.9-4.9 2.3-8 4.1-16.2 7.1-23.9s7.6-17.1 11.8-25.5c9.8-19.6 19.8-39.1 29.6-58.7.9-1.8 1.8-4.3 1.2-5.9-4.8-12.7-10.8-24.8-20.6-34.6a8.6 8.6 0 0 0-6.7-2.1 63.7 63.7 0 0 0-12.7 4.4c-10 4.5-19.8 9.2-29.8 13.8L222 247c-10.8 5-21.7 9.9-32.5 15-7.4 3.4-14.7 7-22.3 10.7a50.6 50.6 0 0 0 2.3 5.1c7.9 13.9 7.7 13.8-1.7 26.5-5.3 7.2-12.2 10.7-20.8 11.6-3.3.3-6.6.9-10.2 1.5 2.2 4.7 3.8 8.7 6 12.4s3.6 5.2 6.1 6.7c14.8 9.1 29.9 17.8 44.8 26.8l76 45.7c6.1 3.6 12.5 6.9 18.9 10.5l1.9-3.9c5.6-12.3 11-24.7 16.7-36.9s11.4-24 17.3-36 11.7-23.9 17.8-35.7c5.4-10.3 10.9-20.6 16.7-30.8 2.4-4.3 5.8-8.1 8.7-12.1a202.3 202.3 0 0 1-11.4 27.8c-11.8 23.9-23.5 47.8-35.5 71.6-1.8 3.6-1.6 5.7 1.7 8.3q23.5 18 46.6 36.5c6.9 5.4 6.9 5.7 12.5-1.3 18.5-23 36.2-46.6 52-71.6 9.4-15 17.6-30.2 21.3-47.7 3.2-14.8 1.9-29.2-7.5-41.4s-19.9-22.9-30.2-34.5L388.7 226c-13.5 6.7-27 13.2-40.4 20.2-4.5 2.4-9.8 5.1-12.2 9.1-9.1 15.9-18 32.1-25.6 48.7s-12.2 31.3-18.1 47c-1.5 3.8-2.1 8-3.9 11.6s-5.4 9.1-8.1 13.7-3.6 6.7-5.4 10zM108 257.5c12.6-6.6 24-13.1 35.8-18.8 17.4-8.4 34.9-16.7 52.8-24.4 16.1-6.9 32.7-13 49.2-19.2 1.5-.5 3.7.6 5.6.9-1.3 1.4-2.4 3.4-4.1 4.1-10.4 4.3-21.1 8.1-31.5 12.5-12.5 5.2-24.8 10.7-37.1 16.3-15.8 7.3-31.6 14.7-47.2 22.3-5.8 2.9-11.4 6.2-16.8 9.6-1.2.8-2.5 3.5-2.1 4.5a132.4 132.4 0 0 0 7.9 13 3.7 3.7 0 0 0 3.1.9c11-2.7 22.5-4.4 32.9-8.6 18.3-7.4 36-16.3 54-24.6 11.4-5.2 22.6-10.6 34.1-15.7C263 222 281.4 214 299.9 206c6.2-2.7 11.7-1.3 15.7 4.1s9.9 13.5 14.4 20.6c2.9 4.5 5 9.5 7.7 14.7l74.4-37.8a11 11 0 0 0-1.3-2.5c-12.4-13.6-24.7-27.3-37.3-40.7a13.4 13.4 0 0 0-8-3.6c-16.2-.8-31.9-3.8-46.5-10.8s-31.4-25.6-19.7-48.7c3.2-6.5-.5-16.4-7-20.7s-15.8-2.1-17.5 5.6-.7 14.9-1.2 22.4c-.2 2.5-.5 5.8-2.1 7.1-3.6 3.2-8 5.4-12.6 8.3l-4.1-6.1c-3.6-5.5-7.3-11-10.9-16.6s-7.1-4.1-11.5-1.5c-11 6.3-22.3 12.1-33.3 18.6-14.3 8.5-28.4 17.3-42.6 26.1l-55.3 34.3c-9.8 6.1-19.4 12.5-29.1 18.7 3.8 6.4 7.3 12.1 11 18.2 9-5.1 17.6-9.8 26-14.7 17.7-10.2 35.2-20.5 52.9-30.6s36.1-20.4 54.2-30.6c2.5-1.5 5-3.6 6.8-.2.5 1-2 4.4-3.8 5.5-12.6 7.4-25.4 14.5-38.2 21.7l-79.7 45c-5 2.9-9.9 6-15.3 9.2 1.7 2.5 3.5 4.7 4.4 7.2 1.7 4.7 4.2 4.4 8.1 2.5 9.9-5 20-9.7 30.1-14.2 1.4-.6 3.4.2 5.1.4-.8 1.5-1.2 3.7-2.4 4.3-5.8 3.2-11.9 5.9-17.9 8.8l-16.7 7.9zm208.9 116.2a44.4 44.4 0 0 0-2.6 4.3l-20 43.8c-2.6 5.7-4.6 6.1-9.9 2.7-7.9-5-16-9.8-24-14.7-18.5-11.2-37-22.6-55.6-33.7-20.5-12.2-41.2-24.1-61.8-36.3a10.5 10.5 0 0 1-4.1-4c-7.8-16-15.2-32.2-23.2-48.1s-16.4-32.1-25.1-47.9c-1.2-2.3-5.6-5.1-7.2-4.5s-5 4.9-5.1 7.5a39.3 39.3 0 0 0 3 14.2c7.1 17.8 14.8 35.3 22 53.1.9 2.3 1 6.8-.4 7.8s-5.7 1-8.7.9a10.2 10.2 0 0 1-4.3-1.8c-7.3-4-14.8-8-16.2-17.3s-2.7-19.4-3.4-29.2-7.7-18.2-12.6-27a136.8 136.8 0 0 0-2 21c-.4 15-.5 30.1-.4 45.2 0 5.2.6 10.5 7.7 11 .6 0 1.5.9 1.7 1.5 2.9 8.7 11.6 11.5 17.8 16.6 9.2 7.7 19.7 14 29.5 21 7.6 5.5 15.2 11.1 22.4 17 11.9 9.7 23.1 20 35.1 29.4 18.8 14.8 38.2 28.8 57 43.7a299.3 299.3 0 0 0 50.7 32.5c8.4 4.3 17.5 9.8 27.4 2.6 4.3-3.1 9.1-5.6 12.9-9.2 12.2-11.6 24.3-23.4 36-35.4 6.5-6.8 12.1-14.3 19.2-22.6zM122 285.8c1.8 4.2 3.2 8.1 5.2 11.6.7 1.2 3.1 2.6 4.4 2.3 10.4-2 20.7-4.1 30.9-6.7 7.3-1.9 7.5-3 3.9-9.7s-5.2-8-13.3-5.6c-4.7 1.5-9.4 2.5-14.1 3.8zm-40.3-56.7l1.5-.8a13.2 13.2 0 0 0-.8-3c-8.9-14.7-17.5-29.6-26.8-44-2.4-3.8-1.9-5.9.6-8.6l6.6-7.1-23.3 1.5z"/><path fill="#fff" d="M140.6 294.1c-1.5-2.1-4.1-4-4.5-6.3s2.7-6 6-5.3a8.5 8.5 0 0 1 5.2 5.4c.3 1.7-2.5 4-3.9 6.1zm199.8 179.4a10.8 10.8 0 0 1 1.3-1.9 5.2 5.2 0 0 1 1.9-1.6 1.7 1.7 0 0 1 1.8.3 1.8 1.8 0 0 1 .5 2.1 2.1 2.1 0 0 1 3.4 1.7 4.5 4.5 0 0 1-1.5 2.9 11.6 11.6 0 0 1-1.3 1.5zm3.5.6l.4-.5c.6-.7.6-1.3.1-1.7s-1-.3-1.5.4l-.5.6zm2.8 2.3l.4-.5c.6-.7.8-1.5.1-2s-1.3-.1-1.9.6l-.4.4zm.7-8.1l2.8 1.2 1 .5-.7-.9-1.7-2.4 1.2-1.5 2.1 3.6a9.3 9.3 0 0 1 1.7 4 4.3 4.3 0 0 1-.5 1.9l-1.5-.7a1.1 1.1 0 0 0 .3-.8 2.1 2.1 0 0 0-.1-1.1.3.3 0 0 0-.1-.2h-.3l-5.5-1.8zm3.9-3.1a1 1 0 0 1-.2-1.5 1 1 0 0 1 1.5-.1 1 1 0 1 1-1.3 1.6zm2.9 2.5a1.1 1.1 0 1 1 1.4-1.6 1 1 0 0 1 .2 1.5 1.1 1.1 0 0 1-1.6.1zm8-8.5a4.7 4.7 0 0 1-1 1.8c-1.8 2.2-4.1 2.2-5.8.7a4 4 0 0 1-.5-6.1 3.8 3.8 0 0 1 1.5-1.3l.9 1.2a3.5 3.5 0 0 0-1.2 1 2.6 2.6 0 0 0 4.1 3.3l.8-1.3zm-5.7-6.1l1.2-1.4 2.6 2.1a1.7 1.7 0 0 1 0-1 3.6 3.6 0 0 1 .4-.9c.8-.8 1.9-1 3.3.1l2.7 2.2-1.2 1.4-2.5-2.1c-.6-.5-1.2-.6-1.6-.1a1.1 1.1 0 0 0-.1 1.2l.3.3 2.7 2.2-1.2 1.4zm8.1-2.6l-1.6-1.1 1-1.2.9.6a1.8 1.8 0 0 1 .1-2l.3-.2 1.3 1.1-.4.3a1.2 1.2 0 0 0 0 1.6q0 .2.3.3l2.2 1.8-1.1 1.5zm1.3-7.2a1 1 0 0 1 .1 1.4.9.9 0 0 1-1.3.1.9.9 0 0 1-.1-1.3.9.9 0 0 1 1.3-.2zm4.6 6.2l-4.5-3.7 1.1-1.4 4.6 3.7zm.9-3.5a4.4 4.4 0 0 0 1.3-.9c.3-.5.3-.8.1-.9s-.5-.2-1.1.2-1.9.6-2.4.2a2.2 2.2 0 0 1 0-3.1 6 6 0 0 1 1.4-1.1l.7 1.1-1 .7c-.3.4-.3.7-.1.9s.5.1 1.1-.3a2 2 0 0 1 2.4-.1c.9.7.9 1.9-.1 3.2a4.2 4.2 0 0 1-1.6 1.2zm0-9.3l1.3 1 .8-1 1 .8-.8 1 1.6 1.4c.6.4 1 .5 1.3.1a1.3 1.3 0 0 0 .3-.5l1.1.9a3.7 3.7 0 0 1-.7 1 1.8 1.8 0 0 1-1.2.8 2.6 2.6 0 0 1-1.7-.8l-1.8-1.5-.5.6-1.1-.8.5-.6-.8-.7zm8.6-3.4a2.8 2.8 0 0 1 .5 4.3 2.8 2.8 0 0 1-4.3.4 2.9 2.9 0 0 1-.4-4.4 2.8 2.8 0 0 1 4.2-.3zm-2.6 3.3c.8.6 1.6.8 2.1.2s.2-1.4-.6-2.1-1.6-.8-2.1-.2-.1 1.5.6 2.1zm2.7-4.8l-1.6-1.2 1-1.2.7.4a2.4 2.4 0 0 1 .5-2.1c.8-1 2.4-1.2 3.9 0s1.5 3.1.7 4.1a1.7 1.7 0 0 1-1.5.7l2.3 1.9-1.2 1.4zm2.2-.5l.3.2a1.1 1.1 0 0 0 1.3-.3c.6-.6.3-1.4-.4-2a1.5 1.5 0 0 0-2.1-.1 1.2 1.2 0 0 0 0 1.4l.3.3zm-1.2-8l1.1-1.4 2.6 2.2a1.4 1.4 0 0 1 0-.9 3.6 3.6 0 0 1 .4-.9c.8-.9 2-1 3.3.1l2.7 2.2-1.2 1.4-2.5-2.1c-.6-.5-1.1-.6-1.6-.1a1.1 1.1 0 0 0-.1 1.1c.1.1.2.3.3.3l2.7 2.2-1.2 1.5zm10.1-2.5c.6.4 1.4 0 1.9-.6a3.4 3.4 0 0 0 .8-1.4l1.1.6a5 5 0 0 1-1 1.9 3.1 3.1 0 1 1-4.8-3.8c1.2-1.5 2.8-1.1 3.9-.2l.5.5zm.4-2.5a1.1 1.1 0 0 0-1.6 0 1.3 1.3 0 0 0 .2 1.7zm1.5-2.4l-1.5-1.2 1-1.2.9.7a1.6 1.6 0 0 1 .1-2l.2-.2 1.3 1.1c-.1.1-.2.1-.3.3a1.4 1.4 0 0 0-.1 1.6l.3.2 2.3 1.9-1.2 1.4zm1.4-8a15 15 0 0 1 1.4-2 5.3 5.3 0 0 1 2.8-2 3.7 3.7 0 0 1 3.2.9 4.1 4.1 0 0 1 1.7 3.1 6.3 6.3 0 0 1-1.6 3.6l-1.4 1.5zm6.2 2.8l.5-.4a2.6 2.6 0 0 0-.5-4 2.4 2.4 0 0 0-3.6.4l-.5.7zm4.3-6.7c.6.5 1.4.1 1.9-.5a7 7 0 0 0 .8-1.4l1.1.6a5.4 5.4 0 0 1-1 1.8c-1.3 1.6-2.9 1.7-4.3.5a2.8 2.8 0 0 1-.6-4.2c1.3-1.5 2.8-1.1 4-.2l.5.5zm.4-2.4a1.1 1.1 0 0 0-1.6 0 1.2 1.2 0 0 0 .2 1.6zm-1.7-5.1l1.2-1.4 5.1 4.2 2-2.5 1.2 1-3.2 3.9zm11.4-5.8a3.1 3.1 0 1 1-3.8 4.8 3 3 0 0 1-.4-4.4 2.8 2.8 0 0 1 4.2-.4zm-2.6 3.3c.8.7 1.6.8 2.1.2s.2-1.3-.6-2-1.6-.9-2.1-.2-.1 1.5.6 2zm2.6-4.8l-1.5-1.2 1-1.2.9.7a1.6 1.6 0 0 1 .1-2l.3-.2 1.3 1.1-.4.3a1.4 1.4 0 0 0-.1 1.6l.3.2 2.3 1.9-1.1 1.4zm5-3.5c.6.5 1.4.1 1.9-.6a2.9 2.9 0 0 0 .8-1.4l1.1.6a3.9 3.9 0 0 1-1 1.9c-1.3 1.6-2.9 1.7-4.3.5a2.8 2.8 0 0 1-.5-4.2c1.2-1.5 2.8-1.1 3.9-.2l.5.5zm.4-2.4a1.1 1.1 0 0 0-1.6 0 1.2 1.2 0 0 0 .2 1.6zm1.5-2.4l-1.5-1.2 1-1.2.7.4a2.3 2.3 0 0 1 .4-2c.8-.9 2-1.1 3.3 0l2.7 2.2-1.2 1.4-2.5-2c-.6-.5-1.1-.7-1.5-.1a.8.8 0 0 0-.1 1.1c0 .1.2.2.3.3l2.6 2.2-1.2 1.4zm6.4-3.2l-.6-2.9c-.1-.5-.1-.9-.2-1.4l-1.7 2-1.1-.9 3.1-3.7.8.7.6 2.7a7.8 7.8 0 0 1 .2 1.4h.1l1.7-2.2 1.2.9-3.3 3.9zm6-10.4a3.1 3.1 0 1 1-3.8 4.8 2.9 2.9 0 0 1-.4-4.4 2.8 2.8 0 0 1 4.2-.4zm-2.6 3.3c.7.7 1.6.8 2.1.2s.2-1.3-.6-2-1.6-.8-2.1-.2-.1 1.5.6 2z"/></symbol><symbol id="selfie-kiss" viewBox="0 0 500 500"><path fill="#fff" d="M370.6 377.4l-11.7-10.9c-.5-.5-.6-1.5-1.1-2s-4.9-3.6-4.7-5a25.4 25.4 0 0 1 4.4-10.1 90 90 0 0 1 11.4-12.5 18.1 18.1 0 0 0 6.5-15.2c-4.1 3.3-8.2 5.9-11.2 9.3-16.9 19.4-33.2 39.1-50.3 58.2-7.7 8.7-16.7 16.4-25.4 24.1-6 5.3-12.9 7-21.3 6.4-18.2-1.2-36.5-1-54.7-1.1-15.7-.2-31.3-.1-47.8-.1.8-9.2 1.2-18.1 2.3-27 1-7.4-1.1-13.2-6.6-18.1-15.6-13.6-20.5-30.1-12.8-50.2-13.3-1.9-24.2-7.8-33.5-16.8-13-12.5-15.5-25-8.3-41.6 3.5-7.9 7.6-15.5 11.6-23.6-7.1-5-14.6-10-21.8-15.4-16.1-12.2-32.1-24.4-47.8-37-6.1-4.9-11.1-11-16.7-16.5a11.1 11.1 0 0 0-1.7-1.1c-1.8 2.3-3.1 5.5-5 6-4.7 1.2-13.5-3-15-7.1-2.2-6.5-4.5-12.7-5.8-19.7-2.1-11.7 4.6-19.8 6.5-27.7-1.9-5.8-4.2-10.2-4.6-14.8-.6-7.7 4.8-10.7 13.1-7.3 1-4.8 1.9-9.5 2.8-14.2 2.1-10.1 4.4-11.3 14.4-9.1 4.9 1.1 6.5 4 5.8 8.6-1.3 8.7-2.9 17.4-4 26.2-.3 2.5.1 5.8 1.6 7.8 4 5.2 6.2 11.6 13 15 2.9 1.5 3.1 8 4.9 12 1.1 2.3 2.5 5 4.5 6.3 22 14.6 44.2 28.8 66.4 43.2l4.2 2.5c-.7-9.4-1.1-17.8-2-26.1-1.6-14.9.6-28.8 7.9-42.1 15.5-27.9 53.3-39.3 77-32 19.1 5.9 28.2 20.3 34 37.8 2.1 6.2 4 12.5 5.6 18.8.8 3.3.6 6.8.8 10.1.2 5 .9 9.7 5.8 12.9 3.9-6.1 7.7-12 11.6-17.9l18-27.9c4.1-6.3 8.7-11.8 16.1-14.5 4.7-1.7 9.1-1.4 13.1 2.2a48.1 48.1 0 0 0 18.1 9.8c20.3 6.2 37.1 18.6 50.3 35 9.4 11.6 9.6 26.2 7.6 40.5-3 20.3-13.3 36.3-29.8 48.2-4 2.8-3.6 5.9-2.5 10.7 4.1-3.5 7.8-6.3 11.1-9.5q36-35.1 71.8-70.5c7.1-7.1 10.9-15.2 9.4-26-.7-5.1 2.1-10.7 3.2-16.1a15.5 15.5 0 0 0 .3-6.4c-3.2-12.8-6.7-25.5-10-38.2-.9-3.3-2.7-7.3 1.4-9s9.2-2.4 13.9-3c.8-.1 2.3 2.8 2.8 4.5 3.3 11 6.6 22 9.6 33.1.9 3.1 1.7 4.7 5.4 4.9s6 2.5 6.9 4.7c2.8 6.5 4.5 13.5 6.6 20.4.3 1 .8 2.3.5 3.3-4.5 16.2-6 33-20 46s-22.9 27.4-34.4 41.1c-4.6 5.5-10.4 9.9-15 15.4-12.9 15.6-25 31.8-38.3 46.9-6 6.8-7.7 11.3-4.6 20.9 4.5 13.7 3.2 28.8-8.2 40.6a9.8 9.8 0 0 0-2.1 7.4c2.2 14.6 5 29 7.5 43.5a11.5 11.5 0 0 1-.2 5.2c-4.6-4.9-7.4-9.9-7.5-17.1-.1-10.3-2.2-20.6-3.3-29.1zm92.2-229.9h-2.3c-.3 3.2-.9 6.4-.6 9.6.7 8.1 1.2 16.2-4.6 23-2.5 3-4.8 6.3-7.6 9.1-19.6 19.6-38.9 39.4-59 58.5a449.9 449.9 0 0 1-36.8 30.7c-3.9 3.1-9.7 5.4-14.5 5.2-28.8-1-57.6-2.7-86.3-4.3-16.8-1-33.5-2.2-50.3-3-6.9-.3-13.1 2.4-16.3 9-4.7 9.8 0 28.9 8.2 36.2 5.7 5.1 12.7 5.4 19.6 5.9a1022.1 1022.1 0 0 0 137.8-.1c6.4-.4 13.6.3 18.8-5.8 20.6-23.8 41.5-47.3 62-71.2 15.8-18.4 31.3-37.2 46.8-55.9 3.9-4.8 7.4-10.1 11-15.1l-1.3-1.1-1.4.5-3.7 1.4c.2-1.4.1-3 .8-4.3 1.5-3 3.5-5.8 4.9-8.9s3.4-8 5.1-12l-1.6-.7-11.2 17-1.9-.6c.1-1.5-.2-3.2.4-4.3a47.5 47.5 0 0 1 5-7.6c5.5-6.9 5.4-14.6 2.7-22.4-.7-1.8-2.8-3-4.2-4.5l-2.4.4c5.8 15.5-3.3 24.2-13.6 33.2-1.2-6.3-2.4-12.1-3.5-17.9zM167 341.9c-1.8 13.4-1.2 25.7 2.8 37.6.5 1.8 2.4 3.4 4.1 4.4 6 3.2 11.9 6.4 18.2 9 25.2 10.2 51 18.5 77.9 22.6 3.7.6 8.8-.4 11.6-2.7 8.2-6.8 15.5-14.6 23.3-22l7.3-6.8-.5-.3 40.3-43.8c-4.3-5.6-9.8-6.4-15.2-6.4-14-.2-27.9-.3-41.9.1a11.4 11.4 0 0 0-6.9 3.6c-9.1 10.6-18 21.4-26.7 32.2-2 2.5-3.9 3.1-6.8 2.1l-25.6-8.6zm71.9-208.1c-2.9 3.4-5.3 6-7.6 8.6-6 6.9-12.7 12.9-21.2 16.7-5.1 2.3-10 5.2-15.2 7.3s-4.2 3.7-3.2 7.1c1.4 5-.3 8-5.5 8.8s-7.9 3.3-8.4 7.8 1 10.2 6 13.2 8.1 2.2 12-1c1.3-1.1 3.1-1.5 6-2.9-2.4 7.8-8.1 8.4-13.4 10.6 3 20.5 5.9 41.1 8.8 61.5l39.5 2.6c-5.6-12.8-10.1-24.9-5.3-38.6l6.3.5c6.6.4 13.1.9 19.7.9 1.8 0 4.8-1.1 5.1-2.3.7-2.9 1.4-8-.1-8.9-6.5-4.3-5.6-10.6-5.8-16.6-3.1-1.7-6.2-3.2-9.1-5s-4.8-6.1-.8-9.5a40.9 40.9 0 0 1 9.4-6.1c4.1-1.9 4.5-3.9 1.5-7.2-4.6-5.1-7.3-11-6.1-18.1.5-3.3-1.1-4.4-4.2-4.3a32.2 32.2 0 0 0-20.3 7.5 41.9 41.9 0 0 1-5 3.1l-1.2-1.3c.7-1.2 1-2.6 1.9-3.6 7.1-7.2 16.1-10 27.2-9.8zm-106.2 73.1c-.9-1.2-2.1-3.6-4-5.2s-6.3-4.1-9.4-6.2l-57.7-37.7c-2.6-1.7-5-1.8-6.6 1.3-3.2 6-6.4 11.9-9.2 18.1-.7 1.4 0 4.2 1.1 5.3a109.7 109.7 0 0 0 11.4 10.1c15.5 11.7 31.1 23.2 46.6 34.8a16.3 16.3 0 0 0 25.8-8.8c.9-3.2 1.2-6.6 2-11.7zM248 200c4.5 2 8.5 4.2 12.7 5.7s6.4 3.8 6.4 8.6c0 16.8 6.8 29.4 23.1 35.8 12.7 4.9 26 5.8 39.4 5.8 2.6 0 5.7-2 7.7-4 4.4-4.3 2.8-10.3-3.2-11.6-3.4-.7-7.2.4-10.6-.3a23.5 23.5 0 0 1-9.7-4.2c-.9-.9.3-5.1 1.4-7.4 3.4-6.9 2.8-10.2-3.8-14-4.9-2.8-10-5.3-14.9-8-7.8-4.2-13.5-10.2-16-18.9l-3-10.4zm72.7 72.8l-7.4 1c-14.7 2-25.3-5.3-28.4-19.2a6.9 6.9 0 0 0-2.1-3.6c-5.3-4.5-10.6-8.7-14.9-12.2-5.6.9-11 2.1-16.4 2.4a9.5 9.5 0 0 0-7.5 3.6c-6.1 6.8-6.4 14.6-5 22.8.5 3.2.9 7.1 6.1 7.4q33.6 1.7 67.2 4.1c4.3.3 6.7-1.3 8.4-6.3zm-65.6 65.7c0-.6.1-1.2.1-1.8-30.5-7.2-61.6-5.7-93.1-5.7 1.8 6.6 6.3 7.6 11.2 7.6h81.8zM41 174.4c3.9-6.5 7.4-12.5 11-18.4 2.1-3.5.9-15.5-2-18.1a4.2 4.2 0 0 0-2-.8c-7 .5-12.5 4-18.3 7.7 3.8 5 8 3.5 12 3.3 1.1-.1 2.2.8 3.3 1.2-.8.9-1.5 2.4-2.4 2.6-2.8.5-5.6.5-8.4.9s-3.1.7-3.6 1.7c-3 5.6-1.7 10.5 3.5 14.6zm231 175.2c-3.2-7.6-8.9-7.2-14.3-7.2l-62.2.2c-3.1 0-6.3.3-10.3.4 11 5.8 21.7 6.9 32.8 6.6 17.6-.3 35.3 0 54 0zm-32.6 64.8l.2-1.8c-8.3-1.8-16.7-4.6-25.1-5.1-13.3-.8-26.7 0-40 0-4.3 0-5.8 1.8-4.7 6.1a7.7 7.7 0 0 0 2.6.7zm-76.8-45.8c-1.7-15.3 3.2-31.5-10.5-43.1-7 10.9-5.6 32.5 10.5 43.1zm173.5-107.4l-46.4-5.3c1.8 16.9 28.8 18.1 46.4 5.3zm22.7 6.7c-13-7.5-30.3-1.8-34.9 11.1 13.4 3 22.9 0 34.9-11.1zm101.3-179l-2 1.6q8.1 29.7 16 59.2h2.5c.1-3.9 1-7.9.1-11.5-3.8-15.2-8.1-30.1-12.5-45.1-.4-1.7-2.7-2.8-4.1-4.2zm-192.4 265h-50.3c12.7 6.1 18.1 6.8 40 6.6 5-.1 8.4-1.3 10.3-6.6zm-96.6 43.6c-1.6 4.7.1 6 4.2 5.9s11.2-.1 16.9-.2h12.1c-11.3-7.3-22.2-6.3-33.2-5.7zm186.3-39.7l1.9 1.6c7.5-8.5 15.1-16.8 22.2-25.5 1.2-1.4-.3-5-.6-7.5-4.2 13.5-18.4 19.4-23.5 31.4zM37.6 85.5l-1.9-.2c-3.2 18.3-6.4 36.5-9.7 54.8l2.7.4c2.9-18.3 5.9-36.7 8.9-55zm431.5 69.8l2.1-.5q-8.4-31.2-17-62.2l-1.6.4zM189.8 326.1l.7-1c-1.4-1-2.9-3-4.2-2.9-9.3.5-18.5 1.4-27.8 2.1v1.8zm-168.5-184l1.8-1-9.4-16.2c-3.5 7.1.1 13.9 7.6 17.2zM9 139.2l-2.1.9c.6 2.1.5 4.9 1.8 6.3 3 3.2 5.5 7.8 10.7 7.7l1.4-1.6c-4-4.4-7.9-8.9-11.8-13.3zm372.8 205.1l-1.2-1.1c-11.6 10.5-17.2 17.3-16.9 22zM12.1 115.5l2.1.4c.8-3.4 1.6-6.9 2.6-11.4-1.8-.2-4.4-1.3-5.2-.6-3.8 3.9-1.4 7.8.5 11.6zm31.2 17.9l-7.7-10.1-1.9 13.9zm-30.4 33.3c3.2-5.8.5-12.6-6.2-15.5 2.4 6.1 4.3 10.8 6.2 15.5zm7.7 5.3c4.2-3.2 6.9-21.1 4.7-25.5-1.6 8.8-3.2 17.1-4.7 25.5zm246 6.4l1.9 1.2 6.8-12-1.9-1zm100.9 188.9l1.6 1.5 10.1-12-1.2-1.1z"/><path fill="#fff" d="M246.3 168.9c1.5 4-2.4 5-4.8 6.4-4.2 2.3-8.5 1.9-13.2-1.5zm40.8 53.2l-1.8 2.1c-.8-.9-2.2-1.7-2.3-2.6-.8-8.1-3.5-15.3-9.3-21.2-.6-.6-.1-2.2-.2-3.3s2.6.3 3.4 1c6.7 6.2 9.1 14.4 10.2 24zm-14.4-11c1.1 2.4 2.3 4.8 3.2 7.4s.1 2.6.2 3.9c-1.3-.5-3.2-.7-3.6-1.6a39.4 39.4 0 0 1-2.9-10c-.2-1.4 1.4-3.1 2.2-4.7l2.3 4.3z"/></symbol></svg>