<svg height=".4in" viewBox="0 0 32 29.2" width=".4in" xmlns="http://www.w3.org/2000/svg"><path d="m.4 28.6c-1.1-.4.2-4.3.8-7.1a46.1 46.1 0 0 0 .8-8.1 20.2 20.2 0 0 0 -.2-4.8c-.5-2.5-1.4-4.6-1.1-5.3 1.6-3.6 20.4-2.7 29.6-1.4 4.2.6-.6 12.9-.6 12.9 0 2.9-.8 3.9-.6 7.1s1.8 5.4 1.2 6.6-4.5-.7-10.7-.2c-3 .2-3.1.9-8.6.9" fill="#fdf3ec"/><ellipse cx="16.2" cy="3" fill="#f2e1d1" rx="15.5" ry="3"/><circle cx="9.4" cy="12.7" fill="#6d6e71" r="1.3"/><circle cx="22.4" cy="12.7" fill="#6d6e71" r="1.3"/><path d="m9.6 17.1a7.6 7.6 0 0 0 6.4 3 8.1 8.1 0 0 0 5.8-2.5" fill="none" stroke="#6d6e71" stroke-linecap="round" stroke-miterlimit="10" stroke-width=".57"/></svg>