<svg xmlns="http://www.w3.org/2000/svg"><symbol id="character-logo-64px" viewBox="0 0 64 63.6"><circle cx="31.8" cy="31.8" r="31.3" fill="#ec1d44"/><path fill="#fff" d="M37.4 44.7s-2 1-1.3 3.9 2.2 2.2 3.5 2a1.7 1.7 0 0 0 0 2.4H42l1.4.6h.7l.6 1 2.1.2.8-.6 1.1.8 1.3-.7v-.7l1.2-.4.9-1-.4-1.5-.4-.6.5-1.9-1.6-2.2.9-1.6-1.4-1.8-.5-.3-.8-2.5-2.5-1-3.1 3.5-2.9 2z"/><path fill="#fcccba" d="M21.4 16a23.8 23.8 0 0 0-1.4 8.3c0 4.8-.3 9.8-.3 9.8l1.1 3.7 2.9 4.2 3.9 2.8 1.6.5s8.1.5 12.5-2.3 4.2-6.7 4.2-6.7H48l3.5-1.6 1.8-3.4V29l-1.5-2.5-2.9-.9-2.3 1.8-.5.9-1.3-.4-1.6-2.2.2-3 1-2.9.2-2.2-1.6-.9-4.5-2.2-7 .6-3.9-.9s-4.3.7-4.8.3-1.4 1.5-1.4 1.5z"/><ellipse cx="32.1" cy="29.4" fill="#f8a78b" rx="9.4" ry="2.4"/><path fill="#fcccba" d="M14.8 27l-1.4 2.9.6 3.8 2.4 2 3.9.3-.6-1.9.3-5.3-5.2-1.8z"/><path fill="#fecf0c" d="M20 24.9l-6-3.2.2 1.5 5.8 3.2v-1.5z"/><path fill="#f78f20" d="M12.4 25.8l1.2-.9 6.4 2.5v1.4l-7.6-3z"/><path fill="#faaa19" d="M20 26.4v1l-6.4-2.5-.2-1.2.8-.5 5.8 3.2z"/><path fill="#ffe2b9" d="M10.2 22.3l2.2 3.5 1.2-.9-.2-1.2.8-.5-.2-1.5-3.8.6z"/><path fill="#723d19" d="M19.3 24.5a10.6 10.6 0 0 1 .4-5.7 6.4 6.4 0 0 1-1.8-6s.4-.1 1.4.4c-.6-1.2-.5-1.4-.5-1.4s-2.2-2.1-2.2-3.7a3.5 3.5 0 0 1 3-.4 4.6 4.6 0 0 1-.3-3.4c2.1-.8 6.3-.1 8.3 1.4a5 5 0 0 1 1.7-2.9l1.3 2.1s1.8-2.6 4.4-1.7a5.3 5.3 0 0 0 .1 4.8l1.4-1.8 1.3 1.5.7-.2s.7 3.6 4.1 3.5 4.4 2.9 4.4 2.9 3-3.2 5.8-.5c-.1 2.5-3.3 3.4-3.3 3.4s2 2.1 1 6a8.2 8.2 0 0 0 1.7 1.4l-.4 1 1.3.7v.2l-.5.5s-3.6-2.2-6.9 1.6c-2.5-.8-2.4-4.3-2.4-4.3s1.9-4.9 1.2-6.4a10.4 10.4 0 0 1-5-2.2l-3.1 1.2s-3.4.5-4.9-1.4c.1 1.3-1.5.8-1.5.8a3.2 3.2 0 0 1-1.4-1 4.1 4.1 0 0 1-4.1.3c-2.2-1-2.1-.6-2.1-.6a5.3 5.3 0 0 0-1.5 2.8c-.4 2-.9 6.9-.9 6.9z"/><path fill="#fff" d="M20.6 37.3l-1.9-.2-.8.7-.3 1-.9.2-.5.8.2 1.2-1.6 1-.4 1.4.2.4-1.2.7-.6.8.3 1.4-1.6 1-.3 1.2.3.9-.3 1.1v.9l1.2.2 1-.5-.3.5.5.7H15l.9-.8.9.8h1.5l1-1 1.3.3 1.6-.8.8-1.1 1.4-.3.9-1 2.1-.8 1-1.3-.3-1.7-4.4-3-3.1-4.7z"/><path fill="#723d19" d="M48.9 36.2l1 2-2 1.4-2-.8v-2.5l3-.1z"/><path fill="#fff" d="M30.3 35.3s6.6-3.7 7.7-.7-5.4 4.7-7.7 4.7-5.8-1.4-5.8-4.3 3.5-.7 4.1 0 1.7.3 1.7.3z"/><circle cx="24.9" cy="27.5" r="3.5" fill="#fff"/><path fill="#fdbc16" d="M25 25.1l-2.4 2.3 1.9 2.5 2.9-2.4-2.4-2.4z"/><circle cx="38.8" cy="28.2" r="3.4" fill="#fff"/><path fill="#fdbc16" d="M38.5 25.8L36.3 28l2.4 2.4 2.5-2.7-2.7-1.9z"/><ellipse cx="41" cy="47.4" fill="#fdbc16" rx="2.2" ry="1.9" transform="rotate(-18.8 40.868 47.415)"/><path fill="#f04d58" d="M44.2 48l3.2-1.7 2.3 2.2-3.6 2.2-1.9-2.7z"/><path fill="#fff" d="M11.9 22.3l-.7 1.5-1-1.5h1.7z"/><path d="M0 31.3a32.3 32.3 0 0 1 .6-6.1 25.7 25.7 0 0 1 2-6.1 33.2 33.2 0 0 1 6.3-9.3 29.5 29.5 0 0 1 11.9-7.7A28 28 0 0 1 27.1.4l3.6-.4h4.2a31.6 31.6 0 0 1 6.8 1.4 20.8 20.8 0 0 1 3.2 1.2 29.9 29.9 0 0 1 4 2A28.9 28.9 0 0 1 53.4 8a33.2 33.2 0 0 1 5.7 6.7 33.6 33.6 0 0 1 3 6 31.1 31.1 0 0 1 1.6 6.7 27.3 27.3 0 0 1 .3 5.7 38.2 38.2 0 0 1-1.5 8.2 30.6 30.6 0 0 1-3.3 7.1 29.8 29.8 0 0 1-6.3 7.4 32.9 32.9 0 0 1-7.3 4.8 32.7 32.7 0 0 1-8.2 2.6 45.5 45.5 0 0 1-5.3.4 34.8 34.8 0 0 1-8.5-1.1 32.2 32.2 0 0 1-8.5-3.7 33.5 33.5 0 0 1-8.9-8.3A33.7 33.7 0 0 1 1.5 41a35 35 0 0 1-1.3-5.6C.1 34 0 32.7 0 31.3zM31.8.7H29L27 1a25.1 25.1 0 0 0-6.1 1.7 29.9 29.9 0 0 0-8.1 4.8A33.6 33.6 0 0 0 7.6 13a29.8 29.8 0 0 0-4.8 10.5 30 30 0 0 0-1.1 7.3 38.7 38.7 0 0 0 .3 4.8 26.7 26.7 0 0 0 1.5 6.2 30.8 30.8 0 0 0 8.1 12 35.3 35.3 0 0 0 6.8 4.6 31.2 31.2 0 0 0 8.5 2.7 26 26 0 0 0 3.9.5h2.7l3.4-.3a32.5 32.5 0 0 0 9.5-3.3 32 32 0 0 0 9.2-7.6 30.3 30.3 0 0 0 4.9-9 29.1 29.1 0 0 0 1.6-8.2 35 35 0 0 0-.3-6.5 35.3 35.3 0 0 0-1.4-5.7 29.4 29.4 0 0 0-4.2-7.8 29.7 29.7 0 0 0-6.9-6.8 27.1 27.1 0 0 0-7.5-4 30 30 0 0 0-10-1.7z"/><path d="M45.2 27.6c-.1-.1-.1-.2-.2-.2a6.2 6.2 0 0 1-.9-2.6c0-.1 0-.2.1-.2s.1.1.1.2a9.4 9.4 0 0 0 .4 1.6 7.5 7.5 0 0 0 .7 1.2l.3.2c0 .1.1.1.1 0a5.6 5.6 0 0 1 .5-.8c.1-.2 0-.2-.1-.3a3.2 3.2 0 0 1-1.3-1.5 3 3 0 0 1-.4-1c0-.2-.1-.4 0-.6a4.2 4.2 0 0 0 .4 1 5.4 5.4 0 0 0 1 1.6l.3.3c.3.2.3.2.5-.1a4.3 4.3 0 0 1 2.3-1.5c.3 0 .4-.1.4-.4a14.2 14.2 0 0 0 .5-2.2 14.6 14.6 0 0 0-.3-3.6 5.9 5.9 0 0 0-1.2-2.2l-.6-.5h-.1a1.3 1.3 0 0 0-1.2-.1 3.5 3.5 0 0 0-1.4.6l-.7.3s-.1.1-.1 0v-.2a.1.1 0 0 0 .1-.1 4.1 4.1 0 0 1 2.3-.9h1.2a1.8 1.8 0 0 1 1 .4 1 1 0 0 1 .5.4.9.9 0 0 0 .7.1l1-.7a4.4 4.4 0 0 0 1.2-1.9c.1-.2.1-.3-.1-.4a5.8 5.8 0 0 0-1.8-.4 5.4 5.4 0 0 0-2.5.6l-.4.2c-.3.3-.3.3-.2.7s.1.2.1.4h-.1c-.1 0-.2 0-.2-.1s-.1-.1-.1-.2a7.1 7.1 0 0 0-3.8-3 6.1 6.1 0 0 0-1.3-.3H41A3.5 3.5 0 0 1 38.4 9a1.4 1.4 0 0 1-.1-.9c0-.2-.1-.2-.3-.1l-.6.5a2.7 2.7 0 0 0-.5 1.4 6.4 6.4 0 0 0 .5 3.9l.8 1.4c.1.1.2.2.2.3s-.3-.1-.4-.1l-.8-1a5.4 5.4 0 0 1-1.1-2.6c0-.3-.1-.6-.1-.9s0-.2-.1-.2a2.3 2.3 0 0 1-.7-.7A5.8 5.8 0 0 1 34 6c.1-.5.1-1 .2-1.5l.3-.7.3-.2c.1 0 .1 0 .1.2v.1a9.7 9.7 0 0 0-.2 2.4.8.8 0 0 1 .1.4.4.4 0 0 0 .1.3v-.4c.1-.2.1-.4.2-.6s.1-.1.1-.2h.2c.1 0 .1.1 0 .1v.8a.2.2 0 0 0 .2-.2 1.8 1.8 0 0 1 .7-.5c.2-.1.2-.1.4.1a7.6 7.6 0 0 0 .8 1.1c.1.2.2.2.5.1h.6c.1 0 .1.1.2.3a2.9 2.9 0 0 0 2 2.5l1.6.2a6.6 6.6 0 0 1 4.3 2.8c0 .1.1.1.1.2s.2.2.3.1a3.8 3.8 0 0 1 2.6-1.3 2.9 2.9 0 0 1 1.6.1 5.7 5.7 0 0 1 1.3.8.5.5 0 0 1 .3.6 5.4 5.4 0 0 0-.3 1 3.8 3.8 0 0 1-2.3 2c-.3.1-.3.1-.2.3a5.8 5.8 0 0 1 .9 4.6 2.9 2.9 0 0 0-.2.9c-.1.2-.1.3 0 .4a2.4 2.4 0 0 0 1.3 1.1c.1 0 .2.1.2.3a1.4 1.4 0 0 1-.2.6c-.1.2 0 .2.1.3l.7.5c.1 0 .1.1.2.2s.1.3-.1.5-.2.2-.1.4l.8 1.3a4.7 4.7 0 0 1 .3 3.5 7.7 7.7 0 0 1-1.8 3.3 5.3 5.3 0 0 1-2.5 1.7h-.2c-.1 0-.2.1-.1.3l.2.3a4.3 4.3 0 0 0 .4.7.6.6 0 0 1-.1.7l-.8.6h-.2c-.2 0-.2.1-.1.2h.2a3.3 3.3 0 0 1 .6 2.5c0 .1 0 .2.2.3l.8.5a2 2 0 0 1 .7 2.1 1.9 1.9 0 0 1-.2.7c-.2.2-.2.2 0 .4l.8.9a2.9 2.9 0 0 1 .3 2.2l-.3.7c-.1.2-.1.3 0 .4a2.2 2.2 0 0 1 .6 1.4 2 2 0 0 1-1.8 2.2c-.2.1-.3.1-.4.3s-.1.3-.2.5a1.4 1.4 0 0 1-2.2.2c-.3-.3-.3-.3-.6-.1a2.3 2.3 0 0 1-2 .6 1.6 1.6 0 0 1-1.4-1.2.5.5 0 0 0-.5-.3 1.4 1.4 0 0 1-1.3-.5.2.2 0 0 0-.3 0 2.5 2.5 0 0 1-1.7.1 1.5 1.5 0 0 1-1.2-1.7V51c.1-.1 0-.2-.1-.2h-1.2l-.8-.3a2.3 2.3 0 0 1-1-2 .4.4 0 0 1 .1-.3c.1-.2.2-.2.3-.2a.2.2 0 0 1 .2.2c0 .1.1.2.1.3a1.8 1.8 0 0 0 .7 1 4.6 4.6 0 0 0 1.6.7h1.1a.1.1 0 0 1 0 .2l-.3.3a.2.2 0 0 0-.2.2 2.8 2.8 0 0 0 .1.9.9.9 0 0 0 .4.6 2.9 2.9 0 0 0 1.8.3c.2 0 .2-.1.2-.3s0-.2.1-.2.1-.1.2-.1a.1.1 0 0 1 .1.1 1 1 0 0 0 .9.8 1.3 1.3 0 0 0 1.2-.2c.1 0 .2-.2.3-.1s0 .3-.1.4c-.2.3-.2.3 0 .5l.5.3a2.5 2.5 0 0 0 2.2-.2.1.1 0 0 1 .1-.1c.3-.2.4-.1.5.2s0 .2.1.2a1 1 0 0 0 1.1.2 1.5 1.5 0 0 0 .7-1.2.6.6 0 0 1 .1-.4c0-.1 0-.2.1-.2h.2l.2.4h.2a2.2 2.2 0 0 0 1.1-1.8 1.3 1.3 0 0 0-.6-1 .8.8 0 0 0-.4-.4c0-.1-.1-.1-.1-.2h.4a.2.2 0 0 0 .2-.2 3 3 0 0 0-.6-2.9l-.5-.4h-.3c-.1-.1-.3-.2-.2-.4l.3-.2c.2.1.3 0 .4-.2a1.5 1.5 0 0 0-.2-1.9l-1-.8c-.3-.2-.3-.2-.2-.5v-.4a3.2 3.2 0 0 0-2.2-2.4h-.2c-.5-.1-.5-.1-.8.4a11.1 11.1 0 0 1-3.1 3.8 7.7 7.7 0 0 1-3.6 1.8 6.6 6.6 0 0 1-2 .1.7.7 0 0 1-.6-.2c-.2-.2-.2-.4.1-.5a1.1 1.1 0 0 1 .8-.2c.6-.1.6-.1.2-.6a9.9 9.9 0 0 1-1.4-2.7c-.1-.1-.2-.3-.1-.3s.2.1.2.2a22.8 22.8 0 0 0 1.7 3c.2.2.2.2.5.1l1.1-.3q.3-.2 0-.3a10.4 10.4 0 0 1-1.2-1.7c0-.1-.2-.2-.1-.3s.2.1.3.2a16.7 16.7 0 0 0 1.2 1.6c.3.2.2.2.5 0l.9-.5c.2-.2.2-.2 0-.4a8.6 8.6 0 0 1-1.8-2l-.4-.5a.3.3 0 0 1-.1-.2c0-.1-.1-.1 0-.2a.1.1 0 0 1 .1.1c.1 0 .1.1.2.2a16.7 16.7 0 0 0 2.3 2.3c.2.2.2.2.4 0l.6-.6q.3-.1 0-.3a12.5 12.5 0 0 1-1.5-1.9l-.3-.7h.2c0 .1.1.2.1.3a16.3 16.3 0 0 0 1.7 2c.2.2.2.2.4 0l.3-.5a16.5 16.5 0 0 0 2.1-4.7.9.9 0 0 0 .1-.5c0-.1.1-.2.1-.3a.3.3 0 0 1 .3-.3c.2 0 .4.1.4.3a1.9 1.9 0 0 1 .2.8c.1.3.1.3.4.3h.8a8.5 8.5 0 0 0 2.2-.9 4.4 4.4 0 0 0 1.7-1.6 20 20 0 0 0 1-2.1 3.6 3.6 0 0 0-.3-2.5 4.2 4.2 0 0 0-1.7-1.8 1.6 1.6 0 0 0-2 0 6.6 6.6 0 0 0-2.3 2l-.5.9c-.1.1-.1.1-.1.2s-.2.2-.3.1a.2.2 0 0 1-.2-.2c.1-.2-.1-.3-.3-.3l-1-.5h-.2c-.1-.1-.2-.2-.1-.3h.3l1.1.5h.3v-.2h-.2l-.9-.4H44a.2.2 0 0 1-.1-.3h.3l.9.4c.3.2.3.2.4-.1s.2-.5-.2-.8zm4.3 10.6c0-.1-.1-.2-.1-.3a2 2 0 0 1-.4-.8c-.1-.3-.1-.3-.4-.3a3.7 3.7 0 0 1-1.8 0c-.2 0-.3 0-.3.2s-.1.9-.2 1.4-.1.2.1.2a1.9 1.9 0 0 1 1.3.2h.4l.9-.3c.1-.1.1-.1.1-.2l-.5-.2c-.1-.1-.4-.1-.5-.3zm-13.3-29h.1a3.1 3.1 0 0 1 1-1.5c.1-.1.1-.1 0-.2a2.5 2.5 0 0 1-.8-1h-.2a2.7 2.7 0 0 0-.7.8c0 .2-.1.3 0 .4s.3.9.4 1.3zm15.6 15h-.2a2.7 2.7 0 0 1-1-.6c-.1-.2-.1-.1-.2 0a11.7 11.7 0 0 1-.5 1.1c-.1.2-.1.2.1.3l.9.2c.1.1.2 0 .3-.1l.5-.6zm-.1 1.3a1 1 0 0 0 .5.4l.3.3h.3a.2.2 0 0 0-.2-.2zm-16-15.9l.3.4h.1zM19.1 13h-.9c-.3-.1-.3-.1-.4.2v1.3l.3 1.3a5.2 5.2 0 0 0 1.7 2.6h.2c.2.2.2.3-.1.4l-.2.3a14.2 14.2 0 0 0-.4 2 13.8 13.8 0 0 0 .1 2.9c.2-.1.1-.2.1-.3a25 25 0 0 1 .6-3.8 18.9 18.9 0 0 1 .5-2.3c.1-.3 0-.3-.2-.4a4.4 4.4 0 0 1-1.6-2.2v-.4h.3a.3.3 0 0 0 .1.2 4.6 4.6 0 0 0 1.3 1.8c.3.2.3.2.4-.1l.3-.5c0-.1.1-.2.2-.1a1.3 1.3 0 0 1-.1.6 13.4 13.4 0 0 0-.5 3.5c-.2 3.1-.2 6.2-.2 9.3 0 .2-.1.5-.1.7a1.1 1.1 0 0 0-.1.5 22.6 22.6 0 0 0 .8 5.1 10.4 10.4 0 0 0 1.7 3.7c.2.3.2.3.4 0l.9-1.2h.1v.2l-.9 1.3c-.1.2-.1.3 0 .4l.3.5c.3.3.3.3.5-.1a6.7 6.7 0 0 1 .9-1.4c.1-.1.1-.2.3-.3s0 .2-.1.2a16.2 16.2 0 0 0-1 1.8c-.1.2-.1.3.1.4s.3.4.5 0a9.5 9.5 0 0 1 1-1.7c0-.1.1-.3.2-.3a.4.4 0 0 1-.1.3 12.4 12.4 0 0 0-1 2c-.1.3-.1.3.1.5l.9.7h.2c.2-.5.3-1.1.5-1.7a.1.1 0 0 1 .1.1 7.5 7.5 0 0 1-.4 1.6c0 .2 0 .3.2.4l1 .7c.1.2.2.1.2-.1s.3-1.4.5-2.1l.3-.6a.6.6 0 0 1-.1.4 20.5 20.5 0 0 0-.5 2.4c-.1.3-.1.3.2.4l1.1.5h.3c.1.1.2.2.2.3a.2.2 0 0 1-.2.2 1.1 1.1 0 0 1-.8 0 8 8 0 0 1-4.7-2 12.4 12.4 0 0 1-3.8-5l-.3-.7a.2.2 0 0 0-.2-.2 1.3 1.3 0 0 0-1.3.3 1.2 1.2 0 0 0-.2 1.4v.2a.1.1 0 0 1-.1.1c0 .1-.1.1-.2.1l-.3-.3c-.2-.2-.2-.2-.4-.1a1 1 0 0 0-.4 1.6c.2.3.2.4-.1.5l-.5.2a2 2 0 0 0-1.3 1.5.8.8 0 0 0 .1 1c.1.3.1.4-.2.5a1.9 1.9 0 0 0-1 .3 1.4 1.4 0 0 0-.7 1.1.8.8 0 0 0 .1.7.5.5 0 0 1-.2.8l-.7.4c-.3.2-.5.3-.6.6a1.4 1.4 0 0 0-.1 1.1c.1.1.1.2.3.2s.2-.1.3.1 0 .2-.1.3-.1.2-.2.2a1.3 1.3 0 0 0-.4.7c-.1.4 0 .6.4.7a1.7 1.7 0 0 0 1.2-.2h.3c.2 0 .3.1.2.3s-.2.3-.3.4-.2.2 0 .3l.7.2a1.5 1.5 0 0 0 1.1-.4.8.8 0 0 0 .4-.9v-.4h.3c.2.1.2.4.2.6a.7.7 0 0 0 .3.6h.2a2.2 2.2 0 0 0 2.1-.2c.2-.2.4-.3.4-.6s0-.2.1-.2a.1.1 0 0 1 .1.1c.4.5.8.4 1.3.3a4.6 4.6 0 0 0 1.8-1.3 1.8 1.8 0 0 0 .4-.9c0-.1 0-.2.1-.2s.1 0 .2.1.1.2.1.4.1.2.3.1l.9-.4a.9.9 0 0 0 .3-.7v-.2c0-.2.1-.3.3-.2s.4.1.6.1a4.1 4.1 0 0 0 2-1.4 1.5 1.5 0 0 0 .4-1.1c0-.1 0-.2.1-.2a.2.2 0 0 1 .3 0 .6.6 0 0 1 .3.6 2.7 2.7 0 0 1-1.4 2.4 2.5 2.5 0 0 1-1.7.4.3.3 0 0 0-.3.3 1.2 1.2 0 0 1-.6.8 2.8 2.8 0 0 1-1.3.3c-.2 0-.3 0-.4.2a2.9 2.9 0 0 1-2.6 1.7l-.8-.2c-.2-.1-.3-.1-.4.1a2.4 2.4 0 0 1-1.1.9 2.2 2.2 0 0 1-2.2-.5.2.2 0 0 0-.3 0 2.2 2.2 0 0 1-1.6.5 1.4 1.4 0 0 1-1.1-.7c-.1-.1-.2-.2-.4-.1h-.8a1.2 1.2 0 0 1-.9-1.8l.3-.5c.2-.1.2-.2.1-.4a1.6 1.6 0 0 1 .5-2.5l.8-.3c.2-.1.2-.1.1-.3a1.8 1.8 0 0 1 .4-2.2l.7-.4h.3c.1 0 .2-.1.1-.2a1.6 1.6 0 0 1 .1-1.5 2.4 2.4 0 0 1 1.4-1.2h.3c.1 0 .2-.1.1-.2s.3-1.9 1.2-2.1.2-.1.3-.3a1.6 1.6 0 0 1 1.7-1.4h.4c-.1-.2-.1-.3-.3-.3a9.6 9.6 0 0 1-1.7 0 7.9 7.9 0 0 1-2.2-.5 4.5 4.5 0 0 1-2.7-2.7 5.3 5.3 0 0 1 0-3.9 9.6 9.6 0 0 1 1.4-2.1c.1-.2.1-.2-.1-.3l-1.6-.6a.8.8 0 0 1-.4-.4c-.6-1-1.2-1.9-1.7-2.9a.5.5 0 0 1-.2-.4.4.4 0 0 1 .2-.5l3.6-.7.7.2 1.8.9 2.2 1.2c.1.1.2.2.3.1s-.1-.6-.1-.9a6.9 6.9 0 0 1 .5-4c.1-.2.1-.2-.1-.4a4.6 4.6 0 0 1-2-3.7 8.6 8.6 0 0 1 .1-1.6 1.3 1.3 0 0 1 .3-.5c.1-.2.2-.2.4-.2l1.1.5zm-1 15.5a.3.3 0 0 0 .1.2h.1a2.4 2.4 0 0 1 .3 2l-.2.3h-.3c-.1-.3-.5-.3-.7-.4s-.4.1-.4.4a1.3 1.3 0 0 0 .3.8l.2.3v.2a.2.2 0 0 1-.3 0h-.1a2.3 2.3 0 0 1-.8-1.6 1.2 1.2 0 0 1 .5-.7.6.6 0 0 1 .6 0l.7.3c.1.1.2 0 .2-.1a.9.9 0 0 0-.1-.5 3.4 3.4 0 0 0-.9-1.5l-.5-.3-1.2-.4c-.3-.2-.3-.2-.5.1a6.8 6.8 0 0 0-.8 4.2 3.3 3.3 0 0 0 1.8 2.6 13.8 13.8 0 0 0 2.9.8c.2 0 .2 0 .2-.3s-.1-.9-.2-1.4a16 16 0 0 1 .4-4.4c.1-.2 0-.2-.1-.3l-1.1-.4zm1.5-1.7a7.6 7.6 0 0 1-.1-1.5.5.5 0 0 0-.3-.5l-4.7-2.4h-.1c-.1-.1-.1 0-.1.1a.6.6 0 0 0 .3.6l4.5 2.5c.1.1.2.1.1.3s-.2 0-.3 0l-4.6-2.3a.5.5 0 0 0-.6.1c-.1.1-.2.1-.1.3a.8.8 0 0 1 .2.5.8.8 0 0 0 .4.4l2.8 1.2 2.3.9c.3.1.3.1.3-.2zm.1 1.5v-.5a.5.5 0 0 0-.4-.5l-4.9-1.9c-.5-.2-.9-.2-1.2.2s-.2 0-.1.1.1.1.1.2h.1l5.5 2.2.8.3c.1 0 .2.1.1-.1zM14 22.8a.9.9 0 0 0-.1-.5c0-.1 0-.2-.2-.1l-1.5.3c-.2 0-.2.1-.2.2a.4.4 0 0 1-.1.3c-.2.2-.2.5-.4.7s0 .1.1.2l.8 1.3c0 .1.1.1.2.1l.6-.4c.2-.1.2-.2.1-.3s-.1-.4-.2-.5 0-.4.2-.6l.6-.4a.4.4 0 0 0 .1-.3zm-2.8.1H11c0 .1.2.4.3.3s.1-.2.1-.3-.1 0-.2 0z"/><path d="M30.6 39.8a8.4 8.4 0 0 1-3.5-.7 4.7 4.7 0 0 1-2.5-2.1 4.2 4.2 0 0 1-.4-1.5 2.3 2.3 0 0 1 .7-1.9 1.4 1.4 0 0 1 1.2-.4 4.5 4.5 0 0 1 2.4 1.4l.2.3c0 .1 0 .2-.1.2s-.1.1-.1 0l-.3-.2c-.4-.3-.4-.3-.5.2a20.5 20.5 0 0 0-.5 2.4c-.1.3-.1.3.3.5a7.8 7.8 0 0 0 2.2.4c.3 0 .3 0 .3-.3a13.4 13.4 0 0 1-.1-2 .6.6 0 0 0 0-.6.3.3 0 0 1 0-.4l.3-.3a9.6 9.6 0 0 1 5.8-1.9 3.3 3.3 0 0 1 1.7.4 1.8 1.8 0 0 1 .9 2.1 2.8 2.8 0 0 1-.8 1.5 9.3 9.3 0 0 1-4.5 2.6 11.2 11.2 0 0 1-2.7.3zm5.2-5.7a6.7 6.7 0 0 0-2.2.4c-.2 0-.3.1-.2.3s.1.4.1.6a17 17 0 0 0 .4 2.2c.1.3.1.3.4.1a5.7 5.7 0 0 0 2.1-1.3c.3-.3.7-.6.8-1a.7.7 0 0 0-.4-1.1 2.2 2.2 0 0 0-1-.2zM31 38.4h.9l1.5-.2c.2-.1.2-.1.1-.3l-.3-1.3a7.6 7.6 0 0 1-.3-1.6c0-.2 0-.2-.2-.1l-2 .7c-.2.1-.3.2-.3.4v2.3c0 .2 0 .2.2.2zm-5-4.5l-.5.2a1.7 1.7 0 0 0-.5 1.2 3.4 3.4 0 0 0 1.4 2.1c.1.1.2.1.2-.1a6.4 6.4 0 0 0 .2-.7 19.4 19.4 0 0 1 .5-2 .2.2 0 0 0 0-.3zm7-20.4h-.7l-1.3-1h-.3v.2a4 4 0 0 0 1.1 2 5.5 5.5 0 0 0 3.1 1.6l1.5.2h-.2a7.8 7.8 0 0 1-3.4-.4 4.2 4.2 0 0 1-2.6-2.6 3.4 3.4 0 0 1 0-2 .4.4 0 0 0-.1-.3 6.1 6.1 0 0 1-.6-3.2l-.2-.4a6.3 6.3 0 0 0-1.2-1.1 11.6 11.6 0 0 0-4.3-1.8l-2-.4a9.7 9.7 0 0 0-2.4.2h-.7a.4.4 0 0 1 .1-.3h.3a3.3 3.3 0 0 1 1.7-.4A9.7 9.7 0 0 1 27 5.1c.4.2.4.2.5-.2A4.4 4.4 0 0 1 29 2.6c.2-.2.3-.1.4.1l.9 1.7c.2.2.2.2.4 0a4.4 4.4 0 0 1 2.5-1.6h1.1c.1 0 .3 0 .2.2s-.2.1-.3.1a2.8 2.8 0 0 0-2.5 1.2 6 6 0 0 0-1.3 2.8 6.6 6.6 0 0 0 .8 4.6 3.5 3.5 0 0 0 1.7 1.7zm-3.5-6.4h.1a6 6 0 0 1 .6-1.9.2.2 0 0 0 0-.3 6 6 0 0 1-.9-1.5c-.1-.3-.2-.3-.3-.1a7.1 7.1 0 0 0-1.1 2.1c0 .2 0 .4.2.5L29.4 7z"/><path d="M19.7 5h.6a13.8 13.8 0 0 1 5.2 2.8 11.4 11.4 0 0 1 1.6 1.5c.2.1.2.1.3-.1a14 14 0 0 1 1-1.6c0-.1.1-.2.2-.3a.1.1 0 0 1 .2 0 4.3 4.3 0 0 1-.1.5 10.8 10.8 0 0 0-.8 1.9 6 6 0 0 0-.1 2.3 10.4 10.4 0 0 0 .3 1.2 4.3 4.3 0 0 0 1.2 1.7l.8.7v.4c0 .1-.1 0-.2 0h-.4a4.7 4.7 0 0 1-1.7-1.4l-.3-.3a7.1 7.1 0 0 1-2.8-1.6 9 9 0 0 1-2.3-3.1c-.4-.9-.7-1.9-1-2.8a4.3 4.3 0 0 0-.1-.5c0-.2 0-.2-.1-.3l-1.4-.6h-.2c-.1-.1-.2-.1-.2-.2zm7.6 8.8c.1-.2 0-.2 0-.3a5 5 0 0 1-.2-3.4c.1-.2 0-.3-.1-.4l-.8-.6A43.8 43.8 0 0 0 22 6.3h-.3a15.9 15.9 0 0 0 2.3 4.4 10.8 10.8 0 0 0 3.3 3.1z"/><path d="M19.1 13l-.2-.3a.8.8 0 0 1-.2-.6l-.2-.2-1.1-1.1a4.9 4.9 0 0 1-1.1-2.3c-.1-.6 0-.8.5-1a6 6 0 0 1 2.3-.1c.2 0 .3.1.4-.1h.2v.2a8.7 8.7 0 0 0 1.7 3.3 9.5 9.5 0 0 0 4.1 3.1l1 .4h.2v.2h-.4a8.2 8.2 0 0 1-4.7-2.5 9.3 9.3 0 0 1-2.1-3.9c-.1-.2-.1-.3-.3-.3a8.5 8.5 0 0 0-2.3.3c-.3 0-.3.1-.2.4a8.1 8.1 0 0 0 1 1.8 9.3 9.3 0 0 0 2.3 2.1c.2.1.3.2.4 0h.2l.3.3a17.7 17.7 0 0 0 4.9 2.6h1.1a.2.2 0 0 1-.2.2h-.5a7.6 7.6 0 0 1-4.6-1.9l-.9-.8-1-.4-.5-.3c0 .2.1.2.2.3a9.1 9.1 0 0 0 2.1 1.8l.2.2c.1 0 .1.1.1.2h-.2l-.6-.2a4.6 4.6 0 0 1-1.7-1.4l-.2-.3zm22.3 15.3a2.5 2.5 0 0 1-2.7 2.5 2.6 2.6 0 0 1-2.6-2.6 2.5 2.5 0 0 1 2.6-2.6 2.8 2.8 0 0 1 2.7 2.7zm-2.8-2.2h-.2c0 .1-.1.2-.1.3a4.4 4.4 0 0 1-1.4 1.3.2.2 0 0 0-.2.2c0 .1.1.1.2.2h.2a1.8 1.8 0 0 1 .7.5 2.4 2.4 0 0 1 .6.9l.2.3a.1.1 0 0 0 .2 0h.1a.4.4 0 0 1 .1-.3 2.9 2.9 0 0 1 1.5-1.6h.2c.1-.1.2-.1.2-.3h-.7a1.5 1.5 0 0 1-1.3-1c-.1-.4-.1-.5-.3-.5zm-16.4 1.3a2.7 2.7 0 0 1 2.7-2.6 2.4 2.4 0 0 1 2.5 2.5 2.7 2.7 0 0 1-2.6 2.7 2.5 2.5 0 0 1-2.6-2.6zm2.4 2.2a.2.2 0 0 0 .2-.2 1.9 1.9 0 0 1 1-1.3l.6-.2h.4c.2 0 .2-.2.3-.3s-.2-.2-.3-.2a2.6 2.6 0 0 1-.9-.5 6.1 6.1 0 0 1-.7-1.4l-.2-.2c-.1 0-.1.1-.2.2l-.7 1.1a2.1 2.1 0 0 1-1 .6c-.1 0-.2 0-.3.2a.2.2 0 0 0 .2.2l.3.2.5.5a2.2 2.2 0 0 1 .6 1.3zm1.6-10.8a2.7 2.7 0 0 1 1.8.5 3.2 3.2 0 0 1 1.2 2 .4.4 0 0 1-.2.4c-.2.1-.3 0-.4-.1a3.2 3.2 0 0 0-1.8-1 5.2 5.2 0 0 0-4 .9h-.6c-.1 0-.1-.2-.1-.3a1.6 1.6 0 0 1 .4-.7 4.9 4.9 0 0 1 2.4-1.5 3 3 0 0 1 1.3-.2zm19 8.8h.1v.4c.1.2 0 .3-.2.3h-.3a4.1 4.1 0 0 1-2.2-3.3 7.5 7.5 0 0 1 .2-2.1 14.6 14.6 0 0 1 .7-1.9 6 6 0 0 0 .7-3.2v-.2c.1-.1 0-.2.2-.2s.1.1.2.2.1.4.1.6a5.1 5.1 0 0 1-.2 3l-.6 1.9a5.3 5.3 0 0 0 .4 3.5 2.2 2.2 0 0 0 .9 1zm-4.3 22a2.4 2.4 0 0 1-1.7-.6 2 2 0 0 1-.6-1.8 2.7 2.7 0 0 1 3.3-2 2 2 0 0 1 1.3 2.9 2.6 2.6 0 0 1-2.3 1.5zm.3-3.7a1.8 1.8 0 0 0-1.5.7 1.1 1.1 0 0 0 .4 1.8 1.9 1.9 0 0 0 2.4-.8 1 1 0 0 0-.4-1.5 1.5 1.5 0 0 0-.9-.2zM36.1 23H35c-.1-.1-.2-.2-.1-.3s.1-.2.2-.3h.1a10.1 10.1 0 0 0 2.3-.7l3.4-1.7.8-.2c.4-.1.5.1.4.5a.9.9 0 0 1-.3.6 5.7 5.7 0 0 1-1.6 1.1 11.2 11.2 0 0 1-3.6.9zm-2.8-11v-.5c0-.2.1-.3.2-.3s.2.2.2.3.1.6.1.9a4.5 4.5 0 0 0 1.4 2.4l.5.5.2.2a.1.1 0 0 1 0 .2h-.4a6.1 6.1 0 0 1-1.9-2l-.2-.3a5.7 5.7 0 0 1-1.9-2.9 6.9 6.9 0 0 1 .1-3.5 1.8 1.8 0 0 1 .5-.7h.2c.1.1 0 .2 0 .3a3.6 3.6 0 0 0-.2 1 8.6 8.6 0 0 0 .2 2.3A17.2 17.2 0 0 0 33 12zm16.6 36.6c0 .1 0 .2-.1.2l-.3.2-3 1.8h-.2c-.2.1-.3.1-.4-.1a13.3 13.3 0 0 1-1.4-1.9l-.3-.6c-.2-.3-.1-.4.1-.6h.2a10.1 10.1 0 0 1 2.3-1.2h.2a.6.6 0 0 1 .7.1l1.6 1.5.5.5a.4.4 0 0 1 .1.1zm-.6-.1c0-.1-.1-.1-.1-.2L48 47.2l-.4-.5c-.1-.1-.2-.1-.4 0l-.5.2-2.1.9c-.2.1-.2.2-.1.3a17.7 17.7 0 0 0 1.6 2.2c0 .1.1.1.2 0h.2c.9-.5 1.7-1.1 2.6-1.5h.2z"/><path d="M38.3 32.8a2.3 2.3 0 0 1-1.4-.4l-.6-.4-.3-.2c-.2-.2-.2-.4-.1-.5s.2-.2.5-.1a7.4 7.4 0 0 0 3.3.2 3.8 3.8 0 0 0 1.7-.8.4.4 0 0 1 .5-.1c.1.1 0 .2-.1.5a3.2 3.2 0 0 1-1 1 4.4 4.4 0 0 1-2.5.8zM25 23a3.7 3.7 0 0 1 2.7 1.2.5.5 0 0 1 .2.4c0 .2-.1.4-.3.3h-.4a4.3 4.3 0 0 0-2.2-.6 3.8 3.8 0 0 0-2.3.6c-.1.1-.3.2-.4.1a.3.3 0 0 1 0-.4 2.2 2.2 0 0 1 .5-.8A3.2 3.2 0 0 1 25 23zm22.3 8.3h.4a.5.5 0 0 1 .6.6 2.4 2.4 0 0 1-.2.8 2.8 2.8 0 0 1-.7.9c0 .1-.1.1-.2.1H47a.2.2 0 0 1 0-.3l.2-.3a4.1 4.1 0 0 0 .5-.9c.1-.3.1-.4-.3-.4h-.3a.5.5 0 0 0-.4.2l-.2.3h-.3a.4.4 0 0 1-.1-.3v-.2a5.5 5.5 0 0 1 2.8-3l1.2-.4c.3 0 .4.1.4.2s-.1.3-.2.3a9.5 9.5 0 0 0-2.8 2c-.1.2-.2.3-.2.4zm-5.9-6.2c0 .2-.2.3-.4.2l-1.2-.4a5.5 5.5 0 0 0-1.8-.1 2.3 2.3 0 0 0-1.2.6l-.3.2h-.3a.4.4 0 0 1-.1-.3c0-.1.1-.2.1-.3a3.3 3.3 0 0 1 5.1-.3c.1.1.1.2.1.4zm-16.5 7.2a3 3 0 0 1-2.2-1c-.1 0-.2-.1-.2-.3a.3.3 0 0 1 .4-.4l.5.2a3.9 3.9 0 0 0 3.8-.3h.1c.1-.1.3-.2.4-.1a.6.6 0 0 1 .1.4l-.2.4a4.2 4.2 0 0 1-2.7 1.1zm12.4-20.7a2.8 2.8 0 0 1 .1-.9l.3-.4c.2-.1.3 0 .3.1v.2a3 3 0 0 0 .2 2.1 6.3 6.3 0 0 0 2.9 3.3l.3.3c.1 0 .2.1.1.2s-.1.1-.2.1H41a5.3 5.3 0 0 1-3.7-4.6z"/><path d="M42.8 16.7a1.1 1.1 0 0 1-.8-.3 4.9 4.9 0 0 1-2.3-2.6 3.6 3.6 0 0 1-.2-1.1.4.4 0 0 1 .1-.3h.2v.2a6.6 6.6 0 0 0 .5 1.5 6.4 6.4 0 0 0 1.9 2.1l.6.3.2.2c0 .1-.1 0-.2 0zm-8.3 23.9a.3.3 0 0 0 .1.2 1.9 1.9 0 0 0 .2.7 19.4 19.4 0 0 0 1.5 3.6v.2h-.2l-.2-.3a8.9 8.9 0 0 1-.8-1.7 16.8 16.8 0 0 1-.7-2.4v-.3h.1zm-.2-17.3v.2c-.2.1-.3 0-.4-.1l-.3-.5a3.8 3.8 0 0 1-.1-1.5c0-.1 0-.2.1-.2a.2.2 0 0 1 .4 0 11.8 11.8 0 0 1 .3 2.1zM21.2 8.2a.9.9 0 0 1-.1.5.1.1 0 0 1-.2 0v-.2l-.6-1.9a4.7 4.7 0 0 0-.6-.9.1.1 0 0 1 0-.2h.3l.3.3a4.2 4.2 0 0 1 .9 2.4zm7.4 22.2a.1.1 0 0 1 .1-.1 24.2 24.2 0 0 1 3.3-3.2c.1-.1.2-.2.3-.1s0 .2-.1.3l-2.4 2.1-1 .9z"/><path d="M41.5 12.1a4.4 4.4 0 0 0 .2 2l.6 1.2s.2.2.1.2-.3 0-.4-.1a4.4 4.4 0 0 1-.8-1.5 3.8 3.8 0 0 1-.1-1.5l.2-.4h.2zm5.9 13.1h-.5a5.2 5.2 0 0 1-2-1.9v-.4c0-.1 0-.1.1-.1 0 .1.1.1.1.2a8.5 8.5 0 0 0 1.6 1.7 2 2 0 0 0 .8.4.1.1 0 0 1 .1.1c0 .1-.1 0-.2 0zM30.1 42.3v-.7c0-.1 0-.1.1-.1s.1 0 .1.1a24.5 24.5 0 0 0 .4 3.8c0 .1.1.2-.1.2s-.1-.1-.1-.2l-.3-1.8a6.6 6.6 0 0 1-.1-1.3zm-.2-11.9s-.1-.1 0-.1 0-.1.1-.2a27.3 27.3 0 0 1 2.5-2.3c.1-.1.2-.2.3-.1s-.1.2-.2.3l-2.5 2.3zm3.5 10.8a.1.1 0 0 1 .1.1c0 .1 0 .1.1.2a28 28 0 0 0 .6 2.8 4.3 4.3 0 0 1 .1.5c.1.1.1.1 0 .1h-.1l-.3-.6a18.4 18.4 0 0 1-.5-2.5zm15.5-16.7a3.6 3.6 0 0 1-3.3-2.2 4.7 4.7 0 0 0 3.3 2.2zm-.9-1.3a.4.4 0 0 1-.5-.1 5.4 5.4 0 0 1-2.3-2.2l.2.2a8.5 8.5 0 0 0 1.6 1.6l.5.3zM32.5 44.8a6.8 6.8 0 0 1-.4-2.8c.1.9.3 1.9.4 2.8zm-2.2-16.9a11.1 11.1 0 0 1-1.9 1.8 10.7 10.7 0 0 1 1.9-1.8zm1.5 1.8c0-.1.1-.2.1-.3l1.2-1h.1c.1-.1.1-.1.1 0v.1h-.1l-1.3 1.2zm1.1-.1a.3.3 0 0 1 .1-.2l.8-.8c.1 0 .1 0 .1-.1h.1v.2c-.1 0-.1 0-.1.1l-1 .8zm13.7 19.3c0 .2 0 .2.1.3v.2h-.3a3.5 3.5 0 0 1-.8-1 .5.5 0 0 1 .1-.6 1.2 1.2 0 0 1 1.3-.2.4.4 0 0 1 .3.6.3.3 0 0 1-.1.2l.5.2h.2c.1.1.2.2.1.3s0 .1-.1.1h-1.3zm.1-.8a.1.1 0 0 0-.1-.1c-.2-.1-.5 0-.7 0s-.1.1 0 .1.3.4.3.4.4-.3.5-.4z"/></symbol><symbol id="wordmark-logo-64px" viewBox="0 0 64 52.9"><path fill="#faaa19" d="M.9 42.2h4.5c3.3 0 5.7 2 5.7 5.2s-2.4 5.3-5.7 5.3H.9zm4.5 8.2a2.9 2.9 0 0 0 2.9-3 2.7 2.7 0 0 0-2.9-2.9H3.7v5.9zm6.4-8.2h7.8v2.3h-5v1.7h4.9v2.3h-4.9v1.9h5v2.3h-7.8zm9.4 7a4.8 4.8 0 0 0 3.4 1.4c.9 0 1.5-.4 1.5-.9s-.7-.8-1.8-1.1-4.2-.8-4.2-3.3 1.5-3.3 4.2-3.3a6.3 6.3 0 0 1 4.3 1.5l-1.5 1.9a5 5 0 0 0-2.9-1.1c-1 0-1.3.4-1.3.9s.7.7 1.8.9 4.2.9 4.2 3.3-1.6 3.5-4.4 3.5a6.3 6.3 0 0 1-4.7-1.6zm8.3-7h2.7v10.5h-2.7zm9.2-.2a4.9 4.9 0 0 1 4.5 2.5l-2.3 1.2a2.6 2.6 0 0 0-2.2-1.3 3.1 3.1 0 0 0 0 6.1 3.6 3.6 0 0 0 2-.6V49h-2.4v-2.3h5.1v4.2a6.4 6.4 0 0 1-4.7 2c-3.2 0-5.7-2.1-5.7-5.4a5.4 5.4 0 0 1 5.7-5.5zm8.1 4.4v6.3H44V42.2h2.8l4.3 6.1v-6.1h2.8v10.5h-2.7zm9 2.8a4.8 4.8 0 0 0 3.4 1.4c.9 0 1.5-.4 1.5-.9s-.7-.8-1.8-1.1-4.2-.8-4.2-3.3 1.5-3.3 4.2-3.3a6.3 6.3 0 0 1 4.3 1.5l-1.5 1.9a4.8 4.8 0 0 0-2.9-1.1c-.9 0-1.3.4-1.3.9s.7.7 1.8.9 4.2.9 4.2 3.3-1.6 3.5-4.4 3.5a6.3 6.3 0 0 1-4.7-1.6zM5.4 8.6H3.7v4.2H.5V.2h6.3a4.1 4.1 0 0 1 4.4 4.2 3.9 3.9 0 0 1-2.5 3.8l2.5 4.6H7.5zM6.3 3H3.7v2.8h2.6a1.5 1.5 0 0 0 1.6-1.4A1.5 1.5 0 0 0 6.3 3zm12-3a6.4 6.4 0 0 1 6.8 6.5 6.5 6.5 0 0 1-6.8 6.6 6.4 6.4 0 0 1-6.7-6.6A6.4 6.4 0 0 1 18.3 0zm0 2.9a3.4 3.4 0 0 0-3.4 3.6 3.4 3.4 0 0 0 3.4 3.7 3.5 3.5 0 0 0 3.5-3.7 3.4 3.4 0 0 0-3.5-3.6zM32.1 0a6.4 6.4 0 0 1 6.7 6.5 6.4 6.4 0 0 1-6.7 6.6 6.5 6.5 0 0 1-6.8-6.6A6.4 6.4 0 0 1 32.1 0zm0 2.9a3.4 3.4 0 0 0-3.5 3.6 3.5 3.5 0 0 0 3.5 3.7 3.4 3.4 0 0 0 3.4-3.7 3.4 3.4 0 0 0-3.4-3.6zm11.3 5.2l-.8 1v3.7h-3.3V.2h3.3v5.2L46.5.2h4l-4.9 5.9 5.2 6.7h-4z"/><path fill="#faaa19" d="M59.8 10.9h-5.2l-.7 1.9h-3.5L55.1.2h4.1L64 12.8h-3.5zm-4.4-2.7H59L57.2 3zM17.2 24l-4.3 13.5a1.5 1.5 0 0 1-1.5 1 1.6 1.6 0 0 1-1.6-1.1L5.6 24a.1.1 0 0 0-.1.1v14.4H0V20.4a5.1 5.1 0 0 1 5.1-5.1h2.4l3.9 12.5h.1l3.9-12.5h2.5a5 5 0 0 1 4.9 5v18.2h-5.5V24.1a.1.1 0 0 0-.1-.1zm20.3 10.9h-7.1l-.9 3.6h-5.8l5.9-19.9a4.5 4.5 0 0 1 4.4-3.3 4.5 4.5 0 0 1 4.3 3.2l5.9 20h-5.8zm-6-4.8h4.9L34 20.3zm19.2-4.9v13.3h-2.1a3.5 3.5 0 0 1-3.5-3.5V18.7a3.4 3.4 0 0 1 3.4-3.4h2.3L57.5 28V15.3h2.3a3.3 3.3 0 0 1 3.3 3.3v16.6a3.3 3.3 0 0 1-3.4 3.3h-1.9z"/><circle cx="15.5" cy="6.4" r="3.9" fill="#faaa19"/><circle cx="29.2" cy="6.4" r="3.9" fill="#faaa19"/></symbol><symbol id="rookaman-logo-256px" viewBox="0 0 256 113.1"><circle cx="56.5" cy="56.6" r="55.7" fill="#ec1d44"/><path fill="#fff" d="M66.4 79.5s-3.5 1.8-2.2 6.9 3.9 4 6.2 3.5a3.1 3.1 0 0 0 0 4.3l4.3.2 2.5 1.1 1.3-.2 1.1 1.8 3.7.3 1.4-1 1.9 1.4 2.3-1.2.2-1.2 2.1-.7 1.6-1.9-.7-2.6-.7-1 .9-3.4-3-4 1.5-2.7-2.4-3.2-.9-.7-1.4-4.5-4.4-1.7-5.6 6.3-5.2 3.4z"/><path fill="#fcccba" d="M38 28.4a44.3 44.3 0 0 0-2.4 14.8c0 8.6-.5 17.4-.5 17.4l1.9 6.7 5.2 7.4 6.9 5 2.8.8s14.5 1 22.4-4 7.3-11.9 7.3-11.9h3.8l6.1-2.8 3.3-6.1v-4.2l-2.7-4.3-5.1-1.7-4.1 3.2-.9 1.6-2.3-.7-2.9-3.9.4-5.4 1.9-5.1.2-3.9-2.8-1.6-8-3.9L56 26.9l-7-1.6s-7.6 1.2-8.4.6-2.6 2.5-2.6 2.5z"/><ellipse cx="57" cy="52.3" fill="#f8a78b" rx="16.8" ry="4.2"/><path fill="#fcccba" d="M26.3 47.9l-2.4 5.3 1 6.8 4.3 3.5 6.8.5-.9-3.4.4-9.4-9.2-3.3z"/><path fill="#fecf0c" d="M35.6 44.4l-10.7-5.8.4 2.7 10.3 5.6v-2.5z"/><path fill="#f78f20" d="M22.1 45.9l2-1.5 11.5 4.4-.1 2.4-13.4-5.3z"/><path fill="#faaa19" d="M35.6 46.9v1.9l-11.5-4.4-.2-2.2 1.4-.9 10.3 5.6z"/><path fill="#ffe2b9" d="M18.1 39.7l4 6.2 2-1.5-.2-2.2 1.4-.9-.4-2.7-6.8 1.1z"/><path fill="#723d19" d="M34.4 43.6a18.5 18.5 0 0 1 .7-10.2c-4.9-4.3-3.2-10.7-3.2-10.7a8.3 8.3 0 0 1 2.5.7c-1-2-.9-2.3-.9-2.3s-4-3.9-4-6.6c2.3-1.8 5.4-.8 5.4-.8a8.2 8.2 0 0 1-.6-6c3.8-1.4 11.2-.3 14.9 2.5.9-4.1 3-5.3 3-5.3l2.2 3.8s3.2-4.5 7.8-3.1c-2.1 5.1.3 8.6.3 8.6L65 11l2.2 2.6 1.2-.3s1.3 6.5 7.4 6.2c4.1-.4 7.7 5.2 7.7 5.2s5.4-5.6 10.5-.9c-.3 4.6-6 6-6 6s3.6 3.7 1.8 10.7a14 14 0 0 0 3.1 2.5l-.8 1.8 2.3 1.2v.4l-.8 1s-6.4-4.1-12.2 2.7c-4.5-1.3-4.4-7.6-4.4-7.6s3.4-8.6 2.2-11.3c-4.7-.4-8.9-4-8.9-4l-5.5 2.2s-6.2.9-8.8-2.5c.1 2.2-2.6 1.3-2.6 1.3a5.5 5.5 0 0 1-2.6-1.6 7.3 7.3 0 0 1-7.2.5c-3.9-1.9-3.7-1.1-3.7-1.1s-1.9 1.3-2.7 4.9-1.6 12.3-1.6 12.3z"/><path fill="#fff" d="M36.7 66.4l-3.4-.3-1.4 1.2-.5 1.7-1.6.5-.9 1.2.3 2.3-3 1.7-.5 2.5.3.7-2.1 1.2-1.2 1.5.5 2.4-2.7 1.9L20 87l.5 1.5-.5 2v1.7l2.1.3 1.8-.9-.7.9.9 1.2h2.5l1.8-1.5 1.5 1.5h2.6l1.8-1.7 2.4.5 2.8-1.4 1.4-2 2.6-.6 1.5-1.8 3.7-1.4 1.9-2.3-.5-3-7.9-5.3-5.5-8.3z"/><path fill="#723d19" d="M87 64.3l1.7 3.7-3.6 2.4-3.4-1.4-.1-4.4 5.4-.3z"/><path fill="#fff" d="M53.9 62.8s11.8-6.6 13.6-1.3-9.4 8.5-13.6 8.3-10.4-2.4-10.2-7.5 6.2-1.3 7.1-.1 3.1.6 3.1.6z"/><circle cx="44.4" cy="48.9" r="6.2" fill="#fff"/><path fill="#fdbc16" d="M44.5 44.7l-4.3 4 3.5 4.5 5-4.3-4.2-4.2z"/><circle cx="68.9" cy="50.1" r="6" fill="#fff"/><path fill="#fdbc16" d="M68.5 45.9l-3.9 3.9 4.3 4.2 4.4-4.8-4.8-3.3z"/><ellipse cx="73" cy="84.2" fill="#fdbc16" rx="3.9" ry="3.5" transform="rotate(-18.8 72.967 84.07)"/><path fill="#f04d58" d="M78.7 85.3l5.5-3 4.1 4-6.3 4-3.3-5z"/><path fill="#fff" d="M21.1 39.7L20 42.3l-1.9-2.6h3z"/><path d="M0 55.7a56.5 56.5 0 0 1 1.1-10.8 52.2 52.2 0 0 1 3.5-11 59.4 59.4 0 0 1 11.2-16.5A57.7 57.7 0 0 1 37 3.6 60.4 60.4 0 0 1 48.3.7c2.1-.3 4.2-.6 6.3-.7a48.8 48.8 0 0 1 7.6.3 55.3 55.3 0 0 1 12 2.3c1.9.6 3.8 1.4 5.6 2.1S84.7 7 87 8.3a51.6 51.6 0 0 1 8 5.9 56.8 56.8 0 0 1 15.5 22.7 53.4 53.4 0 0 1 2.8 11.8 58.1 58.1 0 0 1 .5 10.2 59 59 0 0 1-2.7 14.5 58.4 58.4 0 0 1-5.8 12.7 57.8 57.8 0 0 1-24.1 21.7 53.7 53.7 0 0 1-14.6 4.5 50.8 50.8 0 0 1-9.5.8 59.5 59.5 0 0 1-15.1-1.9 57.3 57.3 0 0 1-30.9-21.3 61.8 61.8 0 0 1-10.7-27c-.3-2.4-.3-4.8-.4-7.2zM56.6 1.3l-4.9.2-3.7.4A58.9 58.9 0 0 0 37.1 5a52.4 52.4 0 0 0-14.4 8.6 50.3 50.3 0 0 0-9.2 9.8 54.4 54.4 0 0 0-8.6 18.4A62.8 62.8 0 0 0 3 54.7a61.1 61.1 0 0 0 .5 8.6 52.9 52.9 0 0 0 2.7 11.1 54.3 54.3 0 0 0 14.5 21.2 52 52 0 0 0 12 8.2 53.6 53.6 0 0 0 15.1 5 40.4 40.4 0 0 0 6.9.7h4.9l6-.7a56.7 56.7 0 0 0 16.8-5.8 54 54 0 0 0 16.4-13.6 51.3 51.3 0 0 0 8.9-16 54.8 54.8 0 0 0 2.8-14.5 56.1 56.1 0 0 0-.6-11.6 55.2 55.2 0 0 0-2.5-9.9 53.1 53.1 0 0 0-7.4-13.9 52.8 52.8 0 0 0-12.3-12.2 51.3 51.3 0 0 0-13.3-7 52.8 52.8 0 0 0-17.8-3z"/><path d="M80.3 49.2a.8.8 0 0 0-.2-.5 11 11 0 0 1-1.6-4.6c0-.2-.1-.3.1-.4s.1.2.1.3a16.1 16.1 0 0 0 .9 2.9 11.3 11.3 0 0 0 1.2 2.1l.4.4c.1.1.3.1.3-.1l.8-1.4c.2-.2 0-.3-.1-.4a7.5 7.5 0 0 1-2.3-2.7 4 4 0 0 1-.7-1.8 1.4 1.4 0 0 1 0-1.1 6.4 6.4 0 0 0 .6 1.8 11.2 11.2 0 0 0 1.8 2.8 1.8 1.8 0 0 0 .7.5c.4.4.4.4.8-.1a7.3 7.3 0 0 1 4.1-2.5.7.7 0 0 0 .7-.6 31.4 31.4 0 0 0 .8-4 22.8 22.8 0 0 0-.5-6.4 10.5 10.5 0 0 0-2.2-4 2.7 2.7 0 0 0-1-.8h-.2c-.6-.7-1.3-.5-2-.3a8.2 8.2 0 0 0-2.6 1l-1.1.6a.3.3 0 0 1-.4 0 .4.4 0 0 1 .1-.3h.2a8 8 0 0 1 4.1-1.8h.6a1.3 1.3 0 0 0 .9-.2c.2-.2.4-.1.7-.1a3.6 3.6 0 0 1 1.7.7l.9.7a1.1 1.1 0 0 0 1.2.2 8 8 0 0 0 1.9-1.6 10.8 10.8 0 0 0 2.1-3.4c.1-.3.1-.4-.3-.6a8.8 8.8 0 0 0-3.2-.7 9.8 9.8 0 0 0-4.4 1l-.7.4c-.6.4-.6.4-.3 1.2s.1.4.1.7a.2.2 0 0 1-.2.2.2.2 0 0 1-.3-.1l-.3-.4a12.6 12.6 0 0 0-6.6-5.4 6.7 6.7 0 0 0-2.4-.4H73a6.1 6.1 0 0 1-4.7-4.3 4 4 0 0 1-.3-1.5c.1-.4 0-.5-.4-.3l-1 1a6 6 0 0 0-1 2.5 11.7 11.7 0 0 0 .9 6.9c.5.8.9 1.7 1.5 2.5s.4.3.2.5-.4-.1-.5-.2a8.4 8.4 0 0 1-1.5-1.8 10 10 0 0 1-2-4.6 7.6 7.6 0 0 1-.1-1.5c0-.2 0-.4-.2-.5a3.2 3.2 0 0 1-1.2-1.1 9.9 9.9 0 0 1-2.2-7.2 25.1 25.1 0 0 1 .4-2.7 2.2 2.2 0 0 1 .5-1.1l.4-.4c.2-.1.4 0 .4.2s0 .2-.1.2a16.3 16.3 0 0 0-.3 4.4 1.7 1.7 0 0 0 .1.7c0 .2-.1.3.1.4s.1-.1.1-.3a3.8 3.8 0 0 1 .3-1l.3-.4s.2-.1.3 0 .1.2 0 .3a3.3 3.3 0 0 0 0 1c0 .1-.1.2 0 .3s.3-.2.4-.3a2.7 2.7 0 0 1 1.2-.9c.3-.2.4-.2.6.1a24.3 24.3 0 0 1 1.4 2c.3.3.5.4.9.2a1.1 1.1 0 0 1 1.1 0c.2.1.3.2.3.4a5.3 5.3 0 0 0 3.7 4.5 13.7 13.7 0 0 0 2.8.5 10.9 10.9 0 0 1 7.6 4.7l.3.5c.1.2.2.2.4.1a7.9 7.9 0 0 1 4.8-2.4 5.5 5.5 0 0 1 2.8.4 7.6 7.6 0 0 1 2.3 1.3.9.9 0 0 1 .4 1.2c-.2.5-.3 1.1-.5 1.7a6.3 6.3 0 0 1-4.1 3.5c-.4.1-.4.1-.2.5a10.9 10.9 0 0 1 1.5 8.3l-.4 1.6a.8.8 0 0 0 .1.7 4.3 4.3 0 0 0 2.2 1.8c.3.1.4.3.4.7a2.3 2.3 0 0 1-.3 1.1c-.2.2-.1.3.1.5a5 5 0 0 1 1.2.8.8.8 0 0 1 .4.4c.3.6.3.6-.2.9s-.3.3-.1.7a9.7 9.7 0 0 1 1.5 2.4 8.5 8.5 0 0 1 .5 6.1 14.8 14.8 0 0 1-3.2 5.9 10.7 10.7 0 0 1-4.5 3.1h-.3c-.3.1-.3.2-.2.5l.3.6c.2.5.5.9.7 1.3s.2.7-.1 1.1a4.2 4.2 0 0 1-1.5 1.1l-.4.2c-.2.1-.2.2-.1.3l.3.3a5.4 5.4 0 0 1 1.2 4.4.4.4 0 0 0 .2.5 5.4 5.4 0 0 1 1.5.9 3.6 3.6 0 0 1 1.3 3.8 1.7 1.7 0 0 1-.5 1.2c-.3.5-.3.5.1.8a5.2 5.2 0 0 1 1.4 1.6 4.7 4.7 0 0 1 .5 4 6.1 6.1 0 0 1-.5 1.2.6.6 0 0 0 0 .7 4.4 4.4 0 0 1 1.1 2.4 3.6 3.6 0 0 1-3.3 4.1.5.5 0 0 0-.6.4 2.5 2.5 0 0 1-4.3 1.2c-.5-.5-.5-.5-1-.1a4.1 4.1 0 0 1-3.5 1 3.3 3.3 0 0 1-2.7-2.1c-.1-.4-.3-.5-.7-.5A2.4 2.4 0 0 1 75 95c-.2-.2-.4-.1-.6-.1a4.5 4.5 0 0 1-3 .3 2.8 2.8 0 0 1-2.3-3.1c.1-.3.1-.6.2-.9s0-.3-.3-.3a5.5 5.5 0 0 1-2.2-.2l-1.3-.5a3.9 3.9 0 0 1-1.8-3.7l.2-.5a.5.5 0 0 1 .5-.3c.3.1.3.3.4.4a1.3 1.3 0 0 0 .1.6 3.7 3.7 0 0 0 1.3 1.7 7.4 7.4 0 0 0 2.9 1.2h1.6c.1 0 .3.1.3.2s0 .3-.1.4a1 1 0 0 1-.5.4c-.2.1-.2.2-.3.4a8.6 8.6 0 0 0 .1 1.6 1.9 1.9 0 0 0 .8 1.1 5.1 5.1 0 0 0 3.2.5c.3-.1.4-.2.4-.5a1.1 1.1 0 0 1 .1-.5h.3a.2.2 0 0 1 .2.2 2 2 0 0 0 1.6 1.5 2.7 2.7 0 0 0 2.1-.4c.2-.1.4-.4.6-.1s0 .4-.1.6h-.1c-.3.6-.3.6.1 1l.8.5a3.9 3.9 0 0 0 3.9-.4h.2c.5-.3.7-.2.9.3a.5.5 0 0 0 .2.4 1.6 1.6 0 0 0 1.9.3 2.2 2.2 0 0 0 1.3-2.1c.1-.2 0-.4.1-.7a.3.3 0 0 1 .3-.3c.2-.1.3.1.3.2l.3.6c.1.2.2.2.5.1a3.5 3.5 0 0 0 1.8-3.2 2.3 2.3 0 0 0-1-1.7l-.7-.7c-.1-.1-.2-.2-.1-.4s.2-.2.3-.2h.3a.5.5 0 0 0 .4-.2c.4-1.9.4-3.8-1.1-5.3l-.9-.7-.5-.2c-.2-.1-.5-.2-.4-.6s.3-.3.6-.3a1 1 0 0 0 .7-.4 2.8 2.8 0 0 0-.4-3.4 8.4 8.4 0 0 0-1.8-1.5c-.6-.3-.6-.3-.3-.9s0-.4 0-.6a5.5 5.5 0 0 0-4-4.3h-.3c-.9-.1-.9-.1-1.4.7a18.2 18.2 0 0 1-5.5 6.8 15.3 15.3 0 0 1-6.4 2.8 13.7 13.7 0 0 1-3.5.2l-1.1-.4c-.4-.4-.4-.8.1-1l1.4-.3c1.1-.2 1.1-.2.4-1.1a20.2 20.2 0 0 1-2.6-4.8c0-.2-.2-.5 0-.6s.2.3.3.4a30.3 30.3 0 0 0 3 5.3c.4.5.4.5.9.3l1.9-.6c.4-.2.4-.3.1-.6a16.6 16.6 0 0 1-2.2-3c0-.1-.3-.3-.1-.5s.3.2.4.4 1.4 1.9 2.2 2.8.5.4 1 .1l1.5-1c.4-.4.4-.4 0-.7a22 22 0 0 1-3.3-3.5l-.6-1-.2-.3a.2.2 0 0 1 0-.3c.1 0 .2 0 .2.1l.3.3a27.8 27.8 0 0 0 4.1 4.3c.4.3.4.3.8 0l1-1.1c.3-.3.3-.3 0-.7a16.4 16.4 0 0 1-2.6-3.3 5.4 5.4 0 0 1-.5-1.1c0-.1-.1-.2 0-.2a.1.1 0 0 1 .2 0l.3.6a32.6 32.6 0 0 0 2.9 3.6c.4.4.4.4.7-.1a2.4 2.4 0 0 0 .6-.8 26.5 26.5 0 0 0 3.8-8.4c.1-.3.1-.6.2-.9a1.1 1.1 0 0 1 .1-.5.7.7 0 0 1 .6-.6.7.7 0 0 1 .7.6 3.2 3.2 0 0 1 .3 1.4c.1.6.2.6.8.6l1.4-.2a13.6 13.6 0 0 0 3.9-2 8.1 8.1 0 0 0 3-2.8 17.6 17.6 0 0 0 1.7-3.7A6.3 6.3 0 0 0 93 51a7.4 7.4 0 0 0-3.1-3.2 3 3 0 0 0-3.5 0 10.9 10.9 0 0 0-4 3.7l-1 1.7-.2.3c-.1.2-.2.4-.4.3s-.3-.2-.3-.4-.2-.5-.6-.7l-1.9-.8c0-.1-.1-.1-.2-.2a.4.4 0 0 1-.2-.5c.1-.2.3-.2.5-.1l1.9.8.3.2c.1.1.2.1.3-.1s.1-.2-.1-.3h-.3l-1.6-.7-.3-.2a.4.4 0 0 1-.2-.5c.1-.2.4-.2.6-.1l1.6.8c.5.4.5.4.7-.2s.3-.8-.5-1.4zm7.8 18.7a.5.5 0 0 0-.2-.4 5.5 5.5 0 0 1-.8-1.5c-.1-.6-.1-.6-.7-.5a8.6 8.6 0 0 1-3.2 0c-.4 0-.4 0-.5.4a15.7 15.7 0 0 1-.4 2.3c-.1.4-.1.4.3.4a5.9 5.9 0 0 1 2.3.4h.6l1.7-.6c.1 0 .2 0 .2-.2l-.9-.4c-.3-.2-.7-.2-.9-.6a11.7 11.7 0 0 0 2.5.7zM64.5 16.4h.1a6.5 6.5 0 0 1 1.7-2.6c.2-.1.2-.2 0-.4a4.7 4.7 0 0 1-1.4-1.7c-.1-.2-.2-.3-.4-.1L63.4 13a.8.8 0 0 0-.1.8 18 18 0 0 0 .8 2.1c.1.2.1.4.4.5zm27.6 26.7a.2.2 0 0 0-.2-.2 4.4 4.4 0 0 1-1.8-1.2c-.2-.2-.3-.1-.4.1s-.7 1.4-.9 2-.1.4.2.4a4.4 4.4 0 0 1 1.5.5.4.4 0 0 0 .5-.2 2.7 2.7 0 0 0 .9-1.2zm-.1 2.2h-.1l.9.7c.2.2.4.3.5.5s.5-.1.6-.2a.3.3 0 0 0-.3-.3zM63.6 17c.1.4.2.6.4.7s.1.1.2.1v-.2zm-29.7 6.2c-.2.2-.3 0-.5 0a2.9 2.9 0 0 0-1-.3c-.5-.1-.6-.1-.7.4a9.6 9.6 0 0 0 0 2.4 17.4 17.4 0 0 0 .5 2.2 9.1 9.1 0 0 0 3 4.6l.4.3c.3.3.3.5-.2.7a.5.5 0 0 0-.3.5 22.9 22.9 0 0 0-.7 3.6 21.8 21.8 0 0 0 .1 5.1c0 .1 0 .2.1.2s.1-.4.1-.5a50.6 50.6 0 0 1 1-6.8l.9-4.1c.1-.5.1-.5-.3-.8a7.3 7.3 0 0 1-2.8-3.9 1.3 1.3 0 0 1-.1-.6c.1-.1.1-.2.2-.2h.3c.1.1.1.2.2.4a7.8 7.8 0 0 0 2.4 3.3c.5.3.5.3.7-.2l.5-1c.1-.1.1-.2.3-.2s.1.2.1.3a2.9 2.9 0 0 1-.2.9 27.6 27.6 0 0 0-1 6.3c-.3 5.5-.3 11-.3 16.5a5.1 5.1 0 0 1-.2 1.3 3.4 3.4 0 0 0-.1 1 44.5 44.5 0 0 0 1.3 8.9 24 24 0 0 0 3.1 6.7c.3.5.3.5.7 0a18.4 18.4 0 0 1 1.7-2.2l.2-.2-.3.5c-.5.7-1 1.5-1.6 2.2s-.2.5 0 .7l.7.9c.4.5.4.5.8-.1a10.4 10.4 0 0 1 1.5-2.5c.2-.2.3-.4.6-.5s-.1.2-.1.3a33.7 33.7 0 0 0-1.9 3.3.8.8 0 0 0 .1.8c.7.6.7.7 1-.2a17.8 17.8 0 0 1 1.7-3 .8.8 0 0 1 .5-.5.6.6 0 0 1-.2.5 24.2 24.2 0 0 0-1.8 3.6c-.2.5-.2.5.2.9l1.6 1.3a.5.5 0 0 0 .4.2c.3-1 .5-2.1.8-3.1s.2.1.2.2a22.9 22.9 0 0 1-.7 2.8.8.8 0 0 0 .3.8l1.7 1.3c.4.2.4.1.5-.2a18.3 18.3 0 0 1 .9-3.9l.5-1c0 .2-.1.5-.1.7a30.1 30.1 0 0 0-1.1 4.3c0 .4 0 .4.4.7l2 .8.6.3a.5.5 0 0 1 .3.5.8.8 0 0 1-.4.4 2.9 2.9 0 0 1-1.3 0 15.8 15.8 0 0 1-8.5-3.6 23.9 23.9 0 0 1-6.7-9l-.5-1.2c-.1-.2-.2-.3-.4-.3a2 2 0 0 0-2.2.5 2.3 2.3 0 0 0-.4 2.6.3.3 0 0 0 .1.2.4.4 0 0 1-.1.3c-.1.2-.2.2-.4.1l-.6-.6c-.2-.3-.2-.3-.6-.2a2 2 0 0 0-.8 3c.4.5.4.7-.1.9a3.2 3.2 0 0 1-.9.3 3.7 3.7 0 0 0-2.4 2.2 1.5 1.5 0 0 0 .2 1.8c0 .1.1.1.1.2s.1.7-.4.7a4.5 4.5 0 0 0-1.8.7 2.4 2.4 0 0 0-1.3 1.9 2 2 0 0 0 .2 1.3.9.9 0 0 1-.3 1.4l-1.2.7a2.6 2.6 0 0 0-1.2 1.1 2.1 2.1 0 0 0 0 1.9c0 .2.2.3.4.3a.4.4 0 0 1 .6.2.4.4 0 0 1-.2.5l-.4.5a2.9 2.9 0 0 0-.7 1.2.9.9 0 0 0 .7 1.2 3.1 3.1 0 0 0 2.1-.3l.5-.2c.4-.1.6.2.5.5a1.3 1.3 0 0 1-.6.7c-.3.2-.3.3 0 .5a2 2 0 0 0 1.3.4 3.6 3.6 0 0 0 2-.6 2.1 2.1 0 0 0 .7-1.8c-.1-.1-.1-.1-.1-.2a.6.6 0 0 1 .1-.4c.2-.1.3 0 .4.1a1 1 0 0 1 .4 1.1 1.3 1.3 0 0 0 .6 1.1l.3.2a3.8 3.8 0 0 0 3.7-.4 1.4 1.4 0 0 0 .7-1.1c0-.1 0-.3.2-.3h.3a1.8 1.8 0 0 0 2.2.6 6.9 6.9 0 0 0 3.3-2.3 2.5 2.5 0 0 0 .6-1.7c0-.1 0-.3.2-.3s.3 0 .4.2a.8.8 0 0 1 .2.7c0 .3.2.3.4.2a3.8 3.8 0 0 0 1.7-.8 1.4 1.4 0 0 0 .6-1.2V86c0-.4.2-.5.4-.3a1.4 1.4 0 0 0 1.1.1 6.8 6.8 0 0 0 3.7-2.5 2.7 2.7 0 0 0 .6-1.9c0-.2 0-.4.3-.5h.5a1.4 1.4 0 0 1 .5 1 4.9 4.9 0 0 1-2.5 4.4 6.7 6.7 0 0 1-3.1.7.5.5 0 0 0-.5.5 1.8 1.8 0 0 1-1.1 1.5 4.6 4.6 0 0 1-2.2.6.7.7 0 0 0-.8.5 5.4 5.4 0 0 1-4.5 2.9 2.9 2.9 0 0 1-1.6-.4c-.3-.1-.5-.1-.6.2a3.2 3.2 0 0 1-2 1.6 3.7 3.7 0 0 1-3.9-.9c-.2-.2-.3-.2-.6 0a3.1 3.1 0 0 1-2.8.9 2.4 2.4 0 0 1-2-1.2.7.7 0 0 0-.6-.3 3.4 3.4 0 0 1-1.4.1 2.2 2.2 0 0 1-1.7-3.2 1.6 1.6 0 0 1 .6-.8.5.5 0 0 0 .1-.7 3 3 0 0 1-.6-2.2 2.8 2.8 0 0 1 1.5-2.3 5.9 5.9 0 0 1 1.4-.6c.4-.1.4-.1.2-.5a3 3 0 0 1 .7-3.8 2.6 2.6 0 0 1 1.3-.8l.5-.2c.2 0 .3-.1.2-.4a2.7 2.7 0 0 1 .1-2.6 4.7 4.7 0 0 1 2.6-2.2h.5c.2 0 .3-.1.2-.3s.5-3.4 2.1-3.8.4-.2.5-.5a3 3 0 0 1 3.1-2.6h.2c.2 0 .4.1.4-.2a.5.5 0 0 0-.5-.5 10.1 10.1 0 0 1-3 0 12.3 12.3 0 0 1-3.9-.8 7.8 7.8 0 0 1-4.8-5 7.7 7.7 0 0 1 .1-6.8 13.3 13.3 0 0 1 2.3-3.8c.3-.3.3-.3-.1-.5l-2.8-1.2a1.1 1.1 0 0 1-.8-.7c-1.1-1.6-2-3.3-3-5l-.4-.8a.6.6 0 0 1 .5-.9l6.3-1.2a2.1 2.1 0 0 1 1.2.3l3.3 1.7 4 2.1c.1.1.2.3.4.2s-.2-1.1-.2-1.6a13.6 13.6 0 0 1 .9-7.2c.2-.4.2-.4-.2-.7a7.8 7.8 0 0 1-3.4-6.6 6.7 6.7 0 0 1 .2-2.8 1.6 1.6 0 0 1 .3-.9c.3-.4.4-.4.8-.3l1.9.9zm-1.7 27.6c0 .1.1.2.1.3a.2.2 0 0 1 .2.2 4 4 0 0 1 .6 3.5 2.1 2.1 0 0 1-.4.6c-.2.1-.3.1-.4-.1s-.9-.5-1.4-.6-.6.1-.6.5a2.7 2.7 0 0 0 .5 1.5l.3.5a.3.3 0 0 1 0 .4c-.1.2-.3.1-.5.1h-.3a3.5 3.5 0 0 1-1.2-2.9 1.2 1.2 0 0 1 .8-1.1 1.4 1.4 0 0 1 1.1-.1 6.7 6.7 0 0 1 1.2.6c.2.1.3.1.3-.2a2.8 2.8 0 0 0-.1-.9 5.7 5.7 0 0 0-1.5-2.6 2.4 2.4 0 0 0-.9-.6l-2.2-.9c-.6-.2-.6-.2-.9.4a10.4 10.4 0 0 0-1.5 7.3 5.7 5.7 0 0 0 3.3 4.6 18 18 0 0 0 5 1.5c.4 0 .5 0 .4-.5a21.1 21.1 0 0 1-.2-2.5 21.1 21.1 0 0 1 .7-7.9c0-.2 0-.4-.3-.4l-1.9-.7zm2.6-3.1a24.4 24.4 0 0 1-.1-2.7.9.9 0 0 0-.6-.9l-8.2-4.2h-.3c-.2-.1-.2 0-.2.2a1.2 1.2 0 0 0 .7 1.2l7.8 4.4c.2.1.4.2.2.4s-.2.1-.4 0l-8.2-3.9a.9.9 0 0 0-1.2.1c-.1.1-.2.2-.1.4l.4 1c0 .3.3.5.6.7s3.4 1.4 5 2.1l4.2 1.5c.4.2.4.2.4-.3zm.3 2.6c0-.3-.1-.5-.1-.8a.9.9 0 0 0-.6-.9l-8.9-3.4a1.7 1.7 0 0 0-2 .3c-.1.1-.3.1-.3.3s.2.1.3.2h.1l9.8 4 1.4.5c.2.1.3.1.3-.2zm-10.2-9.7c0-.3-.1-.6-.1-.9s-.2-.3-.4-.3l-2.7.6c-.3 0-.4.1-.3.4a.8.8 0 0 1-.2.5c-.4.3-.4.9-.7 1.3s0 .2.1.3a17.6 17.6 0 0 0 1.4 2.3c.1.3.3.3.5.1l1-.6c.3-.1.3-.3.2-.6a3.6 3.6 0 0 1-.4-.9.7.7 0 0 1 .4-.9l.9-.8c.2-.1.4-.3.3-.5zm-4.9.1c-.1.1-.3-.1-.4.2s.4.7.5.6.2-.4.3-.6-.3-.1-.4-.2z"/><path d="M54.5 70.7a13.8 13.8 0 0 1-6.3-1.1 8.6 8.6 0 0 1-4.4-3.8 5 5 0 0 1-.8-2.6 4.2 4.2 0 0 1 1.3-3.5 2.5 2.5 0 0 1 2.2-.6 8.6 8.6 0 0 1 4.2 2.5 3.3 3.3 0 0 1 .3.6c0 .1.1.2 0 .3s-.3 0-.4 0l-.5-.4c-.7-.6-.7-.6-.9.3l-.9 4.3c-.1.6-.1.6.5.8a11 11 0 0 0 4 .8c.5.1.6 0 .5-.5a14.5 14.5 0 0 1 0-3.6 1.6 1.6 0 0 0-.2-1 .8.8 0 0 1 .2-.8l.5-.5a17.4 17.4 0 0 1 10.3-3.4 5.9 5.9 0 0 1 2.9.7 3.3 3.3 0 0 1 1.7 3.8 5.5 5.5 0 0 1-1.4 2.6 15.1 15.1 0 0 1-8 4.6 19.6 19.6 0 0 1-4.8.5zm9.1-10.1a15.1 15.1 0 0 0-3.9.7c-.3.1-.4.2-.3.6s.1.7.2 1.1a23.3 23.3 0 0 0 .8 3.8c.1.5.1.5.6.3a12.5 12.5 0 0 0 3.8-2.3 5.9 5.9 0 0 0 1.4-1.8 1.3 1.3 0 0 0-.7-2 5 5 0 0 0-1.9-.4zm-8.5 7.7h1.7a11.9 11.9 0 0 0 2.6-.5c.4-.1.4-.1.2-.5A9 9 0 0 1 59 65c-.2-.9-.3-1.9-.5-2.9s-.1-.4-.4-.2l-3.5 1.3a.6.6 0 0 0-.5.7 28.1 28.1 0 0 1-.1 2.9V68c0 .2.1.4.4.3zm-8.9-7.9a1.1 1.1 0 0 0-.8.2 2.9 2.9 0 0 0-.9 2.2 5.9 5.9 0 0 0 2.5 3.8c.2.1.3.1.4-.2a5 5 0 0 1 .2-1.2c.3-1.2.6-2.4 1-3.6s.2-.4-.1-.5a4.8 4.8 0 0 0-2.3-.7zM58.6 24a1.1 1.1 0 0 1-1.1-.1 6.3 6.3 0 0 1-2.4-1.6l-.4-.3h-.1v.3a6.4 6.4 0 0 0 2 3.7 10.5 10.5 0 0 0 5.5 2.9 23 23 0 0 0 2.6.3h.2c-.1.2-.4.2-.6.2a13.8 13.8 0 0 1-6-.7 6.9 6.9 0 0 1-4.5-4.6 6.3 6.3 0 0 1-.2-3.6.5.5 0 0 0 0-.5 11 11 0 0 1-1.2-5.9 1.4 1.4 0 0 0-.2-.6 7.7 7.7 0 0 0-2.3-2.1 25 25 0 0 0-7.5-3.2 23.8 23.8 0 0 0-3.7-.6 11.9 11.9 0 0 0-4.2.3h-.8c-.2 0-.4 0-.4-.2s0-.3.1-.4l.5-.3a16.3 16.3 0 0 1 3-.7c4-.5 7.7.7 11.2 2.6.6.3.6.3.8-.4a7.8 7.8 0 0 1 2.6-4c.5-.4.6-.3.8.2A21.9 21.9 0 0 0 54 7.8c.2.4.3.4.6 0A6.7 6.7 0 0 1 59 5.1a4.7 4.7 0 0 1 1.7-.1h.3c.2.1.5.1.4.4s-.3.2-.5.2a5.5 5.5 0 0 0-4.6 2.1 10.2 10.2 0 0 0-2.2 5.1 12.1 12.1 0 0 0 1.4 8.2 6.5 6.5 0 0 0 3 2.9zm-6.1-11.3a.4.4 0 0 0 .1-.3A13.8 13.8 0 0 1 53.8 9c.1-.2 0-.3-.1-.5a14.8 14.8 0 0 1-1.6-2.7c-.2-.4-.3-.5-.6-.1a11.3 11.3 0 0 0-1.9 3.8.8.8 0 0 0 .3.8 9.7 9.7 0 0 1 2.3 2.2z"/><path d="M35.1 8.9l1.1.2a27.5 27.5 0 0 1 9.2 5 34 34 0 0 1 2.9 2.6c.2.3.3.3.5-.1a12.2 12.2 0 0 1 1.7-2.9l.3-.5c.1-.1.2-.2.4-.1a.4.4 0 0 1 .1.3l-.3.8a23.3 23.3 0 0 0-1.4 3.3 8.9 8.9 0 0 0-.1 4.3 8.3 8.3 0 0 0 .6 2.1 6.3 6.3 0 0 0 2.1 3l1.3 1.2c.1 0 .3.1.2.3s-.2.1-.4.1l-.6-.2a11.4 11.4 0 0 1-3.2-2.6.7.7 0 0 0-.5-.4 12.9 12.9 0 0 1-4.8-2.8 15.4 15.4 0 0 1-4.1-5.7 28.8 28.8 0 0 1-1.8-4.9 2.9 2.9 0 0 1-.2-.9.5.5 0 0 0-.3-.5l-2.5-1.1H35c-.1-.1-.4-.1-.3-.4s.2-.1.4-.1zm13.5 15.6c.1-.2 0-.3 0-.4a8.6 8.6 0 0 1-.4-6.1.6.6 0 0 0-.1-.7l-1.4-1.2c-2.4-1.8-5-3.3-7.5-4.9a.4.4 0 0 0-.5-.1 28.6 28.6 0 0 0 4 8 19.1 19.1 0 0 0 5.9 5.4z"/><path d="M33.9 23.2a.9.9 0 0 0-.3-.5 2.5 2.5 0 0 1-.4-1.1c0-.2-.2-.3-.3-.4a9.5 9.5 0 0 1-2-2 8.7 8.7 0 0 1-1.9-4h-.1c-.1-1 .1-1.4 1-1.7a9.5 9.5 0 0 1 4.1-.2c.2 0 .5.1.7-.2s.2-.1.3.1v.2a15 15 0 0 0 3.1 6 17.9 17.9 0 0 0 7.3 5.5l1.7.6h.4c.1.1.2.1.2.3H47a14.3 14.3 0 0 1-8.6-4.6 14.4 14.4 0 0 1-3.7-7c-.1-.3-.2-.4-.6-.4a19.2 19.2 0 0 0-4.1.5c-.5.1-.5.1-.4.7a14.5 14.5 0 0 0 1.8 3.2 14.7 14.7 0 0 0 4.2 3.8c.2.1.5.4.7.1a.2.2 0 0 1 .3 0l.6.4a25.8 25.8 0 0 0 8.8 4.7l1.1.2.5.2a.2.2 0 0 1 .2.2.3.3 0 0 1-.3.3h-1a14.2 14.2 0 0 1-8.1-3.5l-1.5-1.4-1.8-.8-.9-.4a.6.6 0 0 0 .2.5 20 20 0 0 0 3.8 3.3l.4.2.2.3a.4.4 0 0 1-.4.2l-1.1-.4a10.6 10.6 0 0 1-3-2.6c-.1-.1-.2-.3-.4-.4zm39.7 27.1c.2 2.1-1.8 4.6-4.8 4.6a4.8 4.8 0 0 1-4.6-4.8 4.6 4.6 0 0 1 4.6-4.6c2.3 0 5 2.1 4.8 4.8zm-4.9-3.9a.5.5 0 0 0-.4.2l-.3.5a4.2 4.2 0 0 1-2.4 2.3c-.1.1-.3.2-.3.4s.2.2.3.3h.3l1.4.8a9.9 9.9 0 0 1 1.1 1.7.5.5 0 0 0 .2.4c.1.2.2.2.4.2s.2-.2.2-.3a1.3 1.3 0 0 1 .1-.6 5.3 5.3 0 0 1 2.8-2.7.5.5 0 0 1 .4-.2c.1-.2.3-.3.2-.5s-.3-.3-.5-.3h-.7a3.4 3.4 0 0 1-2.4-1.8c-.1-.2-.2-.4-.4-.4zm-29.2 2.4a4.7 4.7 0 0 1 4.9-4.7 4.3 4.3 0 0 1 4.4 4.4 4.8 4.8 0 0 1-4.8 4.9 4.5 4.5 0 0 1-4.5-4.6zm4.2 3.9c.3 0 .4-.3.4-.5a3.3 3.3 0 0 1 1.8-2.2l1.1-.3.7-.2a.5.5 0 0 0 .4-.6.4.4 0 0 0-.4-.4 2.6 2.6 0 0 1-1.6-.9 5.1 5.1 0 0 1-1.2-2.3c-.1-.2-.1-.4-.4-.4s-.3.1-.4.3a7.6 7.6 0 0 1-1.2 1.9 4 4 0 0 1-1.9 1.1c-.1 0-.4.1-.4.3a.5.5 0 0 0 .3.5l.5.2a3.2 3.2 0 0 1 1 1 6.5 6.5 0 0 1 1.1 2.2c0 .2.1.3.2.3zm2.9-19.3a6.3 6.3 0 0 1 3.3.9 5.5 5.5 0 0 1 2 3.5.8.8 0 0 1-.3.8.8.8 0 0 1-.8-.2 6.3 6.3 0 0 0-3.1-1.7 9.2 9.2 0 0 0-7.2 1.5l-.5.3a.6.6 0 0 1-.6 0 1.3 1.3 0 0 1-.1-.6 5.4 5.4 0 0 1 .7-1.3 8.7 8.7 0 0 1 4.3-2.8 6.2 6.2 0 0 1 2.3-.4zm33.7 15.8h.2a.9.9 0 0 1 .1.5c.1.3-.1.5-.4.5l-.6-.2a7.1 7.1 0 0 1-3.8-5.6 11.4 11.4 0 0 1 .4-3.7 13.8 13.8 0 0 1 1.2-3.4 11.4 11.4 0 0 0 1.3-5.7v-.3c0-.2-.1-.5.2-.5s.3.2.4.4a3.6 3.6 0 0 1 .2 1 10.3 10.3 0 0 1-.3 5.5 20.7 20.7 0 0 0-1 3.3 8.5 8.5 0 0 0 .5 6.1 5.3 5.3 0 0 0 1.6 2.1zm-7.6 39a4 4 0 0 1-3-1.1 3.3 3.3 0 0 1-1-3.1 4.7 4.7 0 0 1 5.9-3.6 3.7 3.7 0 0 1 2.2 5.2 4.5 4.5 0 0 1-4.1 2.6zm.6-6.6a3.2 3.2 0 0 0-2.7 1.3 2 2 0 0 0 .8 3.3 3.9 3.9 0 0 0 4.2-1.5 1.9 1.9 0 0 0-.8-2.8 3.3 3.3 0 0 0-1.5-.3zm-9-40.7a4.1 4.1 0 0 1-1.6-.2h-.4a.7.7 0 0 1-.3-.7.4.4 0 0 1 .4-.4h.3a10.6 10.6 0 0 0 3.9-1.3l6.2-2.6a3.3 3.3 0 0 1 1.3-.4q1.1-.2.9.9a1.9 1.9 0 0 1-.7 1.1 10.7 10.7 0 0 1-2.8 1.9 17.9 17.9 0 0 1-6.4 1.7zm-5-19.6c.1-.1 0-.2 0-.3a1.3 1.3 0 0 0 .1-.6c.1-.2.2-.4.4-.4s.3.2.3.4a8.8 8.8 0 0 0 .2 1.7 9.3 9.3 0 0 0 2.4 4.2 9.4 9.4 0 0 0 1 1l.3.2c.1.1.2.2.1.4s-.2.1-.4 0l-.4-.2a10.7 10.7 0 0 1-3.3-3.4c-.1-.3-.3-.4-.5-.6a13.1 13.1 0 0 1-3.4-5.2 11.9 11.9 0 0 1 .3-6.2 3.8 3.8 0 0 1 .9-1.3h.3c.2.1.1.3 0 .4a12.5 12.5 0 0 0-.3 1.9 18.4 18.4 0 0 0 .3 4.1 14 14 0 0 0 1.3 3.6c.1.2.1.2.4.3zm29.5 65.1a.5.5 0 0 1-.2.4l-.6.4-5.4 3.1h-.2c-.4.2-.6.2-.8-.2a41.5 41.5 0 0 1-2.4-3.4l-.6-1.1a.7.7 0 0 1 .1-1l.4-.2a23.2 23.2 0 0 1 4.1-2.2l.3-.2a1.3 1.3 0 0 1 1.4.3l2.9 2.7.8.9a.8.8 0 0 1 .2.5zm-1.1-.1l-.2-.3-2.1-2-.8-.9a.6.6 0 0 0-.6-.1l-.9.5-3.7 1.6c-.4.2-.4.2-.2.5l2.7 3.8a.2.2 0 0 0 .4.1l.4-.2c1.5-.9 3.1-1.9 4.7-2.7h.2c.1-.2.1-.2.1-.3z"/><path d="M68.1 58.4a5.1 5.1 0 0 1-2.4-.7l-1.1-.7-.5-.4a1.1 1.1 0 0 1-.3-1 .8.8 0 0 1 1-.1 11.4 11.4 0 0 0 5.8.3 6.6 6.6 0 0 0 3.1-1.3c.2-.2.4-.4.7-.3s.2.5 0 .9a7.7 7.7 0 0 1-1.8 1.8 7.8 7.8 0 0 1-4.5 1.5zM44.4 40.9a7.4 7.4 0 0 1 4.9 2.2c.2.1.3.4.4.7s-.3.6-.7.6l-.6-.3a11.4 11.4 0 0 0-4-1.1 6.4 6.4 0 0 0-4 1.1c-.3.1-.5.3-.7 0s-.2-.4-.1-.7a3.1 3.1 0 0 1 1-1.3 5.7 5.7 0 0 1 3.8-1.2zm39.8 14.8h.7c.7 0 1 .4 1 1.1a1.9 1.9 0 0 1-.3 1.3 5.5 5.5 0 0 1-1.3 1.7l-.3.2h-.4c-.1-.2-.1-.3 0-.4l.4-.6.9-1.6c.2-.5.1-.7-.5-.7h-.6a.7.7 0 0 0-.7.4 1 1 0 0 0-.4.5c-.2.1-.3.2-.5.1a.4.4 0 0 1-.2-.4.7.7 0 0 1 .1-.5 9.3 9.3 0 0 1 4.8-5.3 4.9 4.9 0 0 1 2.3-.6c.5 0 .7.1.7.3s-.3.4-.5.5a13.6 13.6 0 0 0-4.9 3.6.9.9 0 0 0-.3.4zM73.7 44.6c0 .4-.4.6-.8.4l-2.1-.6a5 5 0 0 0-3.2-.2 4.2 4.2 0 0 0-2.2 1.1l-.4.2c-.2.2-.4.3-.6.1s-.3-.4-.2-.6l.2-.5a5.9 5.9 0 0 1 5.9-2.4 7.5 7.5 0 0 1 3.1 1.8.9.9 0 0 1 .3.7zM44.4 57.4a5.7 5.7 0 0 1-4.1-1.6l-.3-.6a.5.5 0 0 1 0-.7c.3-.3.5-.2.8-.1l.9.5a7.3 7.3 0 0 0 6.7-.7h.2a.5.5 0 0 1 .7-.1.6.6 0 0 1 .1.7c0 .2-.2.4-.4.6a6.8 6.8 0 0 1-4.6 2zm21.9-36.8a3.2 3.2 0 0 1 .3-1.6l.5-.7c.3-.1.5 0 .5.3a.4.4 0 0 1-.1.3 5.3 5.3 0 0 0 .4 3.7 12.4 12.4 0 0 0 5.2 5.9l.6.5c.1.1.2.2.1.3s-.1.1-.3.1h-.6c-3.7-1.4-6-3.9-6.6-7.9z"/><path d="M76.1 29.8a3.5 3.5 0 0 1-1.4-.6 8.6 8.6 0 0 1-4-4.6 4.5 4.5 0 0 1-.4-2 .7.7 0 0 1 .1-.5q.1-.3.3 0c.1.1.1.2.1.4a7.5 7.5 0 0 0 .9 2.5 12.4 12.4 0 0 0 3.4 3.8l1.1.6c.1.1.4 0 .3.3s-.2.1-.4.1zM61.3 72.2l.2.3.4 1.3a36.7 36.7 0 0 0 2.6 6.5.4.4 0 0 1 .1.3.3.3 0 0 1-.1.2h-.2l-.4-.4a20.2 20.2 0 0 1-1.4-3 23.5 23.5 0 0 1-1.3-4.4v-.6c0-.1 0-.2.1-.2zM61 41.4a.4.4 0 0 1-.2.4.7.7 0 0 1-.6-.1 4.1 4.1 0 0 1-.5-.9 5.3 5.3 0 0 1-.3-2.8l.2-.3a.4.4 0 0 1 .7 0 .3.3 0 0 1 .1.2c.2 1.1.5 2.3.6 3.5zM37.7 14.7a1.7 1.7 0 0 1-.1.7l-.2.2a.2.2 0 0 1-.2-.2.4.4 0 0 1-.1-.3 19.1 19.1 0 0 0-1-3.4 7.8 7.8 0 0 0-1-1.5c-.1-.1-.2-.3-.1-.4a.3.3 0 0 1 .5 0 1.3 1.3 0 0 1 .7.6 7.7 7.7 0 0 1 1.5 4.3zm13.2 39.4c-.1 0-.1-.1-.1-.2l.2-.2a44.5 44.5 0 0 1 6-5.5c.1-.1.3-.4.5-.2s-.1.4-.3.6-2.8 2.4-4.1 3.7l-1.8 1.5z"/><path d="M73.8 21.5a7.2 7.2 0 0 0 .4 3.6 7.5 7.5 0 0 0 1 2c.1.2.4.4.1.6s-.4-.1-.5-.3a6.9 6.9 0 0 1-1.5-2.8 5.3 5.3 0 0 1-.1-2.5 1.9 1.9 0 0 1 .2-.8c.1-.1.1-.2.3-.2a.4.4 0 0 1 .1.3zm10.5 23.4a1.6 1.6 0 0 1-.9-.3 6.8 6.8 0 0 1-3.4-3.3 1.3 1.3 0 0 1-.3-.8.3.3 0 0 1 .1-.2h.2l.2.3a10.4 10.4 0 0 0 2.9 3 5.7 5.7 0 0 0 1.3.8c.1 0 .4 0 .3.2s-.2.3-.4.3zM53.5 75.2a4.9 4.9 0 0 1 .1-1.2c0-.1 0-.2.2-.2s.1.1.1.2v.2a49 49 0 0 0 .7 6.7c0 .2.1.4-.1.4s-.2-.2-.2-.3-.4-2.2-.6-3.2a22.8 22.8 0 0 1-.2-2.6zM53.3 54a.2.2 0 0 1-.2-.2c.1 0 .1-.1.2-.2s2.9-2.9 4.5-4.2.3-.3.5-.1-.1.3-.2.5-2.9 2.7-4.5 4zm6 19.4v-.3h.3c0 .1.1.3.1.4.4 1.6.7 3.3 1.1 4.9l.3.9c0 .1.1.2-.1.3s-.2 0-.2-.1a4.2 4.2 0 0 1-.4-1 31.3 31.3 0 0 1-1-4.4 1.5 1.5 0 0 0-.1-.7zM87 43.5c-2 .4-5.3-1.7-5.9-3.8a8.3 8.3 0 0 0 5.9 3.8zm-1.6-2.2a1.2 1.2 0 0 1-1-.2 10.7 10.7 0 0 1-4-3.9c.2.1.2.2.3.4a13.3 13.3 0 0 0 2.9 2.9l.9.6zM57.8 79.7a10.7 10.7 0 0 1-.7-5c.2 1.6.5 3.3.7 5zm-3.9-30.1a20.2 20.2 0 0 1-3.3 3.2 14.3 14.3 0 0 1 3.3-3.2zm2.6 3.2a.9.9 0 0 1 .3-.5l2-1.9h.5c.1 0 0 .1 0 .2h-.2l-2.4 2.2zm2.1-.2c-.1-.2 0-.2.1-.3l1.5-1.4c0-.1.1-.1.2-.2h.2v.3c-.1 0-.1.1-.2.2l-1.6 1.4c-.1 0-.2.1-.2 0zM82.8 87c0 .3.2.4.2.5s0 .3-.1.4h-.3l-.3-.2a7.9 7.9 0 0 1-1.4-1.8.8.8 0 0 1 .2-1 2.1 2.1 0 0 1 2.4-.4.9.9 0 0 1 .5 1.1c-.1.1-.2.2-.1.4l.7.2.5.2c.1 0 .2.2.2.3a.3.3 0 0 1-.3.3h-2.2zm.2-1.5h-.1a1.7 1.7 0 0 0-1.2 0c-.1.1-.2.1-.1.2s.5.6.6.6.8-.5.8-.8z"/><path fill="#faaa19" d="M124.2 89.4h9.3c7 0 12 4.1 12 11s-5 11.1-12 11.1h-9.3zm9.3 17.1a5.8 5.8 0 0 0 6.1-6.1c0-3.4-2-6.1-6.1-6.1h-3.6v12.2zM147 89.4h16.2v4.8h-10.5v3.6H163v4.9h-10.3v4h10.5v4.8H147zm19.6 14.7a10.1 10.1 0 0 0 7.1 2.9c1.9 0 3.1-.8 3.1-1.9s-1.4-1.8-3.7-2.3-8.8-1.6-8.8-6.8 3.2-7 8.8-7a13.6 13.6 0 0 1 9 3.1l-3.1 4.1a10.6 10.6 0 0 0-6.2-2.3c-1.9 0-2.7.8-2.7 1.7s1.4 1.6 3.8 2 8.7 1.9 8.7 6.9-3.2 7.4-9.2 7.4c-4.5 0-7.6-1.4-9.8-3.6zM184 89.4h5.7v22.1H184zm19.2-.4a10.4 10.4 0 0 1 9.4 5.1l-4.8 2.5a5.6 5.6 0 0 0-4.6-2.6 6.4 6.4 0 0 0 0 12.8 6.9 6.9 0 0 0 4.1-1.3v-1.9h-5v-4.7h10.6v8.7a12.8 12.8 0 0 1-9.7 4.3c-6.6 0-12-4.4-12-11.5s5.4-11.4 12-11.4zm16.8 9.1v13.4h-5.7V89.4h5.9l8.9 12.7V89.4h5.7v22.1h-5.5zm18.9 6a10.1 10.1 0 0 0 7.1 2.9c1.9 0 3.1-.8 3.1-1.9s-1.4-1.8-3.8-2.3-8.7-1.6-8.7-6.8 3.1-7 8.8-7a13.6 13.6 0 0 1 9 3.1l-3.1 4.1a10.6 10.6 0 0 0-6.2-2.3c-1.9 0-2.7.8-2.7 1.7s1.4 1.6 3.8 2 8.7 1.9 8.7 6.9-3.3 7.4-9.2 7.4-7.6-1.4-9.8-3.6zM133.5 19.2h-3.4v8.9h-6.9V1.7h13.3c5.8 0 9.1 3.9 9.1 8.8a8 8 0 0 1-5.2 7.9l5.4 9.7H138zm1.9-11.8h-5.3v6h5.3a3.1 3.1 0 0 0 3.3-3 3.1 3.1 0 0 0-3.3-3zm25.2-6.1c8.1 0 14.1 5.6 14.1 13.6s-6 13.7-14.1 13.7-14.1-5.6-14.1-13.7 6-13.6 14.1-13.6zm0 6c-4.4 0-7.2 3.3-7.2 7.6s2.8 7.7 7.2 7.7 7.2-3.4 7.2-7.7-2.8-7.6-7.2-7.6zm28.7-6c8.1 0 14.1 5.6 14.1 13.6s-6 13.7-14.1 13.7-14.1-5.6-14.1-13.7 6.1-13.6 14.1-13.6zm0 6c-4.4 0-7.2 3.3-7.2 7.6s2.8 7.7 7.2 7.7 7.2-3.4 7.2-7.7-2.8-7.6-7.2-7.6zm23.8 10.9l-1.8 2.2v7.7h-6.8V1.7h6.8v10.8l8.1-10.8h8.4L217.5 14l10.8 14.1H220z"/><path fill="#faaa19" d="M247.3 24.1h-11l-1.4 4h-7.4l10-26.4h8.5l10 26.4h-7.4zm-9.2-5.7h7.4l-3.7-10.8zm-79.8 33.1l-9 28a3.2 3.2 0 0 1-3.1 2.3 3.6 3.6 0 0 1-3.4-2.5l-8.7-27.8c-.1-.1-.2-.1-.2 0v30.2h-11.6V44a10.7 10.7 0 0 1 10.6-10.7h4.9a.1.1 0 0 1 .1.1l8.1 26.1c.1.1.2.1.2 0l8.2-26.1h5.2a10.3 10.3 0 0 1 10.3 10.3v38h-11.4V51.5c0-.1-.2-.2-.2 0zm42.3 22.7h-14.9l-1.8 7.6h-12.1l12.3-41.6a9.5 9.5 0 0 1 9.2-6.9 9.4 9.4 0 0 1 9 6.7l12.3 41.8h-12.1zm-12.5-10.1h10.3l-5.2-20.5zm40.1-10.2v27.9h-4.3a7.4 7.4 0 0 1-7.4-7.4v-34a7.1 7.1 0 0 1 7.1-7.1h4.9l13.9 26.6V33.3h4.9a6.9 6.9 0 0 1 6.8 6.8v34.7a7 7 0 0 1-7 7h-4.2z"/><circle cx="154.7" cy="14.7" r="8.2" fill="#faaa19"/><circle cx="183.3" cy="14.7" r="8.2" fill="#faaa19"/></symbol><symbol id="rmd-favicon-32px" viewBox="0 0 32 15.1"><path fill="#faaa19" d="M3.2 12.3H2.1v2.8H0V6.9h4.1A2.7 2.7 0 0 1 7 9.6a2.5 2.5 0 0 1-1.7 2.5l1.7 3H4.6zm.6-3.6H2.1v1.8h1.7c.6 0 1-.3 1-.9s-.4-.9-1-.9zm15.7-3l-2.8 8.7a1.2 1.2 0 0 1-1 .7 1.2 1.2 0 0 1-1.1-.8l-2.7-8.6v9.4H8.2V3.3A3.4 3.4 0 0 1 11.6 0h1.5l2.5 8.2h.1L18.3 0h1.6a3.2 3.2 0 0 1 3.2 3.2v11.9h-3.6V5.7zM24 6.8h3.5c2.6 0 4.5 1.6 4.5 4.1s-1.9 4.2-4.5 4.2H24zm3.5 6.4a2.2 2.2 0 0 0 2.3-2.3 2.1 2.1 0 0 0-2.3-2.2h-1.3v4.5z"/></symbol><symbol id="rmd-favicon-16px" viewBox="0 0 16 7.6"><path fill="#faaa19" d="M1.6 6.2h-.5v1.4H0V3.4h2.1a1.3 1.3 0 0 1 1.4 1.4A1.1 1.1 0 0 1 2.7 6l.8 1.6H2.3zm.3-1.9h-.8v1h.8a.5.5 0 0 0 .5-.5.5.5 0 0 0-.5-.5zm7.8-1.5L8.3 7.2a.4.4 0 0 1-.4.4.7.7 0 0 1-.6-.4L6 2.8h-.1v4.7H4.1V1.7A1.7 1.7 0 0 1 5.8 0h.8l1.2 4.1h.1L9.1 0h.8a1.6 1.6 0 0 1 1.6 1.6v5.9H9.8V2.8zm2.3.6h1.8A2 2 0 0 1 16 5.5a1.9 1.9 0 0 1-2.2 2H12zm1.8 3.2a1 1 0 0 0 1.1-1.1 1.1 1.1 0 0 0-1.1-1.2h-.7v2.3z"/></symbol></svg>