<svg height="143.2" viewBox="0 0 143.2 143.2" width="143.2" xmlns="http://www.w3.org/2000/svg"><circle cx="71.6" cy="71.6" fill="none" r="70.1" stroke="#6d6e71" stroke-miterlimit="10" stroke-width="3.04"/><g fill="#6d6e71"><path d="m112.2 63.6a25 25 0 0 1 -25 25c-13.8 0-21.5-9.1-21.5-22.9s7.7-27.2 21.5-27.2a25.1 25.1 0 0 1 25 25.1z"/><path d="m76.3 64.9c0 13.9-13.9 23-25.4 23s-20.9-11.2-20.9-25 9.4-24.4 20.9-25.1c14.8-.8 25.4 13.3 25.4 27.1z"/><path d="m71.7 116.8 34.5-37.1c2.7-5.2.7-9.1-4.9-9.1h-59.1c-4.9 0-7.4-1.3-6 5.6.4 1.9-1.5 1.4 1.2 5.7z"/></g></svg>