<svg xmlns="http://www.w3.org/2000/svg"><symbol id="wordmark-logo-64px" viewBox="0 0 64 52.9"><path fill="#faaa19" d="M.9 42.2h4.5c3.3 0 5.7 2 5.7 5.2s-2.4 5.3-5.7 5.3H.9zm4.5 8.2a2.9 2.9 0 0 0 2.9-3 2.7 2.7 0 0 0-2.9-2.9H3.7v5.9zm6.4-8.2h7.8v2.3h-5v1.7h4.9v2.3h-4.9v1.9h5v2.3h-7.8zm9.4 7a4.8 4.8 0 0 0 3.4 1.4c.9 0 1.5-.4 1.5-.9s-.7-.8-1.8-1.1-4.2-.8-4.2-3.3 1.5-3.3 4.2-3.3a6.3 6.3 0 0 1 4.3 1.5l-1.5 1.9a5 5 0 0 0-2.9-1.1c-1 0-1.3.4-1.3.9s.7.7 1.8.9 4.2.9 4.2 3.3-1.6 3.5-4.4 3.5a6.3 6.3 0 0 1-4.7-1.6zm8.3-7h2.7v10.5h-2.7zm9.2-.2a4.9 4.9 0 0 1 4.5 2.5l-2.3 1.2a2.6 2.6 0 0 0-2.2-1.3 3.1 3.1 0 0 0 0 6.1 3.6 3.6 0 0 0 2-.6V49h-2.4v-2.3h5.1v4.2a6.4 6.4 0 0 1-4.7 2c-3.2 0-5.7-2.1-5.7-5.4a5.4 5.4 0 0 1 5.7-5.5zm8.1 4.4v6.3H44V42.2h2.8l4.3 6.1v-6.1h2.8v10.5h-2.7zm9 2.8a4.8 4.8 0 0 0 3.4 1.4c.9 0 1.5-.4 1.5-.9s-.7-.8-1.8-1.1-4.2-.8-4.2-3.3 1.5-3.3 4.2-3.3a6.3 6.3 0 0 1 4.3 1.5l-1.5 1.9a4.8 4.8 0 0 0-2.9-1.1c-.9 0-1.3.4-1.3.9s.7.7 1.8.9 4.2.9 4.2 3.3-1.6 3.5-4.4 3.5a6.3 6.3 0 0 1-4.7-1.6zM5.4 8.6H3.7v4.2H.5V.2h6.3a4.1 4.1 0 0 1 4.4 4.2 3.9 3.9 0 0 1-2.5 3.8l2.5 4.6H7.5zM6.3 3H3.7v2.8h2.6a1.5 1.5 0 0 0 1.6-1.4A1.5 1.5 0 0 0 6.3 3zm12-3a6.4 6.4 0 0 1 6.8 6.5 6.5 6.5 0 0 1-6.8 6.6 6.4 6.4 0 0 1-6.7-6.6A6.4 6.4 0 0 1 18.3 0zm0 2.9a3.4 3.4 0 0 0-3.4 3.6 3.4 3.4 0 0 0 3.4 3.7 3.5 3.5 0 0 0 3.5-3.7 3.4 3.4 0 0 0-3.5-3.6zM32.1 0a6.4 6.4 0 0 1 6.7 6.5 6.4 6.4 0 0 1-6.7 6.6 6.5 6.5 0 0 1-6.8-6.6A6.4 6.4 0 0 1 32.1 0zm0 2.9a3.4 3.4 0 0 0-3.5 3.6 3.5 3.5 0 0 0 3.5 3.7 3.4 3.4 0 0 0 3.4-3.7 3.4 3.4 0 0 0-3.4-3.6zm11.3 5.2l-.8 1v3.7h-3.3V.2h3.3v5.2L46.5.2h4l-4.9 5.9 5.2 6.7h-4z"/><path fill="#faaa19" d="M59.8 10.9h-5.2l-.7 1.9h-3.5L55.1.2h4.1L64 12.8h-3.5zm-4.4-2.7H59L57.2 3zM17.2 24l-4.3 13.5a1.5 1.5 0 0 1-1.5 1 1.6 1.6 0 0 1-1.6-1.1L5.6 24a.1.1 0 0 0-.1.1v14.4H0V20.4a5.1 5.1 0 0 1 5.1-5.1h2.4l3.9 12.5h.1l3.9-12.5h2.5a5 5 0 0 1 4.9 5v18.2h-5.5V24.1a.1.1 0 0 0-.1-.1zm20.3 10.9h-7.1l-.9 3.6h-5.8l5.9-19.9a4.5 4.5 0 0 1 4.4-3.3 4.5 4.5 0 0 1 4.3 3.2l5.9 20h-5.8zm-6-4.8h4.9L34 20.3zm19.2-4.9v13.3h-2.1a3.5 3.5 0 0 1-3.5-3.5V18.7a3.4 3.4 0 0 1 3.4-3.4h2.3L57.5 28V15.3h2.3a3.3 3.3 0 0 1 3.3 3.3v16.6a3.3 3.3 0 0 1-3.4 3.3h-1.9z"/><circle cx="15.5" cy="6.4" r="3.9" fill="#faaa19"/><circle cx="29.2" cy="6.4" r="3.9" fill="#faaa19"/></symbol><symbol id="about" viewBox="0 0 288 288"><path fill="#231f20" d="M33.2 35.9a100.1 100.1 0 0 0 114.9 160.6l78.8 78.8a30.7 30.7 0 0 0 43.6 0 30.7 30.7 0 0 0 0-43.6l-78.1-78.1A100.1 100.1 0 0 0 33.2 35.9zm118.4 118.4a67.4 67.4 0 1 1 0-95.3 67.2 67.2 0 0 1 0 95.3z"/><circle cx="146.7" cy="75.5" r="9.3" fill="#231f20"/><circle cx="111.1" cy="71.3" r="19.8" fill="#231f20"/></symbol><symbol id="navigation" viewBox="0 0 288 288"><rect width="261.5" height="68.43" x="10.5" y="110.1" fill="#231f20" rx="34.2"/><rect width="261.5" height="68.43" x="10.5" y="21.8" fill="#231f20" rx="34.2"/><rect width="173.8" height="68.43" x="10.5" y="201.6" fill="#231f20" rx="34.2"/><rect width="68.4" height="68.43" x="197.7" y="201.6" fill="#231f20" rx="34.2"/></symbol><symbol id="homepage" viewBox="0 0 288 288"><path fill="#231f20" d="M253.3 147.9l-38.6-34.5V70.3h-27.5v18.6l-58.3-52L4.2 148.1a3 3 0 0 0 1.8 5.4h19.9v109.4a12.8 12.8 0 0 0 12.8 12.8h62.1v-52a8.7 8.7 0 0 1 8.7-8.7h39a8.5 8.5 0 0 1 8.5 8.4v52.3h60.5a14.5 14.5 0 0 0 14.4-14.5V153.5h19.6a3.1 3.1 0 0 0 1.8-5.6z"/><path fill="none" stroke="#231f20" stroke-linecap="round" stroke-miterlimit="10" stroke-width="5.81" d="M193.2 63.2v-3.4s-.1-3.9-.1-4.5a9.6 9.6 0 0 1 9.6-9.6 9.5 9.5 0 0 1 3.7.8A14.4 14.4 0 0 1 220 36h1a19.3 19.3 0 0 1-.1-2.4 19.2 19.2 0 1 1 38.3 0v.4a15.3 15.3 0 0 1 4.4 2.7 10 10 0 1 1 4.6 13.4 14.3 14.3 0 0 1-27.3 2.7h-.9a19 19 0 0 1-5.8-.9 14.3 14.3 0 0 1-23.2 9.5v1.8a5.7 5.7 0 0 1-.3 1.8"/></symbol><symbol id="instagram" viewBox="0 0 288 288"><rect width="244.6" height="244.65" x="21.7" y="21.7" fill="none" stroke="#231f20" stroke-linejoin="round" stroke-width="36.95" rx="42.4"/><circle cx="214.7" cy="72.1" r="20.9" fill="#231f20"/><circle cx="144" cy="144" r="46.1" fill="none" stroke="#231f20" stroke-linejoin="round" stroke-width="32.01"/></symbol><symbol id="x-out" viewBox="0 0 288 288"><path fill="#231f20" d="M147.1 6C59.7 6-8.6 87.7 14.6 178.9c10.7 42 54.4 85.7 96.4 96.4 91.2 23.2 172.9-45.1 172.9-132.5C283.8 68.4 221.5 6.1 147.1 6zm71.7 160.4a34.2 34.2 0 0 1 0 48.4 34.2 34.2 0 0 1-48.4 0l-15.6-15.7a11.2 11.2 0 0 0-15.7 0l-15.6 15.7a34.2 34.2 0 0 1-48.4 0 34.2 34.2 0 0 1 0-48.4L89.5 152a12.8 12.8 0 0 0 0-18.1l-14.4-14.4a34.2 34.2 0 0 1 0-48.4 34.2 34.2 0 0 1 48.4 0l13.2 13.2a14.4 14.4 0 0 0 20.5 0l13.2-13.2a34.2 34.2 0 0 1 48.4 0 34.2 34.2 0 0 1 0 48.4l-15.2 15.1a11.9 11.9 0 0 0 0 16.6z"/></symbol><symbol id="portfolio" viewBox="0 0 288 288"><rect width="102" height="49.74" x="93" y="18.6" fill="none" stroke="#231f20" stroke-linejoin="round" stroke-width="23.41" rx="12"/><path fill="#231f20" d="M270.3 55.6H17.7a14 14 0 0 0-14 14v177.3a14.1 14.1 0 0 0 14 14.1h252.6a14.1 14.1 0 0 0 14-14.1V69.6a14 14 0 0 0-14-14zM66.1 125.9a9.5 9.5 0 0 1 0-13.4l29-29a9.5 9.5 0 0 1 13.4 0l11.2 11.2-42.4 42.4zm19.2 19.2l42.4-42.4 74.7 74.8-42.3 42.3zm132.1 93.3l-43.3-11.6 36.5-36.5 11.6 43.4a3.9 3.9 0 0 1-4.8 4.7z"/></symbol><symbol id="linkedin" viewBox="0 0 288 288"><rect width="244.6" height="244.65" x="21.7" y="21.7" fill="none" stroke="#231f20" stroke-linejoin="round" stroke-width="36.95" rx="42.4"/><path fill="#231f20" d="M60.4 76.3A21.8 21.8 0 1 1 82.1 98a21.7 21.7 0 0 1-21.7-21.7zm2.4 32.5h38.7v103.8H62.8zm130.5 46.4c0-10.7-5.8-14.8-15.1-14.8s-13.3 4.5-16.5 8.2v64H123V108.8h38.7v11.8c6-6.9 17.4-14.4 35.7-14.4 24.1 0 34.6 14.6 34.6 32.7v73.7h-38.7z"/></symbol></svg>