<svg xmlns="http://www.w3.org/2000/svg"><symbol id="wave" viewBox="0 0 1899.6 1031.7"><defs><mask id="mask" width="2498.15" height="1636.37" x="-298.27" y="-304.74" maskUnits="userSpaceOnUse"><path fill="#fff" d="M.1-.8h1899.2v1034.72H.1z"/></mask></defs><path id="Layer_2" fill="#ed1943" d="M-1.5 0h1902.7v1036.35H-1.5z"/><g id="Layer_1" mask="url(#mask)"><path fill="#231f20" d="M2199.3 939.1c-101.7 18.1-158.1 175.1-271.1 142-59.2-17.4-111.8-55.1-166.1-83.3-40-20.8-91.6-49.3-135.7-24.1-59 33.8-81.6 135.1-157 140.5-49.5 3.5-104-23-149-40-53-20-105.7-42.8-160.6-57-36-9.4-69.7-13.6-99.2 12.5-24.1 21.4-39.3 50.9-57.8 76.7s-40.1 52-72.9 54.1c-35.3 2.3-66.1-28.7-88.9-51.4-31.3-31.1-60.2-70.3-99.3-92.3-36.1-20.2-66.5-5.4-97.3 17.7-55.7 41.9-102.5 95.4-153 143.1-28.8 27.1-84 90.4-129.7 73.2-20.3-7.6-34.7-30.4-45.5-47.9-15.8-25.5-28.5-52.9-42-79.6-15.9-31.4-41.7-97.3-84.4-100.8-32-2.7-61.8 36.5-79 57.4-22.3 27.2-42.5 56.1-62.8 84.8-26 37.1-51.3 75.1-80.4 110-19.9 23.7-40.9 47.5-71.4 56.2-1.2-13.3-3.2-26.5-5.2-39.7 29.8-10.4 51.1-33.1 71.4-56.3 29-33.2 54.7-69.2 81-104.4 20.4-27.3 40.9-54.7 63.1-80.6 16.2-18.8 48.6-60.5 78.7-57.2 42.2 4.6 70.1 72.8 86.6 103.7 14.5 27.2 28.2 54.9 44.7 80.8 11.3 17.7 26 41.3 46.3 49.6 45.4 18.7 101.3-48.5 129.2-75.8 50.5-49.6 97-105.1 153-149 30.3-23.7 61.3-40 97.7-19.3 38.6 22 65.8 62.3 95.8 94 22.3 23.5 52.3 54.6 88 51.8 32.6-2.6 55.7-30.1 74.3-54.1 20.2-25.9 37.4-55.2 62.5-76.8 30.1-25.7 63.5-22.5 99.8-12.8 52.6 14.2 102.4 38 152.7 58.7 44.4 18.3 96.2 43.7 145.7 40.6 78-4.9 100-112.7 161.1-147.5 43.6-24.8 96 4.2 135 25 53.7 28.7 105.6 67.3 164.5 84.7 115.6 34 169.1-128.7 273-145.3 1.6 12.7 3.1 25.4 4.2 38.1z"/><path fill="none" stroke="#231f20" stroke-miterlimit="10" stroke-width="1.1" d="M2199.3 939.1c-101.7 18.1-158.1 175.1-271.1 142-59.2-17.4-111.8-55.1-166.1-83.3-40-20.8-91.6-49.3-135.7-24.1-59 33.8-81.6 135.1-157 140.5-49.5 3.5-104-23-149-40-53-20-105.7-42.8-160.6-57-36-9.4-69.7-13.6-99.2 12.5-24.1 21.4-39.3 50.9-57.8 76.7s-40.1 52-72.9 54.1c-35.3 2.3-66.1-28.7-88.9-51.4-31.3-31.1-60.2-70.3-99.3-92.3-36.1-20.2-66.5-5.4-97.3 17.7-55.7 41.9-102.5 95.4-153 143.1-28.8 27.1-84 90.4-129.7 73.2-20.3-7.6-34.7-30.4-45.5-47.9-15.8-25.5-28.5-52.9-42-79.6-15.9-31.4-41.7-97.3-84.4-100.8-32-2.7-61.8 36.5-79 57.4-22.3 27.2-42.5 56.1-62.8 84.8-26 37.1-51.3 75.1-80.4 110-19.9 23.7-40.9 47.5-71.4 56.2-1.2-13.3-3.2-26.5-5.2-39.7 29.8-10.4 51.1-33.1 71.4-56.3 29-33.2 54.7-69.2 81-104.4 20.4-27.3 40.9-54.7 63.1-80.6 16.2-18.8 48.6-60.5 78.7-57.2 42.2 4.6 70.1 72.8 86.6 103.7 14.5 27.2 28.2 54.9 44.7 80.8 11.3 17.7 26 41.3 46.3 49.6 45.4 18.7 101.3-48.5 129.2-75.8 50.5-49.6 97-105.1 153-149 30.3-23.7 61.3-40 97.7-19.3 38.6 22 65.8 62.3 95.8 94 22.3 23.5 52.3 54.6 88 51.8 32.6-2.6 55.7-30.1 74.3-54.1 20.2-25.9 37.4-55.2 62.5-76.8 30.1-25.7 63.5-22.5 99.8-12.8 52.6 14.2 102.4 38 152.7 58.7 44.4 18.3 96.2 43.7 145.7 40.6 78-4.9 100-112.7 161.1-147.5 43.6-24.8 96 4.2 135 25 53.7 28.7 105.6 67.3 164.5 84.7 115.6 34 169.1-128.7 273-145.3 1.6 12.7 3.1 25.4 4.2 38.1z"/><path fill="#231f20" d="M2188.6 854.7c-105.3 16.8-159.7 189.1-277 153.1-58.3-17.8-109.1-57.7-161.7-87.1-38.7-21.7-90.8-51.5-134.2-25.4-37.9 22.7-61.9 68.8-88 102.8-20.8 27.1-45.2 58-81.9 60.3-46.9 3-94.8-23-135.7-42.6-45.3-21.7-90.1-46.8-138.4-61.4-36.5-11-68.5-11.9-99.3 12.4-27.4 21.6-47.9 50.9-70.8 76.9-20.6 23.4-46.2 51.6-79.5 54.2-35.6 2.7-63.6-29.1-84.5-53.5-27.5-32.2-52.2-74.5-89.4-96.8s-67.3-4-97.1 20.4c-56 45.8-102.4 103.2-152.8 154.9-26.6 27.4-84 99-129.1 79-20.9-9.2-36.4-31.7-49-49.8-18-25.9-33.3-53.6-49.4-80.6-18.3-31-49.7-99.3-92.3-104.1-29-3.3-62.2 35.3-79 52.9-22.3 23.5-43.1 48.4-63.8 73.2-41.8 50.2-88.8 124.6-153.5 147-3.6-19.4-7.5-38.9-11.4-58.3 62.7-18.7 111.3-82.5 155.1-127.6C47 1033 68 1011.2 90.5 991c18.5-16.4 51.3-49.1 79.8-45.8 44 5 79.1 70.9 100.5 102.4 18.1 26.7 35.5 54 55.4 79.4 14.2 18.1 31.2 40 53 49.1 46.7 19.4 102.6-53.8 129.5-82.5 50.2-53.6 96.4-113 152.5-160.8 28.7-24.5 60.1-44.7 95.5-21.1s56.5 67.5 81.1 100.6c18.7 25.2 44.1 58.1 79.3 55.9s63.9-31.4 87.2-54.3c26.5-26.1 51-55.3 81.5-77s62.1-24.7 98.2-11.6c42.7 15.4 80.9 42.1 119.8 65 35.3 20.9 78 48.4 120.9 45.5 38.8-2.6 65.3-40 86.5-68.6 28.8-38.6 54.5-88.4 95.4-116.1 42.8-29.1 95.2 2.6 133.3 25.2 51.3 30.6 100.6 71.8 158 90.5 55.9 18.2 96.1-17.4 134.9-53.9 42.5-40 87-99.8 147.8-110.4q4.1 26.1 8 52.2z"/><path fill="none" stroke="#231f20" stroke-miterlimit="10" stroke-width="1.1" d="M2188.6 854.7c-105.3 16.8-159.7 189.1-277 153.1-58.3-17.8-109.1-57.7-161.7-87.1-38.7-21.7-90.8-51.5-134.2-25.4-37.9 22.7-61.9 68.8-88 102.8-20.8 27.1-45.2 58-81.9 60.3-46.9 3-94.8-23-135.7-42.6-45.3-21.7-90.1-46.8-138.4-61.4-36.5-11-68.5-11.9-99.3 12.4-27.4 21.6-47.9 50.9-70.8 76.9-20.6 23.4-46.2 51.6-79.5 54.2-35.6 2.7-63.6-29.1-84.5-53.5-27.5-32.2-52.2-74.5-89.4-96.8s-67.3-4-97.1 20.4c-56 45.8-102.4 103.2-152.8 154.9-26.6 27.4-84 99-129.1 79-20.9-9.2-36.4-31.7-49-49.8-18-25.9-33.3-53.6-49.4-80.6-18.3-31-49.7-99.3-92.3-104.1-29-3.3-62.2 35.3-79 52.9-22.3 23.5-43.1 48.4-63.8 73.2-41.8 50.2-88.8 124.6-153.5 147-3.6-19.4-7.5-38.9-11.4-58.3 62.7-18.7 111.3-82.5 155.1-127.6C47 1033 68 1011.2 90.5 991c18.5-16.4 51.3-49.1 79.8-45.8 44 5 79.1 70.9 100.5 102.4 18.1 26.7 35.5 54 55.4 79.4 14.2 18.1 31.2 40 53 49.1 46.7 19.4 102.6-53.8 129.5-82.5 50.2-53.6 96.4-113 152.5-160.8 28.7-24.5 60.1-44.7 95.5-21.1s56.5 67.5 81.1 100.6c18.7 25.2 44.1 58.1 79.3 55.9s63.9-31.4 87.2-54.3c26.5-26.1 51-55.3 81.5-77s62.1-24.7 98.2-11.6c42.7 15.4 80.9 42.1 119.8 65 35.3 20.9 78 48.4 120.9 45.5 38.8-2.6 65.3-40 86.5-68.6 28.8-38.6 54.5-88.4 95.4-116.1 42.8-29.1 95.2 2.6 133.3 25.2 51.3 30.6 100.6 71.8 158 90.5 55.9 18.2 96.1-17.4 134.9-53.9 42.5-40 87-99.8 147.8-110.4q4.1 26.1 8 52.2z"/><path fill="#231f20" d="M2171.6 746.9c-62.9 12.4-108.9 76.7-152.3 119.1-38.4 37.4-80.1 78.3-137 58.3s-103.8-62.5-153.6-94.2c-38.6-24.6-89.2-56.8-132.5-24.9s-72.3 87.7-103.9 131.4c-21.5 29.7-51 75.7-91.9 78.5-38.6 2.5-74.8-26.9-103.4-49-31.5-24.3-62-52.6-98.5-69.2-75.5-34.3-138.6 43.6-190.4 87.8-26.2 22.4-59.7 52.8-96.4 54.4-34.7 1.5-56.9-33-73-58.7-21.3-34.2-38.6-80-71.7-105.1s-66-2.8-93.5 21.6c-56.1 49.6-101.9 110.9-152 166.3-27.4 30.5-81.5 104.2-130.1 86-23-8.6-41.8-29.8-57.8-47.6-22.1-24.6-41.8-51.3-62.2-77.3-25-32-64.3-94.9-110.2-99.5-28.3-2.9-59.9 22-80.7 37.1-22.7 16.5-44.1 34.6-65.6 52.7-45.9 38.7-96.3 91.4-157 104.9-4.5-21.3-8.9-42.6-13.4-63.9 58.5-8.2 110.2-49.3 158.3-80.8 39.1-25.7 97-73.8 147.8-70.1 47.8 3.4 90.4 61.4 119.5 93.6 22.7 25.3 44.8 51.2 69 75 18.9 18.7 42 41.7 68.5 48.8 48 13 96.4-55 123.6-85.8 50.4-57.1 95.7-119.7 151.3-172.1 29.2-27.5 65.4-56 99.9-20.7 27.8 28.5 40.1 71.4 57.9 106.2 12.7 24.9 30.5 58.4 62 60.5 39 2.6 81.4-33.2 110.1-54.7 49.6-37.2 131.9-126.4 200.4-87.4 32.1 18.3 55.3 50.9 80.3 77.3 21 22.2 51.1 53.9 85.2 49.1 40.4-5.7 71.1-55.3 92.1-85 34.9-49.1 65.2-109 112.1-147.9 44-36.5 88.6-8.9 129.9 18.6 50.3 33.6 97.8 80.7 155.3 101.7s101-26.5 138.4-64.2c44.1-44.6 91.5-113 156.3-127.2 3.1 18.8 6.1 37.6 9.2 56.4z"/><path fill="none" stroke="#231f20" stroke-miterlimit="10" stroke-width="1.1" d="M2171.6 746.9c-62.9 12.4-108.9 76.7-152.3 119.1-38.4 37.4-80.1 78.3-137 58.3s-103.8-62.5-153.6-94.2c-38.6-24.6-89.2-56.8-132.5-24.9s-72.3 87.7-103.9 131.4c-21.5 29.7-51 75.7-91.9 78.5-38.6 2.5-74.8-26.9-103.4-49-31.5-24.3-62-52.6-98.5-69.2-75.5-34.3-138.6 43.6-190.4 87.8-26.2 22.4-59.7 52.8-96.4 54.4-34.7 1.5-56.9-33-73-58.7-21.3-34.2-38.6-80-71.7-105.1s-66-2.8-93.5 21.6c-56.1 49.6-101.9 110.9-152 166.3-27.4 30.5-81.5 104.2-130.1 86-23-8.6-41.8-29.8-57.8-47.6-22.1-24.6-41.8-51.3-62.2-77.3-25-32-64.3-94.9-110.2-99.5-28.3-2.9-59.9 22-80.7 37.1-22.7 16.5-44.1 34.6-65.6 52.7-45.9 38.7-96.3 91.4-157 104.9-4.5-21.3-8.9-42.6-13.4-63.9 58.5-8.2 110.2-49.3 158.3-80.8 39.1-25.7 97-73.8 147.8-70.1 47.8 3.4 90.4 61.4 119.5 93.6 22.7 25.3 44.8 51.2 69 75 18.9 18.7 42 41.7 68.5 48.8 48 13 96.4-55 123.6-85.8 50.4-57.1 95.7-119.7 151.3-172.1 29.2-27.5 65.4-56 99.9-20.7 27.8 28.5 40.1 71.4 57.9 106.2 12.7 24.9 30.5 58.4 62 60.5 39 2.6 81.4-33.2 110.1-54.7 49.6-37.2 131.9-126.4 200.4-87.4 32.1 18.3 55.3 50.9 80.3 77.3 21 22.2 51.1 53.9 85.2 49.1 40.4-5.7 71.1-55.3 92.1-85 34.9-49.1 65.2-109 112.1-147.9 44-36.5 88.6-8.9 129.9 18.6 50.3 33.6 97.8 80.7 155.3 101.7s101-26.5 138.4-64.2c44.1-44.6 91.5-113 156.3-127.2 3.1 18.8 6.1 37.6 9.2 56.4z"/><path fill="#231f20" d="M2153.6 635.6c-66.8 16-115.6 88.7-160.7 135.6-36.9 38.2-82.3 91.3-140.4 68.5-56.5-22.1-102.2-70.7-151-105.5-42.1-30-84.5-57-129.2-17.9-50.1 43.9-82.9 108.8-120.4 162.8-21.4 30.7-55.1 88.4-97.3 94.2-62.5 8.7-87.3-103.5-127.6-133.7-29.5-22.1-64.5-6.1-93.5 9.3-41.3 22.1-78.7 51.1-117.5 77.3-30.7 20.7-78.6 58.4-118.9 54.7-31.1-2.8-45.8-38.1-56.2-63.2-14.8-35.9-23.5-80-49.1-110.3-32-37.9-69.6-6.3-97.4 20.6-55.6 53.8-100.6 118-150.9 176.6-27.7 32.3-74.3 100-123.9 88.4-27.7-6.5-52.8-28.5-73.6-46.7-26.2-23-50.6-48.1-75.6-72.5-33.1-32.4-78.7-86.5-128.8-89.9s-106 29.9-149.6 51c-50.4 24.3-103.2 54.7-160.1 58.8q-5.6-28.2-10.8-56.5c55.7-2 109.4-23.3 161.6-40.9 46.7-15.8 100.5-38.6 151-35.5s100 54.6 136.4 86.6c26.9 23.7 53.2 48.1 81.3 70.4 22.3 17.7 48.9 38.9 77.6 44.9 50.8 10.5 96-56.7 124.1-90.2 50.1-59.8 94.8-125.4 150.5-180.4 26.5-26.2 65.7-60.2 95.7-20.2 23.7 31.7 29.2 77 41.5 113.8 8.4 25.1 20.6 62 51.5 65.3 41.3 4.5 93.6-34.7 126-54.8 42.2-26.2 83.1-55.2 127.6-77.4 27.1-13.5 66.6-33.8 92.7-8.7 31.8 30.7 36.1 147.9 96.1 139.9 43.6-5.8 79.8-70.1 101.4-101.5 39.9-58.2 74.7-127.5 127.4-175.5 18.4-16.6 36.1-27.3 60.9-20.9s47.5 23.3 67.8 38.5c47.5 35.7 91.6 85.8 147.3 108.7 58.7 24.2 105.7-33.5 142-72.1 45.8-48.5 96-125.4 164.5-142.5 2.4 17 5 33.9 7.6 50.9z"/><path fill="none" stroke="#231f20" stroke-miterlimit="10" stroke-width="1.1" d="M2153.6 635.6c-66.8 16-115.6 88.7-160.7 135.6-36.9 38.2-82.3 91.3-140.4 68.5-56.5-22.1-102.2-70.7-151-105.5-42.1-30-84.5-57-129.2-17.9-50.1 43.9-82.9 108.8-120.4 162.8-21.4 30.7-55.1 88.4-97.3 94.2-62.5 8.7-87.3-103.5-127.6-133.7-29.5-22.1-64.5-6.1-93.5 9.3-41.3 22.1-78.7 51.1-117.5 77.3-30.7 20.7-78.6 58.4-118.9 54.7-31.1-2.8-45.8-38.1-56.2-63.2-14.8-35.9-23.5-80-49.1-110.3-32-37.9-69.6-6.3-97.4 20.6-55.6 53.8-100.6 118-150.9 176.6-27.7 32.3-74.3 100-123.9 88.4-27.7-6.5-52.8-28.5-73.6-46.7-26.2-23-50.6-48.1-75.6-72.5-33.1-32.4-78.7-86.5-128.8-89.9s-106 29.9-149.6 51c-50.4 24.3-103.2 54.7-160.1 58.8q-5.6-28.2-10.8-56.5c55.7-2 109.4-23.3 161.6-40.9 46.7-15.8 100.5-38.6 151-35.5s100 54.6 136.4 86.6c26.9 23.7 53.2 48.1 81.3 70.4 22.3 17.7 48.9 38.9 77.6 44.9 50.8 10.5 96-56.7 124.1-90.2 50.1-59.8 94.8-125.4 150.5-180.4 26.5-26.2 65.7-60.2 95.7-20.2 23.7 31.7 29.2 77 41.5 113.8 8.4 25.1 20.6 62 51.5 65.3 41.3 4.5 93.6-34.7 126-54.8 42.2-26.2 83.1-55.2 127.6-77.4 27.1-13.5 66.6-33.8 92.7-8.7 31.8 30.7 36.1 147.9 96.1 139.9 43.6-5.8 79.8-70.1 101.4-101.5 39.9-58.2 74.7-127.5 127.4-175.5 18.4-16.6 36.1-27.3 60.9-20.9s47.5 23.3 67.8 38.5c47.5 35.7 91.6 85.8 147.3 108.7 58.7 24.2 105.7-33.5 142-72.1 45.8-48.5 96-125.4 164.5-142.5 2.4 17 5 33.9 7.6 50.9z"/><path fill="#231f20" d="M2140 540.4c-34.1 8.4-59.7 32.5-83.9 56.8-28.9 28.9-55.1 60.3-82.9 90.3-36.1 38.9-84 99.3-143.1 74.3-55.3-23.4-98.2-74.6-144.7-111-19.9-15.6-42-32.8-66.9-39.3s-42.9 4.5-61.2 21.4c-54.8 50.7-91 123.4-132.5 184.5-21.9 32.2-59 99.9-103.8 105.9-61.1 8.1-47.8-113-75-144.1-23.6-26.9-66.9-3.8-92.6 8.4-46.8 22.5-90.3 51.3-135 77.6-24.5 14.3-49.2 28.6-75.2 40-16 6.9-37.3 16.8-55.1 14.9-31.2-3.4-41.5-41.3-48.6-66.7C829 816 826 769.7 803.4 737.1c-28.6-41.3-69.3-5.8-95 19.9-55.8 55.8-100.2 122.4-150.3 183.1-28.1 34.2-72.4 101.1-123.9 91-29.1-5.7-56.7-26.5-79.9-43.7-29.5-21.7-57.3-45.6-85.6-68.7-38-31.1-88.8-81.9-141.1-84.5-50-2.4-103.8 14.6-151.8 25.7-53.5 12.3-107.5 26.7-162.6 29.3-1.8-12.1-3.1-24.2-4.1-36.4 54.9-4.8 109.1-16.3 163.1-26.6 48-9.1 102.6-25.6 152-23.4 51.8 2.2 104.1 53.6 142.2 83.8 28.9 22.8 57.3 46.3 87.1 67.8 23.6 17 51.3 37.5 80.4 43.5 51.3 10.5 95.8-57 123.7-90.9 49.8-60.8 94-127.4 149.6-183.2 25.5-25.5 67.1-61.7 95.4-20.3 22.5 32.9 24.6 79.9 34.4 117.5 6.8 25.6 16.6 63.7 48.2 66.9 17.7 1.8 38.8-8 54.7-14.9 26.4-11.4 51.4-25.7 76.3-40.1 45.5-26.3 90-55.2 137.6-77.9 25.3-12 70.1-35.6 93.2-8.3 27.1 31.9 4.2 153.5 68.7 144.9 45.4-6 81.9-73.7 104.2-106.5 41.9-62 78.1-136.1 133.6-187.5 18.2-16.8 36.3-27.5 61.2-21.2s47.1 23.8 66.7 39.5c46.1 36.8 88.6 89.3 143.9 112.6 59.5 24.9 107.4-36.1 143.4-75.1 28.2-30.5 54.9-62.4 84.2-91.9 24-24.2 49.6-48.9 83.7-56.7.7 11.9 2 23.8 3.4 35.6z"/><path fill="none" stroke="#231f20" stroke-miterlimit="10" stroke-width="1.1" d="M2140 540.4c-34.1 8.4-59.7 32.5-83.9 56.8-28.9 28.9-55.1 60.3-82.9 90.3-36.1 38.9-84 99.3-143.1 74.3-55.3-23.4-98.2-74.6-144.7-111-19.9-15.6-42-32.8-66.9-39.3s-42.9 4.5-61.2 21.4c-54.8 50.7-91 123.4-132.5 184.5-21.9 32.2-59 99.9-103.8 105.9-61.1 8.1-47.8-113-75-144.1-23.6-26.9-66.9-3.8-92.6 8.4-46.8 22.5-90.3 51.3-135 77.6-24.5 14.3-49.2 28.6-75.2 40-16 6.9-37.3 16.8-55.1 14.9-31.2-3.4-41.5-41.3-48.6-66.7C829 816 826 769.7 803.4 737.1c-28.6-41.3-69.3-5.8-95 19.9-55.8 55.8-100.2 122.4-150.3 183.1-28.1 34.2-72.4 101.1-123.9 91-29.1-5.7-56.7-26.5-79.9-43.7-29.5-21.7-57.3-45.6-85.6-68.7-38-31.1-88.8-81.9-141.1-84.5-50-2.4-103.8 14.6-151.8 25.7-53.5 12.3-107.5 26.7-162.6 29.3-1.8-12.1-3.1-24.2-4.1-36.4 54.9-4.8 109.1-16.3 163.1-26.6 48-9.1 102.6-25.6 152-23.4 51.8 2.2 104.1 53.6 142.2 83.8 28.9 22.8 57.3 46.3 87.1 67.8 23.6 17 51.3 37.5 80.4 43.5 51.3 10.5 95.8-57 123.7-90.9 49.8-60.8 94-127.4 149.6-183.2 25.5-25.5 67.1-61.7 95.4-20.3 22.5 32.9 24.6 79.9 34.4 117.5 6.8 25.6 16.6 63.7 48.2 66.9 17.7 1.8 38.8-8 54.7-14.9 26.4-11.4 51.4-25.7 76.3-40.1 45.5-26.3 90-55.2 137.6-77.9 25.3-12 70.1-35.6 93.2-8.3 27.1 31.9 4.2 153.5 68.7 144.9 45.4-6 81.9-73.7 104.2-106.5 41.9-62 78.1-136.1 133.6-187.5 18.2-16.8 36.3-27.5 61.2-21.2s47.1 23.8 66.7 39.5c46.1 36.8 88.6 89.3 143.9 112.6 59.5 24.9 107.4-36.1 143.4-75.1 28.2-30.5 54.9-62.4 84.2-91.9 24-24.2 49.6-48.9 83.7-56.7.7 11.9 2 23.8 3.4 35.6z"/><path fill="#231f20" d="M2137.5 474.3c-34.2 7.5-60.2 32.8-84.4 56.7-30.3 30-58.3 62.4-87.5 93.5-37.8 40.3-89.4 105.4-151 75.2-55.8-27.3-97.3-80.4-144.9-118.9-42.6-34.5-83.4-56.2-127.4-12.5-49.9 49.4-82.8 116.4-120.7 174.7-17.7 27.4-36 55.3-58.5 79-12.8 13.5-28.7 29-48.1 30.6-61.2 5.1-43.2-103.7-68.3-136.3-23.4-30.2-69.1-6.8-95.5 6.2-46.3 22.9-89.1 52.6-133.1 79.5-34.8 21.3-81.6 55.8-124.4 55.8-36.5 0-48-43.2-56.3-71.7-10.7-36.9-15.3-84.4-39.4-115.8-28.1-36.5-66.3-2.9-90.8 20.4-57 54.4-101.7 121.2-152.6 181.1-24.8 29.1-70 93-115.6 85.1-31.3-5.5-61-27.6-86-45.6s-51-39-76.2-58.9c-39.5-31-93.7-84.1-147.7-86.7-51-2.4-106.9 16.3-155.9 27.5-55 12.7-110.6 27.7-167.1 31.2-1.2-10.3-1.9-15-3.2-23.8 60.2-4.2 119.1-24.4 176.9-40.6 50.8-14.3 110.6-38.2 164.4-35.8s104.9 52.3 143.7 82.4c44.6 34.6 98.9 89.5 157.3 99.2 44.2 7.4 88.1-50.8 113.2-78.9 49-55.1 92.2-117 147-166.6 26-23.5 62.3-52.7 91-17.9 25.9 31.4 33.4 79 46.5 116.4 10 28.6 24 72.3 60.8 72.1 42.1-.1 87.2-35.6 120.4-57.8 41.9-28.1 82.4-59 127.1-82.7 26.1-13.9 69.9-36.5 94.6-8.1 27.5 31.5 13.2 130.8 73.7 125.5 45.9-4 79.6-71.1 100.6-105.2 34.5-55.8 63.9-120.4 110.6-167.4 44-44.3 85.9-18.7 127.1 16.2 48.3 41.1 90.2 97.2 147.3 126.8 62.2 32.3 117.3-37 156.1-77.1 31.1-32.1 61-65.4 93.2-96.4 25.3-24.4 52.5-50.7 87.6-58.5a205.5 205.5 0 0 0-4.5 28.1z"/><path fill="none" stroke="#231f20" stroke-miterlimit="10" stroke-width="1.1" d="M2137.5 474.3c-34.2 7.5-60.2 32.8-84.4 56.7-30.3 30-58.3 62.4-87.5 93.5-37.8 40.3-89.4 105.4-151 75.2-55.8-27.3-97.3-80.4-144.9-118.9-42.6-34.5-83.4-56.2-127.4-12.5-49.9 49.4-82.8 116.4-120.7 174.7-17.7 27.4-36 55.3-58.5 79-12.8 13.5-28.7 29-48.1 30.6-61.2 5.1-43.2-103.7-68.3-136.3-23.4-30.2-69.1-6.8-95.5 6.2-46.3 22.9-89.1 52.6-133.1 79.5-34.8 21.3-81.6 55.8-124.4 55.8-36.5 0-48-43.2-56.3-71.7-10.7-36.9-15.3-84.4-39.4-115.8-28.1-36.5-66.3-2.9-90.8 20.4-57 54.4-101.7 121.2-152.6 181.1-24.8 29.1-70 93-115.6 85.1-31.3-5.5-61-27.6-86-45.6s-51-39-76.2-58.9c-39.5-31-93.7-84.1-147.7-86.7-51-2.4-106.9 16.3-155.9 27.5-55 12.7-110.6 27.7-167.1 31.2-1.2-10.3-1.9-15-3.2-23.8 60.2-4.2 119.1-24.4 176.9-40.6 50.8-14.3 110.6-38.2 164.4-35.8s104.9 52.3 143.7 82.4c44.6 34.6 98.9 89.5 157.3 99.2 44.2 7.4 88.1-50.8 113.2-78.9 49-55.1 92.2-117 147-166.6 26-23.5 62.3-52.7 91-17.9 25.9 31.4 33.4 79 46.5 116.4 10 28.6 24 72.3 60.8 72.1 42.1-.1 87.2-35.6 120.4-57.8 41.9-28.1 82.4-59 127.1-82.7 26.1-13.9 69.9-36.5 94.6-8.1 27.5 31.5 13.2 130.8 73.7 125.5 45.9-4 79.6-71.1 100.6-105.2 34.5-55.8 63.9-120.4 110.6-167.4 44-44.3 85.9-18.7 127.1 16.2 48.3 41.1 90.2 97.2 147.3 126.8 62.2 32.3 117.3-37 156.1-77.1 31.1-32.1 61-65.4 93.2-96.4 25.3-24.4 52.5-50.7 87.6-58.5a205.5 205.5 0 0 0-4.5 28.1z"/><path fill="#231f20" d="M2149.1 419.8c-36.4 8.4-65.1 35.6-91.8 60.5-37.5 34.9-72.1 72.8-108.7 108.6-39 38.1-94.1 104.8-154.1 72.2-58.5-31.8-100.9-91.4-149.5-135.5-36.9-33.5-82.5-69.2-126-26.3s-68.2 104.2-97.6 156c-19.1 33.5-50.9 101.6-96.8 104.1-60.4 3.3-46.6-86.6-81.6-114.6-27-21.6-66.1-.6-90.9 14.1-42.2 24.9-79.8 57.1-119 86.3-30.5 22.8-77.4 63.8-118.9 61.2-32.5-2.1-48.7-39.8-59.9-65.4-17.8-40.5-28.6-95.2-60.9-127.3-28.5-28.3-60.5-7.6-86.4 13.8-52.1 43-93.2 98.4-139.3 147.1-27 28.5-70.1 81.6-115.3 73.5-53.2-9.5-102-56.2-143.1-87.7-39.3-30-92-80.3-144.9-80.8-27.9-.3-56.7 9.8-82.9 17.5-31.2 9.2-62.1 19.6-93 30-61.3 20.6-124.1 46.3-188.8 52.9-1.3-7.8-2-11.5-3.3-19 69.8-9.9 137-41.4 202.3-66.7 36.7-14.1 73.5-28.5 110.8-41.1 24.9-8.4 51.8-18.9 78.3-19.7 50.2-1.7 99.8 44.1 137.3 72.1 39.9 29.7 85.7 72.7 136.3 81.7 45.7 8.1 87-37 116.2-65.6 41.4-40.5 79-86.3 125.1-121.7 30.9-23.6 65.1-39.3 95.2-6.3s44.4 79.2 64.1 118.2c14.6 29 35.6 72.7 74 70.5s78.9-40.2 107.6-64.3c36.2-30.5 70.6-64 110.1-90.2 25.2-16.7 63-37.5 91.8-16.5 35.6 26 30.5 105.7 90.5 96.8 41-6.2 65.3-61.3 81.9-93.2 25.8-49.6 46.3-111.7 87.6-151.3 43.2-41.6 92.2 5.3 125.1 37.2 49 47.5 92 110.9 152.1 145.1s121.7-38.5 161.5-76.3 76.5-76.3 116.6-112.5c28.4-25.6 58.8-53.7 96.8-62.9-3.5 10.1-5.3 15.2-8.5 25.5z"/><path fill="none" stroke="#231f20" stroke-miterlimit="10" stroke-width="1.1" d="M2149.1 419.8c-36.4 8.4-65.1 35.6-91.8 60.5-37.5 34.9-72.1 72.8-108.7 108.6-39 38.1-94.1 104.8-154.1 72.2-58.5-31.8-100.9-91.4-149.5-135.5-36.9-33.5-82.5-69.2-126-26.3s-68.2 104.2-97.6 156c-19.1 33.5-50.9 101.6-96.8 104.1-60.4 3.3-46.6-86.6-81.6-114.6-27-21.6-66.1-.6-90.9 14.1-42.2 24.9-79.8 57.1-119 86.3-30.5 22.8-77.4 63.8-118.9 61.2-32.5-2.1-48.7-39.8-59.9-65.4-17.8-40.5-28.6-95.2-60.9-127.3-28.5-28.3-60.5-7.6-86.4 13.8-52.1 43-93.2 98.4-139.3 147.1-27 28.5-70.1 81.6-115.3 73.5-53.2-9.5-102-56.2-143.1-87.7-39.3-30-92-80.3-144.9-80.8-27.9-.3-56.7 9.8-82.9 17.5-31.2 9.2-62.1 19.6-93 30-61.3 20.6-124.1 46.3-188.8 52.9-1.3-7.8-2-11.5-3.3-19 69.8-9.9 137-41.4 202.3-66.7 36.7-14.1 73.5-28.5 110.8-41.1 24.9-8.4 51.8-18.9 78.3-19.7 50.2-1.7 99.8 44.1 137.3 72.1 39.9 29.7 85.7 72.7 136.3 81.7 45.7 8.1 87-37 116.2-65.6 41.4-40.5 79-86.3 125.1-121.7 30.9-23.6 65.1-39.3 95.2-6.3s44.4 79.2 64.1 118.2c14.6 29 35.6 72.7 74 70.5s78.9-40.2 107.6-64.3c36.2-30.5 70.6-64 110.1-90.2 25.2-16.7 63-37.5 91.8-16.5 35.6 26 30.5 105.7 90.5 96.8 41-6.2 65.3-61.3 81.9-93.2 25.8-49.6 46.3-111.7 87.6-151.3 43.2-41.6 92.2 5.3 125.1 37.2 49 47.5 92 110.9 152.1 145.1s121.7-38.5 161.5-76.3 76.5-76.3 116.6-112.5c28.4-25.6 58.8-53.7 96.8-62.9-3.5 10.1-5.3 15.2-8.5 25.5z"/><path fill="#231f20" d="M2166.2 368.9c-39.6 9.9-71.6 39-101.7 65.3-42.8 37.5-82.7 78-124.5 116.4s-107.8 117.4-169.2 80.7-105.2-103.9-154.6-154.6c-29.4-30.2-81.6-87.8-124.8-48.3-39.4 36-54.6 98.8-76.3 145.8-14.3 31.1-33.5 78.2-72.3 82.7-58.4 6.8-56.9-58.7-97.3-80.8-30.7-16.9-65.1 1.9-89.9 20.6-36.9 27.7-68.2 62.5-101.4 94.3-25.9 24.7-65.6 68.6-105.3 68.2-36.6-.5-60.1-43-76.1-70.1-23.9-40.6-42.5-90.6-77.6-123.2-28.9-27-60.4-17.6-90.8 2.2-45.5 29.5-82.3 71.2-123.1 106.6-30.1 26.1-67.5 59.1-110.5 51.5-48-8.4-91.1-47.7-129.3-75.4-35.5-25.8-82.6-67.1-129.8-63.6-28.5 2.2-57.1 14.9-83.6 25.1-40.2 15.3-79.7 32.5-119.2 49.4-69.5 29.9-140.9 67-215.9 80.6-1.3-7.7-1.9-11.6-3.2-20.1 79.5-16.6 154.7-58.9 227.9-92.9 42-19.5 84-39.3 126.8-57.2 28.8-12 62.4-29 94-30 43.2-1.3 84.4 32.7 117.7 56.1 37.4 26.4 80.6 65.1 127.9 70.2 38.4 4.1 71.3-18.2 100.5-40.3 40.1-30.2 76.5-67.4 120.9-91.6 29.1-15.9 58.9-21.1 86.2 1 40.2 32.4 63 85.8 90.9 128 18 27.2 44.5 70 81.9 69 39.6-1.1 74.7-44.6 99.1-71.1 31.8-34.5 61.2-72.6 98-101.9 23.5-18.7 53.7-32.8 83.6-20.6 42.3 17.2 48.4 72.9 103.4 66.7 39.1-4.5 54.5-48.4 66.9-80.4 15.8-41 26.1-91.6 55.3-125.9 43.2-50.6 102.8 18.8 132.3 50.8 49.5 53.4 93.8 124.2 156.8 163.1 25.6 15.7 45.1 12.6 71.1-1.9 38.8-21.7 72.2-53.6 105-83.2 44.2-39.7 86.6-81.3 131.7-119.9 31.6-27 65.1-56.8 106.1-67.4-2.7 10.7-4.3 15.9-7.6 26.1z"/><path fill="none" stroke="#231f20" stroke-miterlimit="10" stroke-width="1.1" d="M2166.2 368.9c-39.6 9.9-71.6 39-101.7 65.3-42.8 37.5-82.7 78-124.5 116.4s-107.8 117.4-169.2 80.7-105.2-103.9-154.6-154.6c-29.4-30.2-81.6-87.8-124.8-48.3-39.4 36-54.6 98.8-76.3 145.8-14.3 31.1-33.5 78.2-72.3 82.7-58.4 6.8-56.9-58.7-97.3-80.8-30.7-16.9-65.1 1.9-89.9 20.6-36.9 27.7-68.2 62.5-101.4 94.3-25.9 24.7-65.6 68.6-105.3 68.2-36.6-.5-60.1-43-76.1-70.1-23.9-40.6-42.5-90.6-77.6-123.2-28.9-27-60.4-17.6-90.8 2.2-45.5 29.5-82.3 71.2-123.1 106.6-30.1 26.1-67.5 59.1-110.5 51.5-48-8.4-91.1-47.7-129.3-75.4-35.5-25.8-82.6-67.1-129.8-63.6-28.5 2.2-57.1 14.9-83.6 25.1-40.2 15.3-79.7 32.5-119.2 49.4-69.5 29.9-140.9 67-215.9 80.6-1.3-7.7-1.9-11.6-3.2-20.1 79.5-16.6 154.7-58.9 227.9-92.9 42-19.5 84-39.3 126.8-57.2 28.8-12 62.4-29 94-30 43.2-1.3 84.4 32.7 117.7 56.1 37.4 26.4 80.6 65.1 127.9 70.2 38.4 4.1 71.3-18.2 100.5-40.3 40.1-30.2 76.5-67.4 120.9-91.6 29.1-15.9 58.9-21.1 86.2 1 40.2 32.4 63 85.8 90.9 128 18 27.2 44.5 70 81.9 69 39.6-1.1 74.7-44.6 99.1-71.1 31.8-34.5 61.2-72.6 98-101.9 23.5-18.7 53.7-32.8 83.6-20.6 42.3 17.2 48.4 72.9 103.4 66.7 39.1-4.5 54.5-48.4 66.9-80.4 15.8-41 26.1-91.6 55.3-125.9 43.2-50.6 102.8 18.8 132.3 50.8 49.5 53.4 93.8 124.2 156.8 163.1 25.6 15.7 45.1 12.6 71.1-1.9 38.8-21.7 72.2-53.6 105-83.2 44.2-39.7 86.6-81.3 131.7-119.9 31.6-27 65.1-56.8 106.1-67.4-2.7 10.7-4.3 15.9-7.6 26.1z"/><path fill="#231f20" d="M2179.1 315.2c-41.9 10.9-76.5 41.4-109 68.8-47.1 39.5-91.6 82-137.5 122.7-34.4 30.4-69.4 63.1-109.5 85.9-26.2 14.9-45.9 19.5-71.9 3.2-33.1-20.6-59.8-53.6-84.8-82.8-27-31.4-52.7-63.9-80.7-94.5-26.3-28.8-84.9-98.6-125.7-52.1-26.6 30.3-33.2 79.2-45 116.4-9.6 30.5-21.8 72.5-58.2 78.5-25.3 4.1-47.2-4.2-66-20.6-13.9-12.2-25.7-26.6-43.7-33-77.3-27.9-136.8 79-176.6 126.9-22.4 26.9-55.2 71.7-94.1 73.9s-71.1-47-90.6-74.5c-28.2-39.8-52.6-86.1-89.5-118.8-29.5-26.2-61.5-23.9-95.4-7.4C635.5 539.5 573 621.6 494.5 616c-47.3-3.4-90.2-40.6-127.6-66.1-32-21.9-71.5-52.4-112.6-50.1-33.1 1.8-67.8 20.4-97.6 33.7-45 19.9-89.1 41.9-133.2 63.5-75.7 37.2-153.9 84.1-236.9 102.3-1.3-9.9-1.9-15.2-3.1-27.1 85.1-17.6 164.9-68.5 241.5-107.4 45.5-23.1 91-46.5 137.4-67.8 31.4-14.5 69.4-36 104.8-35.8 37.8.3 74 26.7 104.1 46.7 36.5 24.4 78.1 59.5 123.8 63.5 74.5 6.5 137.3-64.4 200.5-92.8 33.2-15 65.1-20.3 95.1 4.1 42.6 34.6 70.5 86.5 103.4 129.5 19.3 25 48.1 65.5 83.5 67.1 40.9 1.9 74.2-46.9 95.9-75.1 39.3-51.3 89.1-150.9 168.2-130.7 44.6 11.4 67.2 58.4 119.7 47.1 31-6.6 41.6-39.8 49.3-66.8 10.7-37.5 13.5-91.7 41.7-121.5 39.8-42.1 94.4 21.7 119.9 49.9 30.9 34 58.9 70.5 88.5 105.6 24.8 29.4 51.7 63.3 84.9 83.7 26.2 16.1 46.4 9.7 71.9-5 40.8-23.5 76.7-56.7 112.1-87.6 47.2-41.4 93-84.4 141.3-124.5 32.8-27.3 67.9-58.3 109.9-69a197.9 197.9 0 0 1-1.8 29.8z"/><path fill="none" stroke="#231f20" stroke-miterlimit="10" stroke-width="1.1" d="M2179.1 315.2c-41.9 10.9-76.5 41.4-109 68.8-47.1 39.5-91.6 82-137.5 122.7-34.4 30.4-69.4 63.1-109.5 85.9-26.2 14.9-45.9 19.5-71.9 3.2-33.1-20.6-59.8-53.6-84.8-82.8-27-31.4-52.7-63.9-80.7-94.5-26.3-28.8-84.9-98.6-125.7-52.1-26.6 30.3-33.2 79.2-45 116.4-9.6 30.5-21.8 72.5-58.2 78.5-25.3 4.1-47.2-4.2-66-20.6-13.9-12.2-25.7-26.6-43.7-33-77.3-27.9-136.8 79-176.6 126.9-22.4 26.9-55.2 71.7-94.1 73.9s-71.1-47-90.6-74.5c-28.2-39.8-52.6-86.1-89.5-118.8-29.5-26.2-61.5-23.9-95.4-7.4C635.5 539.5 573 621.6 494.5 616c-47.3-3.4-90.2-40.6-127.6-66.1-32-21.9-71.5-52.4-112.6-50.1-33.1 1.8-67.8 20.4-97.6 33.7-45 19.9-89.1 41.9-133.2 63.5-75.7 37.2-153.9 84.1-236.9 102.3-1.3-9.9-1.9-15.2-3.1-27.1 85.1-17.6 164.9-68.5 241.5-107.4 45.5-23.1 91-46.5 137.4-67.8 31.4-14.5 69.4-36 104.8-35.8 37.8.3 74 26.7 104.1 46.7 36.5 24.4 78.1 59.5 123.8 63.5 74.5 6.5 137.3-64.4 200.5-92.8 33.2-15 65.1-20.3 95.1 4.1 42.6 34.6 70.5 86.5 103.4 129.5 19.3 25 48.1 65.5 83.5 67.1 40.9 1.9 74.2-46.9 95.9-75.1 39.3-51.3 89.1-150.9 168.2-130.7 44.6 11.4 67.2 58.4 119.7 47.1 31-6.6 41.6-39.8 49.3-66.8 10.7-37.5 13.5-91.7 41.7-121.5 39.8-42.1 94.4 21.7 119.9 49.9 30.9 34 58.9 70.5 88.5 105.6 24.8 29.4 51.7 63.3 84.9 83.7 26.2 16.1 46.4 9.7 71.9-5 40.8-23.5 76.7-56.7 112.1-87.6 47.2-41.4 93-84.4 141.3-124.5 32.8-27.3 67.9-58.3 109.9-69a197.9 197.9 0 0 1-1.8 29.8z"/><path fill="#231f20" d="M2178.1 252.5c-42.3 10.1-77.3 41.5-110 68.8-48.2 40.5-93.9 83.9-141 125.7-35.2 31.2-71.1 64.7-112 88.2-25.3 14.4-46 20.8-72 4.9-33.3-20.4-60.1-54.6-84.8-84.2-29.6-35.4-57.5-72.2-88.4-106.4-26-28.9-79.7-92-119.9-49.1-27.7 29.6-31 81.9-42 119-7.8 26.5-18.9 59.8-49.3 66.6-51.1 11.6-76.4-34.9-120.2-46-79.3-20-127.8 78.2-167 130-21.3 28-54.9 77.2-95.6 74.9-34.8-1.9-64.3-42.6-83.7-67-33.8-42.5-62.9-93.5-105.6-128-30.5-24.6-60.8-18.8-94.5-3.9-62 27.5-128.4 97-200.8 89.9-85.2-8.3-140.4-104.7-226.8-107.7-35.5-1.2-73.5 20.3-104.8 34.9-46.6 21.6-92.2 45.6-137.8 69.3s-93.8 49.1-141.8 71.6c-32.1 15.1-64.8 30.3-99.9 36.7a182.7 182.7 0 0 0-6.5-28.4c35-6.2 67.4-21.6 99.2-36.9 46.9-22.7 92.7-47.9 138.7-72.5s89.1-48.3 134.7-70.2c31.1-14.9 68.7-36.4 104.1-35 85 3.5 142.4 93 226.3 101.2 36.3 3.6 71.9-15.9 102.5-33 34.8-19.4 68.1-42.2 104.7-58.1 34.1-14.9 63.7-20.4 94.9 3.5 43 33 73.6 81.4 108.5 122.1 20.1 23.5 50.6 62.6 84.8 64.5 39.7 2.2 73.6-45 95-72.2 39.1-49.8 88.9-145 165.9-124.5 43.8 11.7 67.1 60.2 119 48.1 29.6-6.9 43.2-39.4 53.1-65 14.1-36.6 22-86.4 50.9-115.2 41.6-41.3 92.5 18.7 119.4 48.9 30.4 34 57.9 70.6 87 105.8 24.4 29.5 50.8 63.6 83.9 83.8 25.9 15.9 46.9 9.8 72.1-4.9 40.1-23.4 74.7-57.5 108.5-89.1 45.3-42.3 88.9-86.4 135.5-127.3 31.7-27.9 65.9-59.6 108-69.3 3.1 11.7 5.7 23.5 7.7 35.5z"/><path fill="none" stroke="#231f20" stroke-miterlimit="10" stroke-width="1.1" d="M2178.1 252.5c-42.3 10.1-77.3 41.5-110 68.8-48.2 40.5-93.9 83.9-141 125.7-35.2 31.2-71.1 64.7-112 88.2-25.3 14.4-46 20.8-72 4.9-33.3-20.4-60.1-54.6-84.8-84.2-29.6-35.4-57.5-72.2-88.4-106.4-26-28.9-79.7-92-119.9-49.1-27.7 29.6-31 81.9-42 119-7.8 26.5-18.9 59.8-49.3 66.6-51.1 11.6-76.4-34.9-120.2-46-79.3-20-127.8 78.2-167 130-21.3 28-54.9 77.2-95.6 74.9-34.8-1.9-64.3-42.6-83.7-67-33.8-42.5-62.9-93.5-105.6-128-30.5-24.6-60.8-18.8-94.5-3.9-62 27.5-128.4 97-200.8 89.9-85.2-8.3-140.4-104.7-226.8-107.7-35.5-1.2-73.5 20.3-104.8 34.9-46.6 21.6-92.2 45.6-137.8 69.3s-93.8 49.1-141.8 71.6c-32.1 15.1-64.8 30.3-99.9 36.7a182.7 182.7 0 0 0-6.5-28.4c35-6.2 67.4-21.6 99.2-36.9 46.9-22.7 92.7-47.9 138.7-72.5s89.1-48.3 134.7-70.2c31.1-14.9 68.7-36.4 104.1-35 85 3.5 142.4 93 226.3 101.2 36.3 3.6 71.9-15.9 102.5-33 34.8-19.4 68.1-42.2 104.7-58.1 34.1-14.9 63.7-20.4 94.9 3.5 43 33 73.6 81.4 108.5 122.1 20.1 23.5 50.6 62.6 84.8 64.5 39.7 2.2 73.6-45 95-72.2 39.1-49.8 88.9-145 165.9-124.5 43.8 11.7 67.1 60.2 119 48.1 29.6-6.9 43.2-39.4 53.1-65 14.1-36.6 22-86.4 50.9-115.2 41.6-41.3 92.5 18.7 119.4 48.9 30.4 34 57.9 70.6 87 105.8 24.4 29.5 50.8 63.6 83.9 83.8 25.9 15.9 46.9 9.8 72.1-4.9 40.1-23.4 74.7-57.5 108.5-89.1 45.3-42.3 88.9-86.4 135.5-127.3 31.7-27.9 65.9-59.6 108-69.3 3.1 11.7 5.7 23.5 7.7 35.5z"/><path fill="#231f20" d="M2159.3 179.5c-41.2 9.8-73.8 42.2-103.8 70.6-44 41.6-84.8 86.5-127.5 129.5-31.7 32.1-64.3 67-102.9 90.8-24.6 15.1-45.3 21-70.9 5.2-32.6-20-58.5-53.9-82.3-83.1-28.4-35-55.2-71.3-85-105.1s-75.1-87.2-119.7-49c-31.5 27-45.5 73.9-64.3 109.5-13.2 24.9-30.5 55.5-60.4 61.9-53.2 11.5-73-38.8-117.1-51.6-73.9-21.5-124.7 68-163.9 115.1-22.1 26.5-55.2 69-94 67.3-34.1-1.6-65.6-37.3-87.1-59.7-36.3-38-68.9-83.2-112.5-113.4-32.5-22.5-62.6-16.6-97.1-1.8-38.7 16.7-74.3 39.7-111.3 59.5-32 17.2-68.6 37.1-106.1 34-82.1-6.8-142.5-88.9-225.5-90.3-35.3-.6-71.2 20.1-102 35.6-44.2 22.2-87.3 47-130.3 71.4s-88.7 50.7-134.2 73.7c-31 15.8-62.5 31.4-96.9 37.6-4.1-9.5-6.3-14-11-22.9 33.5-6.4 63.9-22.4 93.7-38.4 43.8-23.6 86.1-49.7 128.7-75.3s82.5-50.2 125.1-72.9c29.9-16 64-36.4 98.8-36.6 81-.7 144.3 72.2 224.5 76.7 39.1 2.2 77.2-18 110.9-35.4 39.7-20.5 78.1-44 119.4-61.2 35-14.7 66.2-21.4 100.3-1 44.5 26.7 79.3 68.3 117.4 102.8 23.6 21.3 55.8 52.5 90 53.5 37.9 1.1 69.8-35.2 92.7-60.8 39.4-43.8 91.2-126 161.5-103.2 44.4 14.4 59.7 66 114.7 56 31-5.6 52.7-33.8 70-57.8 24.6-34 45.5-77.9 80.6-102.7 48.2-33.9 89.8 14 120.4 49.4 29 33.6 55.1 69.6 82.7 104.2 23.1 28.9 48.4 62.6 80.3 82.4 25.1 15.5 45.3 9.8 68.8-5.9 36.6-24.5 66.7-60.2 96-92.8 39.5-44 77-89.7 118-132.3 27.6-28.9 57.9-62.1 97.7-72.3 4.7 12.8 9.3 25.8 13.6 38.8z"/><path fill="none" stroke="#231f20" stroke-miterlimit="10" stroke-width="1.1" d="M2159.3 179.5c-41.2 9.8-73.8 42.2-103.8 70.6-44 41.6-84.8 86.5-127.5 129.5-31.7 32.1-64.3 67-102.9 90.8-24.6 15.1-45.3 21-70.9 5.2-32.6-20-58.5-53.9-82.3-83.1-28.4-35-55.2-71.3-85-105.1s-75.1-87.2-119.7-49c-31.5 27-45.5 73.9-64.3 109.5-13.2 24.9-30.5 55.5-60.4 61.9-53.2 11.5-73-38.8-117.1-51.6-73.9-21.5-124.7 68-163.9 115.1-22.1 26.5-55.2 69-94 67.3-34.1-1.6-65.6-37.3-87.1-59.7-36.3-38-68.9-83.2-112.5-113.4-32.5-22.5-62.6-16.6-97.1-1.8-38.7 16.7-74.3 39.7-111.3 59.5-32 17.2-68.6 37.1-106.1 34-82.1-6.8-142.5-88.9-225.5-90.3-35.3-.6-71.2 20.1-102 35.6-44.2 22.2-87.3 47-130.3 71.4s-88.7 50.7-134.2 73.7c-31 15.8-62.5 31.4-96.9 37.6-4.1-9.5-6.3-14-11-22.9 33.5-6.4 63.9-22.4 93.7-38.4 43.8-23.6 86.1-49.7 128.7-75.3s82.5-50.2 125.1-72.9c29.9-16 64-36.4 98.8-36.6 81-.7 144.3 72.2 224.5 76.7 39.1 2.2 77.2-18 110.9-35.4 39.7-20.5 78.1-44 119.4-61.2 35-14.7 66.2-21.4 100.3-1 44.5 26.7 79.3 68.3 117.4 102.8 23.6 21.3 55.8 52.5 90 53.5 37.9 1.1 69.8-35.2 92.7-60.8 39.4-43.8 91.2-126 161.5-103.2 44.4 14.4 59.7 66 114.7 56 31-5.6 52.7-33.8 70-57.8 24.6-34 45.5-77.9 80.6-102.7 48.2-33.9 89.8 14 120.4 49.4 29 33.6 55.1 69.6 82.7 104.2 23.1 28.9 48.4 62.6 80.3 82.4 25.1 15.5 45.3 9.8 68.8-5.9 36.6-24.5 66.7-60.2 96-92.8 39.5-44 77-89.7 118-132.3 27.6-28.9 57.9-62.1 97.7-72.3 4.7 12.8 9.3 25.8 13.6 38.8z"/><path fill="#231f20" d="M2131.1 101.3c-38.2 10.8-65.9 45-91 74.2-37.6 43.7-71.7 90.3-107.7 135.3-26.6 33.1-53.9 69.6-88.4 94.9-22.4 16.5-41.7 22-66.3 6.7-31.2-19.5-55.7-52.9-78.1-81.5-26.8-34.3-52-69.9-80.2-103.2-32.6-38.4-69.8-79.3-121.4-49.8-39.3 22.4-67.4 63.1-98.2 95.2-21.9 22.8-48 48.5-80.7 53.3-26.8 3.9-49-5.7-67.5-24.3-13.8-13.9-25.7-29.7-44.8-36.6-66.4-24.1-118.7 50-158.6 90.1-24.2 24.4-54.4 54-91.3 53.6-34.5-.3-67.4-26.6-93.3-46.5-39.9-30.8-77.3-68.5-122.7-91.4-35.8-18-68.4-10.3-104.1 4.1-44 18-85.4 42.1-127.9 63.1-35.8 17.8-75.4 38-116.3 37-78.4-1.9-144.6-64.8-223.4-61.8-34.2 1.3-66.4 21.3-95.4 37.9-40.7 23.2-80 49-119.3 74.4s-80.9 52.9-122.8 77c-28.5 16.4-57.6 32.7-90 39.4-4.8-8.7-7.2-13-11.7-22 31.4-7 59.2-23.7 86.4-40.4 40-24.7 78.3-51.9 116.9-78.6S8.1 349.1 47 325.3c28-17.1 58.4-36.7 91.9-39 76.9-5.2 145.6 47.7 222.3 47 42.8-.3 83.8-20.4 121.6-38.5 45.4-21.7 89.6-46.4 136.5-64.9 36.3-14.4 70.4-22.8 107.7-7.2 46.4 19.3 86.2 52.9 128 80 28.2 18.3 61.5 39.9 96.5 39.7s64.7-23.7 90-46.5c40.2-36.4 93.5-102.3 155.8-77.3 19.1 7.7 30.2 24.5 43.4 39.2 17.9 20 39 29.7 66.4 26.6 34.7-4 65-27.7 91.2-48.9 37.2-30.1 72.1-66.9 115.7-87.8 20.1-9.6 42.2-15.5 63.1-4.8 23.9 12.3 42.4 34.8 59.2 55.1 27.4 32.9 51.7 68.2 77.7 102.2 21.7 28.2 45.4 61.4 76 80.7 60.1 37.7 116.6-65.1 144.7-104.6 32.6-46 63.2-93.5 97.5-138.2 22.6-29.5 47.7-64.8 84.5-76.2 4.7 13.2 9.6 26.3 14.4 39.4z"/><path fill="none" stroke="#231f20" stroke-miterlimit="10" stroke-width="1.1" d="M2131.1 101.3c-38.2 10.8-65.9 45-91 74.2-37.6 43.7-71.7 90.3-107.7 135.3-26.6 33.1-53.9 69.6-88.4 94.9-22.4 16.5-41.7 22-66.3 6.7-31.2-19.5-55.7-52.9-78.1-81.5-26.8-34.3-52-69.9-80.2-103.2-32.6-38.4-69.8-79.3-121.4-49.8-39.3 22.4-67.4 63.1-98.2 95.2-21.9 22.8-48 48.5-80.7 53.3-26.8 3.9-49-5.7-67.5-24.3-13.8-13.9-25.7-29.7-44.8-36.6-66.4-24.1-118.7 50-158.6 90.1-24.2 24.4-54.4 54-91.3 53.6-34.5-.3-67.4-26.6-93.3-46.5-39.9-30.8-77.3-68.5-122.7-91.4-35.8-18-68.4-10.3-104.1 4.1-44 18-85.4 42.1-127.9 63.1-35.8 17.8-75.4 38-116.3 37-78.4-1.9-144.6-64.8-223.4-61.8-34.2 1.3-66.4 21.3-95.4 37.9-40.7 23.2-80 49-119.3 74.4s-80.9 52.9-122.8 77c-28.5 16.4-57.6 32.7-90 39.4-4.8-8.7-7.2-13-11.7-22 31.4-7 59.2-23.7 86.4-40.4 40-24.7 78.3-51.9 116.9-78.6S8.1 349.1 47 325.3c28-17.1 58.4-36.7 91.9-39 76.9-5.2 145.6 47.7 222.3 47 42.8-.3 83.8-20.4 121.6-38.5 45.4-21.7 89.6-46.4 136.5-64.9 36.3-14.4 70.4-22.8 107.7-7.2 46.4 19.3 86.2 52.9 128 80 28.2 18.3 61.5 39.9 96.5 39.7s64.7-23.7 90-46.5c40.2-36.4 93.5-102.3 155.8-77.3 19.1 7.7 30.2 24.5 43.4 39.2 17.9 20 39 29.7 66.4 26.6 34.7-4 65-27.7 91.2-48.9 37.2-30.1 72.1-66.9 115.7-87.8 20.1-9.6 42.2-15.5 63.1-4.8 23.9 12.3 42.4 34.8 59.2 55.1 27.4 32.9 51.7 68.2 77.7 102.2 21.7 28.2 45.4 61.4 76 80.7 60.1 37.7 116.6-65.1 144.7-104.6 32.6-46 63.2-93.5 97.5-138.2 22.6-29.5 47.7-64.8 84.5-76.2 4.7 13.2 9.6 26.3 14.4 39.4z"/><path fill="#231f20" d="M2103.6 23.4c-35.6 11.8-58.5 48-78.8 77.7-31.3 45.8-58.7 94.1-88.3 140.9-25.1 39.7-76.2 145-136 107.1-30-19-53.2-51.9-74.1-79.9-25.3-33.6-48.8-68.6-75.4-101.3-16.4-20-34.5-42.4-57.9-54.5-21.1-10.9-44.4-4.5-65.2 3.9-47.7 19.3-88.7 53.2-131.4 81.2-29.9 19.5-63.8 41.5-100.4 44.9-27.9 2.7-48.1-7.3-65.4-28.5-12.6-15.4-23.1-33.2-42.1-41.5-58.3-25.5-113 33.3-153.4 65.8-26 21-54.2 39.7-88.8 40.4s-69.1-17.3-99.2-33.7c-43.6-23.8-85.5-53.6-132.8-69.9-38.6-13.2-73.7-4.6-110.8 9.8-49.3 19.1-96.2 44.4-144.2 66.6-39.6 18.4-81.7 38.3-126.2 39.8-75.2 2.6-146-40.8-221.3-33.9-33 3-61.9 22.3-89 40-37.2 24.2-72.8 51-108.5 77.4s-73.4 55-111.7 80.1c-26 17.1-52.7 34.2-83.4 41.3a181.4 181.4 0 0 1-8.6-25.8c30.2-7.1 56.2-24.4 81.5-41.8 36.9-25.5 72-53.6 107.3-81.3S-32 294.2 4 269.6c26.6-18.2 54.4-37.2 87.2-40.5 74.2-7.6 146.2 27.5 220.5 24 45.6-2.2 88.5-22 129.4-40.6 50.1-22.7 99.1-48.3 150.5-68 37.6-14.3 73-22.8 112.5-11.2 47.9 14.1 91.7 40.6 136.6 61.7 31.4 14.7 65.8 30.4 101.2 29.4 33.5-.9 61.5-16.7 87.9-35.8 40.5-29.3 96.7-82.7 151.6-57.3 19.1 8.8 29 27.4 41.1 43.4 16.7 22 36.4 32.3 64.7 29.8 37.9-3.3 74.4-24.1 107-42.2 47.1-26.1 92.9-57.6 143.9-75.9 21.2-7.6 45-14.4 66.2-3.4 23.2 12 40.8 34.2 56.9 54.2 26 32.3 48.9 67.1 73.6 100.5 20.4 27.8 43 60.5 72.6 79.3 60.1 38.3 107.2-68.8 129.9-108.8 27.1-47.6 51.9-96.6 80.9-143.1 18.7-30 39.8-67 75-78.8 3 12.5 6.5 24.8 10.4 37.1z"/><path fill="none" stroke="#231f20" stroke-miterlimit="10" stroke-width="1.1" d="M2103.6 23.4c-35.6 11.8-58.5 48-78.8 77.7-31.3 45.8-58.7 94.1-88.3 140.9-25.1 39.7-76.2 145-136 107.1-30-19-53.2-51.9-74.1-79.9-25.3-33.6-48.8-68.6-75.4-101.3-16.4-20-34.5-42.4-57.9-54.5-21.1-10.9-44.4-4.5-65.2 3.9-47.7 19.3-88.7 53.2-131.4 81.2-29.9 19.5-63.8 41.5-100.4 44.9-27.9 2.7-48.1-7.3-65.4-28.5-12.6-15.4-23.1-33.2-42.1-41.5-58.3-25.5-113 33.3-153.4 65.8-26 21-54.2 39.7-88.8 40.4s-69.1-17.3-99.2-33.7c-43.6-23.8-85.5-53.6-132.8-69.9-38.6-13.2-73.7-4.6-110.8 9.8-49.3 19.1-96.2 44.4-144.2 66.6-39.6 18.4-81.7 38.3-126.2 39.8-75.2 2.6-146-40.8-221.3-33.9-33 3-61.9 22.3-89 40-37.2 24.2-72.8 51-108.5 77.4s-73.4 55-111.7 80.1c-26 17.1-52.7 34.2-83.4 41.3a181.4 181.4 0 0 1-8.6-25.8c30.2-7.1 56.2-24.4 81.5-41.8 36.9-25.5 72-53.6 107.3-81.3S-32 294.2 4 269.6c26.6-18.2 54.4-37.2 87.2-40.5 74.2-7.6 146.2 27.5 220.5 24 45.6-2.2 88.5-22 129.4-40.6 50.1-22.7 99.1-48.3 150.5-68 37.6-14.3 73-22.8 112.5-11.2 47.9 14.1 91.7 40.6 136.6 61.7 31.4 14.7 65.8 30.4 101.2 29.4 33.5-.9 61.5-16.7 87.9-35.8 40.5-29.3 96.7-82.7 151.6-57.3 19.1 8.8 29 27.4 41.1 43.4 16.7 22 36.4 32.3 64.7 29.8 37.9-3.3 74.4-24.1 107-42.2 47.1-26.1 92.9-57.6 143.9-75.9 21.2-7.6 45-14.4 66.2-3.4 23.2 12 40.8 34.2 56.9 54.2 26 32.3 48.9 67.1 73.6 100.5 20.4 27.8 43 60.5 72.6 79.3 60.1 38.3 107.2-68.8 129.9-108.8 27.1-47.6 51.9-96.6 80.9-143.1 18.7-30 39.8-67 75-78.8 3 12.5 6.5 24.8 10.4 37.1z"/><path fill="#231f20" d="M2086.6-48.7c-35.6 11.4-55.9 48.6-73.9 79.2-27.5 46.9-50.4 96.4-75.9 144.4-21.7 40.9-66.5 148.6-127.7 109.6-29.3-18.8-51.6-51.4-71.8-79-24.2-33.3-46.7-67.9-72.4-100.1-15.8-19.9-33.3-42.1-56.4-54-21.3-11-44.6-3.8-65.9 3.6-53 18.2-101.8 47.7-151.6 72.6-33.8 16.9-71.5 37.3-109.7 41-28.5 2.8-48-7.9-64.3-30.4-11.8-16.3-21.3-35.5-40.4-44.5-52.4-24.8-110.5 26.2-150.8 53-26.3 17.6-54.9 32.9-87.4 33.7-35.1.9-70.4-14.2-102.1-27.5-45.9-19.4-90.7-43.4-138.9-56.6-40.1-10.9-74.5-3.3-112.6 11.1-52.7 20-103 45.9-154.4 68.8-41.4 18.6-84.6 38.7-130.6 40.7-73.8 3.1-146.6-25.6-220.2-18.7-33 3.1-60.5 21.8-86.9 40.4-35.2 24.7-68.5 52.3-101.9 79.4s-68.5 56.3-104.7 82c-25 17.8-50.7 35.1-81.1 41.9-1.3-11.8-2-23.6-2.3-35.5 30.3-7.2 56.1-24.3 81.3-42.1 36-25.3 70-53.3 104.3-80.9s66.4-53.9 101.4-78.3c26.6-18.5 54.3-37.3 87.2-40.9 74-8.2 146.1 26.4 220.2 22.6 46.4-2.4 88.9-21.7 130.3-41.2 50.7-23.9 100.1-51 152.3-71.4 37.8-14.7 72.7-21.6 112.4-10.6 48.8 13.4 94.3 37.7 140.9 57.2 31.7 13.4 67.1 28.8 102.3 27.9 32.6-.8 61-16.1 87.1-34.1 39.7-27.2 96.8-78.3 149.2-53.9 45.4 21.3 47.9 82.6 108.8 76.5 38.3-3.9 75.5-24 109.1-41.3 49.1-25.2 97-55.1 149.4-73.3 21.4-7.4 44.4-14.3 65.8-3s40.6 33.9 56.9 53.5c26 31.7 49.2 65.6 73.9 98.2 20.7 27.4 43.4 59.2 72.8 78 60.5 39 105.5-67.8 127.4-108.5 25.5-47.3 48.5-96.2 76-142.4 18.2-30.7 38.7-67.2 74.1-79.2-1.2 10.8-.3 21.3.8 32.1z"/><path fill="none" stroke="#231f20" stroke-miterlimit="10" stroke-width="1.1" d="M2086.6-48.7c-35.6 11.4-55.9 48.6-73.9 79.2-27.5 46.9-50.4 96.4-75.9 144.4-21.7 40.9-66.5 148.6-127.7 109.6-29.3-18.8-51.6-51.4-71.8-79-24.2-33.3-46.7-67.9-72.4-100.1-15.8-19.9-33.3-42.1-56.4-54-21.3-11-44.6-3.8-65.9 3.6-53 18.2-101.8 47.7-151.6 72.6-33.8 16.9-71.5 37.3-109.7 41-28.5 2.8-48-7.9-64.3-30.4-11.8-16.3-21.3-35.5-40.4-44.5-52.4-24.8-110.5 26.2-150.8 53-26.3 17.6-54.9 32.9-87.4 33.7-35.1.9-70.4-14.2-102.1-27.5-45.9-19.4-90.7-43.4-138.9-56.6-40.1-10.9-74.5-3.3-112.6 11.1-52.7 20-103 45.9-154.4 68.8-41.4 18.6-84.6 38.7-130.6 40.7-73.8 3.1-146.6-25.6-220.2-18.7-33 3.1-60.5 21.8-86.9 40.4-35.2 24.7-68.5 52.3-101.9 79.4s-68.5 56.3-104.7 82c-25 17.8-50.7 35.1-81.1 41.9-1.3-11.8-2-23.6-2.3-35.5 30.3-7.2 56.1-24.3 81.3-42.1 36-25.3 70-53.3 104.3-80.9s66.4-53.9 101.4-78.3c26.6-18.5 54.3-37.3 87.2-40.9 74-8.2 146.1 26.4 220.2 22.6 46.4-2.4 88.9-21.7 130.3-41.2 50.7-23.9 100.1-51 152.3-71.4 37.8-14.7 72.7-21.6 112.4-10.6 48.8 13.4 94.3 37.7 140.9 57.2 31.7 13.4 67.1 28.8 102.3 27.9 32.6-.8 61-16.1 87.1-34.1 39.7-27.2 96.8-78.3 149.2-53.9 45.4 21.3 47.9 82.6 108.8 76.5 38.3-3.9 75.5-24 109.1-41.3 49.1-25.2 97-55.1 149.4-73.3 21.4-7.4 44.4-14.3 65.8-3s40.6 33.9 56.9 53.5c26 31.7 49.2 65.6 73.9 98.2 20.7 27.4 43.4 59.2 72.8 78 60.5 39 105.5-67.8 127.4-108.5 25.5-47.3 48.5-96.2 76-142.4 18.2-30.7 38.7-67.2 74.1-79.2-1.2 10.8-.3 21.3.8 32.1z"/><path fill="#231f20" d="M2091.9-110.3c-35 12.1-55.9 47-74.8 77.1-28 44.6-51.6 91.7-77.7 137.4-23.4 41.1-68.5 142.1-128.8 105.3-29.8-18.2-53.7-48.5-75.7-74.9-26.1-31.3-50.7-63.8-78-94.1-17.1-19-35.7-39.7-58.8-51.5-21.6-10.9-44.1-4.7-65.5 3.2-50.2 18.4-95.1 49.8-141.3 76-32.2 18.2-67.8 38.7-105.3 42.5-61.9 6.2-74.2-58.9-122.2-80.6-54.5-24.6-107.5 26.9-147 56.8-25.3 19.2-52.9 35-85.6 35.7-35.9.9-72-15.5-104.2-29.5-47.8-20.7-94.6-46.3-144.9-60.7-39.7-11.4-74.4-5-111.8 11.1-50.6 21.8-97.5 51.4-146.1 77.2-39.9 21.2-81.4 42-127.4 43.9-75.5 3.1-145-45.2-220.5-37.1-32.5 3.4-60.7 22.2-87.1 40.1-35 23.5-68.1 49.8-101.4 75.6-55.5 43-115.5 102.2-185.5 119.2.1-16.8.5-33.5 1-50.3 68.9-16 128.7-71.6 184.3-112.6 33.2-24.5 66.3-49.4 101-71.7C14.7 110.9 44 91.7 75.9 89c77.8-6.6 142.8 58.1 219.9 59 44.7.5 84.5-23.3 121.2-46 49.6-30.6 96.5-67 149.5-91.5 85.6-39.7 170 20.1 247.1 55.2C849.5 82 890.8 103 931.4 100c30.7-2.2 55.5-18.5 78.1-38.1 39.7-34.5 89.4-87.8 147.5-59.5 47.7 23.1 73.7 88 132.9 85.9 39.6-1.4 76.5-26.3 108.5-47.3 41.9-27.3 82.3-60.2 129.3-78.7 19.4-7.6 38.7-12.2 58.7-4.4 26.1 10.2 48 32.3 67.6 51.7 28.7 28.4 55.2 59.1 83 88.4 23.8 24.9 48.9 52.7 79.6 69 60.8 32.3 105.4-60.7 131-102.2 26.7-43.3 51.2-88 79.8-130 19.6-28.9 41.2-61.5 75.7-72.8a184.5 184.5 0 0 0-11.2 27.7z"/><path fill="none" stroke="#231f20" stroke-miterlimit="10" stroke-width="1.1" d="M2091.9-110.3c-35 12.1-55.9 47-74.8 77.1-28 44.6-51.6 91.7-77.7 137.4-23.4 41.1-68.5 142.1-128.8 105.3-29.8-18.2-53.7-48.5-75.7-74.9-26.1-31.3-50.7-63.8-78-94.1-17.1-19-35.7-39.7-58.8-51.5-21.6-10.9-44.1-4.7-65.5 3.2-50.2 18.4-95.1 49.8-141.3 76-32.2 18.2-67.8 38.7-105.3 42.5-61.9 6.2-74.2-58.9-122.2-80.6-54.5-24.6-107.5 26.9-147 56.8-25.3 19.2-52.9 35-85.6 35.7-35.9.9-72-15.5-104.2-29.5-47.8-20.7-94.6-46.3-144.9-60.7-39.7-11.4-74.4-5-111.8 11.1-50.6 21.8-97.5 51.4-146.1 77.2-39.9 21.2-81.4 42-127.4 43.9-75.5 3.1-145-45.2-220.5-37.1-32.5 3.4-60.7 22.2-87.1 40.1-35 23.5-68.1 49.8-101.4 75.6-55.5 43-115.5 102.2-185.5 119.2.1-16.8.5-33.5 1-50.3 68.9-16 128.7-71.6 184.3-112.6 33.2-24.5 66.3-49.4 101-71.7C14.7 110.9 44 91.7 75.9 89c77.8-6.6 142.8 58.1 219.9 59 44.7.5 84.5-23.3 121.2-46 49.6-30.6 96.5-67 149.5-91.5 85.6-39.7 170 20.1 247.1 55.2C849.5 82 890.8 103 931.4 100c30.7-2.2 55.5-18.5 78.1-38.1 39.7-34.5 89.4-87.8 147.5-59.5 47.7 23.1 73.7 88 132.9 85.9 39.6-1.4 76.5-26.3 108.5-47.3 41.9-27.3 82.3-60.2 129.3-78.7 19.4-7.6 38.7-12.2 58.7-4.4 26.1 10.2 48 32.3 67.6 51.7 28.7 28.4 55.2 59.1 83 88.4 23.8 24.9 48.9 52.7 79.6 69 60.8 32.3 105.4-60.7 131-102.2 26.7-43.3 51.2-88 79.8-130 19.6-28.9 41.2-61.5 75.7-72.8a184.5 184.5 0 0 0-11.2 27.7z"/><path fill="#231f20" d="M2117.5-164.4c-34.3 9.9-56.9 40.2-77.5 67.8-29.4 39.3-54.8 81.5-82.4 122.1-28.9 42.5-73.1 124.3-134.7 96.2-67.5-30.8-118.8-98.3-174.3-145.6-38.5-32.9-77.8-64.7-129.2-41.6-43.4 19.5-78.9 54.3-116.1 83.1-28.6 22.1-62.5 48.6-100.3 50.1-64.3 2.4-103-68.7-156.3-93.3C1084-54.5 1040.6-1.3 1001 38.6c-20.8 21-44.5 39.2-75 41.6-41.6 3.2-85.5-20.8-122-38-51.1-24.2-101.2-53.4-155.5-70-35.7-10.9-64.2-7.8-96.9 10.2C501.5 10 458.9 50.1 413 84c-33 24.5-71.8 53.7-115.2 50.6-80-5.6-139-88.3-220.4-85.4C46.2 50.4 16 69.4-9.8 85.1c-34.6 20.9-67.7 44.3-100.9 67.3-55.9 38.8-116.1 91.1-184.2 105.4.7-18.6 1.5-37.2 2.2-55.8 66.6-12.2 127.3-61 183-97C-76.6 83.5-43.6 61.7-9.3 42.3 16 28.1 47.9 8.6 78.1 9c85.5 1.2 137.4 100.8 219.9 113.3 42.3 6.4 78.7-26.8 108.1-52.8 42.1-37.3 80-80.8 126.7-112.6 36.1-24.7 67-25 107.5-10.5 53.9 19.3 104 48.7 155.3 73.7 35.5 17.3 79.9 42.4 120.8 41.3 32.2-.8 56-22.1 75.8-45.4 38.9-45.6 75.6-98.7 143-69.4 60.2 26.2 113.8 107.1 185.1 101.1 35.8-3 66.1-31.9 90.8-55.2 30.7-29 59.5-63.4 97-83.9 50.9-27.8 96.3 5.3 137.7 35.7 57.7 42.5 111.8 100.6 178.5 128.8 23.5 9.9 44.1 11.7 66-2.6 31.8-20.9 56.4-55.8 78.9-85.7 28.4-37.7 54.8-77 84.9-113.3 21.7-26.1 45-53.5 79-61.8-5.2 8.6-10.5 17.2-15.6 25.9z"/><path fill="none" stroke="#231f20" stroke-miterlimit="10" stroke-width="1.1" d="M2117.5-164.4c-34.3 9.9-56.9 40.2-77.5 67.8-29.4 39.3-54.8 81.5-82.4 122.1-28.9 42.5-73.1 124.3-134.7 96.2-67.5-30.8-118.8-98.3-174.3-145.6-38.5-32.9-77.8-64.7-129.2-41.6-43.4 19.5-78.9 54.3-116.1 83.1-28.6 22.1-62.5 48.6-100.3 50.1-64.3 2.4-103-68.7-156.3-93.3C1084-54.5 1040.6-1.3 1001 38.6c-20.8 21-44.5 39.2-75 41.6-41.6 3.2-85.5-20.8-122-38-51.1-24.2-101.2-53.4-155.5-70-35.7-10.9-64.2-7.8-96.9 10.2C501.5 10 458.9 50.1 413 84c-33 24.5-71.8 53.7-115.2 50.6-80-5.6-139-88.3-220.4-85.4C46.2 50.4 16 69.4-9.8 85.1c-34.6 20.9-67.7 44.3-100.9 67.3-55.9 38.8-116.1 91.1-184.2 105.4.7-18.6 1.5-37.2 2.2-55.8 66.6-12.2 127.3-61 183-97C-76.6 83.5-43.6 61.7-9.3 42.3 16 28.1 47.9 8.6 78.1 9c85.5 1.2 137.4 100.8 219.9 113.3 42.3 6.4 78.7-26.8 108.1-52.8 42.1-37.3 80-80.8 126.7-112.6 36.1-24.7 67-25 107.5-10.5 53.9 19.3 104 48.7 155.3 73.7 35.5 17.3 79.9 42.4 120.8 41.3 32.2-.8 56-22.1 75.8-45.4 38.9-45.6 75.6-98.7 143-69.4 60.2 26.2 113.8 107.1 185.1 101.1 35.8-3 66.1-31.9 90.8-55.2 30.7-29 59.5-63.4 97-83.9 50.9-27.8 96.3 5.3 137.7 35.7 57.7 42.5 111.8 100.6 178.5 128.8 23.5 9.9 44.1 11.7 66-2.6 31.8-20.9 56.4-55.8 78.9-85.7 28.4-37.7 54.8-77 84.9-113.3 21.7-26.1 45-53.5 79-61.8-5.2 8.6-10.5 17.2-15.6 25.9z"/><path fill="#231f20" d="M2148-216.6c-33.6 6.9-57.7 31.9-80.3 56.3-30.9 33.4-58.2 69.9-87.3 104.8-23.5 28.1-49.1 60.5-81 79.6-24.2 14.6-48.6 11.9-74.4 1.6C1759-.7 1702.8-50 1643.3-87.7c-43.4-27.5-96.3-62.6-145.7-29.8-33.7 22.2-57.4 58.8-83.5 88.7-20 23-45.2 51.4-77.2 55.9-39.7 5.5-80.2-23.6-111.1-44.7-32.8-22.5-64.9-48.8-102-64-71.2-29.2-103.1 23.5-140.2 74.6-16.6 22.8-37.5 45.8-67.5 48.7-43.3 4.2-91.5-25.3-128.5-43.9-55.4-27.9-109.4-60.7-168-81.8-41.3-14.9-70.5-13-104.8 15.6C473.7-34.1 441.5 10.2 405 49.2c-24.9 26.5-60.8 68.3-101.8 60.7-44.1-8.3-80.6-46.8-113.2-74.9-30.2-26-68.6-64.5-111.3-66.1-30.1-1.1-62.2 17.7-87.6 31-34.1 18-67 38.2-100 58.1-55.7 33.6-116.3 78.7-181.8 89.1.5-17.3 1-34.5 1.2-51.7 64.5-9.2 125.2-51 180.7-82.3C-75.9-5.4-43-24.2-9.1-40.9 16-53.3 49.1-71.8 78.6-70.2c44.3 2.4 81.8 46.8 111 75.7 31.5 31.3 71.1 82.6 118.1 89.7 40.6 6.1 74.4-41.3 96-68.9 32.7-41.5 61-88.6 99.8-124.9 34.3-31.9 61.7-30 104.1-14C665.1-90.8 718.3-58.2 772.8-30 811.4-9.9 861.7 21.8 907 20.4c32.1-1 53.1-27 68.9-51.9s26.9-50.9 48-70.1c28.1-25.6 61.7-21.1 94.6-6.8 40.5 17.7 76.5 44.9 113.6 68.5 30.8 19.6 71.2 47.3 109.6 45.3 33.7-1.7 56.8-31.5 74.9-56.6 23.2-32.2 42.6-72.1 75.3-96.1 46.2-33.8 107.3 4.3 149.4 27.5 62.1 34.4 122.4 79.8 190.2 102.6 69.4 23.3 114.7-30.4 158.1-77.6 29.8-32.4 57.9-66.4 89.3-97.3 23.5-22.9 48.3-45.7 81.4-51.7a195.3 195.3 0 0 1-12.3 27.2z"/><path fill="none" stroke="#231f20" stroke-miterlimit="10" stroke-width="1.1" d="M2148-216.6c-33.6 6.9-57.7 31.9-80.3 56.3-30.9 33.4-58.2 69.9-87.3 104.8-23.5 28.1-49.1 60.5-81 79.6-24.2 14.6-48.6 11.9-74.4 1.6C1759-.7 1702.8-50 1643.3-87.7c-43.4-27.5-96.3-62.6-145.7-29.8-33.7 22.2-57.4 58.8-83.5 88.7-20 23-45.2 51.4-77.2 55.9-39.7 5.5-80.2-23.6-111.1-44.7-32.8-22.5-64.9-48.8-102-64-71.2-29.2-103.1 23.5-140.2 74.6-16.6 22.8-37.5 45.8-67.5 48.7-43.3 4.2-91.5-25.3-128.5-43.9-55.4-27.9-109.4-60.7-168-81.8-41.3-14.9-70.5-13-104.8 15.6C473.7-34.1 441.5 10.2 405 49.2c-24.9 26.5-60.8 68.3-101.8 60.7-44.1-8.3-80.6-46.8-113.2-74.9-30.2-26-68.6-64.5-111.3-66.1-30.1-1.1-62.2 17.7-87.6 31-34.1 18-67 38.2-100 58.1-55.7 33.6-116.3 78.7-181.8 89.1.5-17.3 1-34.5 1.2-51.7 64.5-9.2 125.2-51 180.7-82.3C-75.9-5.4-43-24.2-9.1-40.9 16-53.3 49.1-71.8 78.6-70.2c44.3 2.4 81.8 46.8 111 75.7 31.5 31.3 71.1 82.6 118.1 89.7 40.6 6.1 74.4-41.3 96-68.9 32.7-41.5 61-88.6 99.8-124.9 34.3-31.9 61.7-30 104.1-14C665.1-90.8 718.3-58.2 772.8-30 811.4-9.9 861.7 21.8 907 20.4c32.1-1 53.1-27 68.9-51.9s26.9-50.9 48-70.1c28.1-25.6 61.7-21.1 94.6-6.8 40.5 17.7 76.5 44.9 113.6 68.5 30.8 19.6 71.2 47.3 109.6 45.3 33.7-1.7 56.8-31.5 74.9-56.6 23.2-32.2 42.6-72.1 75.3-96.1 46.2-33.8 107.3 4.3 149.4 27.5 62.1 34.4 122.4 79.8 190.2 102.6 69.4 23.3 114.7-30.4 158.1-77.6 29.8-32.4 57.9-66.4 89.3-97.3 23.5-22.9 48.3-45.7 81.4-51.7a195.3 195.3 0 0 1-12.3 27.2z"/><path fill="#231f20" d="M2168-272.7c-32.8 5.9-58.1 27.2-82.2 49.2-31.9 29.1-60.9 61.2-91.3 91.8-25.1 25.3-52 53.5-84 70.4-24.8 13.1-49.6 11.4-76.1 3.4-69.5-21.1-132.8-63.1-197.5-95.1-41.5-20.5-107.8-59.2-151.6-24.2-48.6 39-63.7 153.4-136.5 157.2-40 2.1-83.2-27.3-115.6-47.1-40.2-24.5-79.2-52.7-122.7-71.3-33.1-14.2-67.8-20.3-95.6 6.9-20.6 20.1-31.1 48.6-45.2 73.1s-34.5 52.9-67 53.9C856.5-3.1 805-36.3 765.9-57c-55.8-29.5-110.3-63.4-169.3-86.3-42.4-16.4-70.6-19.4-103.6 14.5C455.7-90.5 430.6-41 400.4 2.7c-19.8 28.5-51.4 78.7-92.6 72.1C259.5 67 220 9.3 189.5-24.1c-28.2-31-65.5-80.5-111.1-83.4-29.1-1.8-62.6 16.3-87.7 28-33.8 15.7-66.6 33.5-99.6 51-56 29.7-116.5 68.8-180.5 77.9-.2-12.7-.7-25.3-1.8-37.9 63.8-10.4 123.9-47.3 180.6-76.3 32.9-16.8 65.8-34 99.5-49.2 25.1-11.4 58.8-29.4 87.7-28.3 46.6 1.8 83.6 54.4 111.1 86.3 29.7 34.4 69.2 96.2 118.4 103.2 42.5 6 72.4-43.3 91.7-73.4 28.8-44.8 51.8-96.2 88.6-135.2 32.2-34.2 62.2-30.6 103.7-14.4 59.9 23.4 115.2 58.1 171.7 88.3 39.4 21.1 90.9 54.7 137.5 53.3 33.1-1 52.3-28 66.5-54.6s23.1-54.3 43.5-74.9c27.3-27.4 62.6-20.8 95.3-6.9 45 19.2 85.9 47.9 127.9 72.9 33.1 19.8 76.8 49.7 117.4 47.8 74.9-3.5 81.6-119.7 130.2-159.4 42.7-34.9 111.9 4.9 152.8 23.8 66.3 30.6 131.3 70 201.6 91 26.9 8 50.3 9.9 75.4-3.5 31.8-16.9 58.9-43.9 84.6-68.5 30.8-29.6 60.3-60.5 92.4-88.6 24.5-21.4 50-42.1 82.4-49 .4 10.6.6 20.9-1.3 31.4z"/><path fill="none" stroke="#231f20" stroke-miterlimit="10" stroke-width="1.1" d="M2168-272.7c-32.8 5.9-58.1 27.2-82.2 49.2-31.9 29.1-60.9 61.2-91.3 91.8-25.1 25.3-52 53.5-84 70.4-24.8 13.1-49.6 11.4-76.1 3.4-69.5-21.1-132.8-63.1-197.5-95.1-41.5-20.5-107.8-59.2-151.6-24.2-48.6 39-63.7 153.4-136.5 157.2-40 2.1-83.2-27.3-115.6-47.1-40.2-24.5-79.2-52.7-122.7-71.3-33.1-14.2-67.8-20.3-95.6 6.9-20.6 20.1-31.1 48.6-45.2 73.1s-34.5 52.9-67 53.9C856.5-3.1 805-36.3 765.9-57c-55.8-29.5-110.3-63.4-169.3-86.3-42.4-16.4-70.6-19.4-103.6 14.5C455.7-90.5 430.6-41 400.4 2.7c-19.8 28.5-51.4 78.7-92.6 72.1C259.5 67 220 9.3 189.5-24.1c-28.2-31-65.5-80.5-111.1-83.4-29.1-1.8-62.6 16.3-87.7 28-33.8 15.7-66.6 33.5-99.6 51-56 29.7-116.5 68.8-180.5 77.9-.2-12.7-.7-25.3-1.8-37.9 63.8-10.4 123.9-47.3 180.6-76.3 32.9-16.8 65.8-34 99.5-49.2 25.1-11.4 58.8-29.4 87.7-28.3 46.6 1.8 83.6 54.4 111.1 86.3 29.7 34.4 69.2 96.2 118.4 103.2 42.5 6 72.4-43.3 91.7-73.4 28.8-44.8 51.8-96.2 88.6-135.2 32.2-34.2 62.2-30.6 103.7-14.4 59.9 23.4 115.2 58.1 171.7 88.3 39.4 21.1 90.9 54.7 137.5 53.3 33.1-1 52.3-28 66.5-54.6s23.1-54.3 43.5-74.9c27.3-27.4 62.6-20.8 95.3-6.9 45 19.2 85.9 47.9 127.9 72.9 33.1 19.8 76.8 49.7 117.4 47.8 74.9-3.5 81.6-119.7 130.2-159.4 42.7-34.9 111.9 4.9 152.8 23.8 66.3 30.6 131.3 70 201.6 91 26.9 8 50.3 9.9 75.4-3.5 31.8-16.9 58.9-43.9 84.6-68.5 30.8-29.6 60.3-60.5 92.4-88.6 24.5-21.4 50-42.1 82.4-49 .4 10.6.6 20.9-1.3 31.4z"/></g></symbol></svg>