<svg xmlns="http://www.w3.org/2000/svg"><symbol id="fire" viewBox="0 0 143.2 143.2"><circle cx="71.6" cy="71.6" r="70.1" fill="none" stroke="#6d6e71" stroke-miterlimit="10" stroke-width="3.04"/><path fill="none" stroke="#6d6e71" stroke-miterlimit="10" stroke-width="3.04" d="M15.9 29l111 85.8"/><g fill="#6d6e71"><path d="M65.5 123.7c1.2.5-9.2-12.8-10.2-17.1-3.6-11.9-2.2-17-.7-20.5 8.7-18.3 14.1-27.8 14.1-27.8A60.3 60.3 0 0 0 81 78.5c8.5 9-2.9 33.8-9.5 43.8-.6.9-1.4 4.2-.3 3.7 29.3-13.9 36.4-27.5 36.8-42.7.2-4.6-.7-11.1-4.2-19.2-4.4-10.2-9.5-14.9-12.4-16.9a1.2 1.2 0 0 0-2 1c1.3 11.1-3.5 14.1-6.7 7.8-1.2-2.5-2.1-6.9-2.3-12.3a38.2 38.2 0 0 0-11-25.3 33.7 33.7 0 0 0-6.5-5.2c-.9-.5-2.1.1-2 1 .8 6.1 1.2 23.5-15.9 44.9-15.5 19.8-8.5 34.4-6 38.4 4.6 7.5 9.5 19.7 26.4 28.7z"/><path d="M68.6 74s-6.1 15.8-7.2 19.8c-3.2 11.5 4.7 25 6.4 27.6s5.4-18.2 6.8-22.9c3.5-11.7-6-24.5-6-24.5z"/></g></symbol><symbol id="love" viewBox="0 0 143.2 143.2"><circle cx="71.6" cy="71.6" r="70.1" fill="none" stroke="#6d6e71" stroke-miterlimit="10" stroke-width="3.04"/><g fill="#6d6e71"><path d="M112.2 63.6a25 25 0 0 1-25 25c-13.8 0-21.5-9.1-21.5-22.9s7.7-27.2 21.5-27.2a25.1 25.1 0 0 1 25 25.1z"/><path d="M76.3 64.9c0 13.9-13.9 23-25.4 23S30 76.7 30 62.9s9.4-24.4 20.9-25.1c14.8-.8 25.4 13.3 25.4 27.1z"/><path d="M71.7 116.8l34.5-37.1c2.7-5.2.7-9.1-4.9-9.1H42.2c-4.9 0-7.4-1.3-6 5.6.4 1.9-1.5 1.4 1.2 5.7z"/></g></symbol><symbol id="wet" viewBox="0 0 143.7 143.7"><g stroke="#6d6e71" stroke-miterlimit="10"><circle cx="71.9" cy="71.9" r="70.1" fill="none" stroke-width="3.54"/><path fill="none" stroke-width="3.54" d="M16.2 29.3L127.1 115"/><path fill="#6d6e71" stroke-width="1.52" d="M105.3 83.8a33.7 33.7 0 1 1-67.3 0c0-18.6 25.8-47.3 33.7-56.9 6.2 9.1 33.6 38.3 33.6 56.9z"/></g><path fill="#fff" d="M57.2 97.7l-12.7.2-1.1-1.7c-3.5-10.6-2.9-13.5-.1-20.7l2.4-5.6 9.9 1.5c-4 12.4-1 21.5-.2 23.1z"/></symbol><symbol id="touch" viewBox="0 0 143.2 143.2"><g stroke="#6d6e71"><circle cx="71.6" cy="71.6" r="70.1" fill="none" stroke-miterlimit="10" stroke-width="3.04"/><path fill="none" stroke-miterlimit="10" stroke-width="3.04" d="M15.1 29.6L126 115.3"/><g fill="#6d6e71" stroke-linecap="square" stroke-miterlimit="3" stroke-width=".3"><path d="M67.8 65c13 5.7 8.7-16.4 8.9-23.5s1-6.2.4-9.5c-.5-6.8-8.9-5.9-10.1 0-1.3 7.9-2.5 30.1.8 33zm15.7 3c9.6 10.1 14.8-11.7 17.9-18.2s3.5-5.3 4.4-8.5c2.3-6.4-5.7-8.8-9.3-3.9-4.5 6.7-14.8 26.7-13 30.6z"/><path d="M34.3 95.9A32.4 32.4 0 0 0 72 116.8c6.1 1.6 14.2 1.2 19.1-2.8s11.5-23.4 12.6-32.6c4.3-2.7 10.4-6.8 13.8-11.1 11.7-7.3 3.7-19.3-6.8-5.3-3.1.7-4.1 1.5-7.3 3.7s-6.3 6-9.6 5.9c-10.2-6.7-13-9.3-16.8-9.5-6.2-1.8-12 2.9-18.3 1.4-.3-6.4-1.4-11.5-3.5-15.2-1.1-5.6-1.6-13.9-4-18-5.1-4.6-9.5-.3-9.5 1.5-.5 5.9 3.1 13.5 3.1 18.7s2.8 12 4.6 19.9c.4.5 2.3-5.8 4.8-6-6.3 1.3-6.1 9.1-3 14.4.3.5 3.9 1.8 4.1 2.3S50 71.4 49.6 71.8c-.8 2 .5 16.2-1.3 17.5-7.5 3.9-9-13.1-18.3-14.4-17-.5-1.7 17.6 4.3 21z"/></g></g></symbol></svg>