<svg height="143.2" viewBox="0 0 143.2 143.2" width="143.2" xmlns="http://www.w3.org/2000/svg"><g stroke="#6d6e71"><circle cx="71.6" cy="71.6" fill="none" r="70.1" stroke-miterlimit="10" stroke-width="3.04"/><path d="m15.1 29.6 110.9 85.7" fill="none" stroke-miterlimit="10" stroke-width="3.04"/><g fill="#6d6e71" stroke-linecap="square" stroke-miterlimit="3" stroke-width=".3"><path d="m67.8 65c13 5.7 8.7-16.4 8.9-23.5s1-6.2.4-9.5c-.5-6.8-8.9-5.9-10.1 0-1.3 7.9-2.5 30.1.8 33z"/><path d="m83.5 68c9.6 10.1 14.8-11.7 17.9-18.2s3.5-5.3 4.4-8.5c2.3-6.4-5.7-8.8-9.3-3.9-4.5 6.7-14.8 26.7-13 30.6z"/><path d="m34.3 95.9a32.4 32.4 0 0 0 37.7 20.9c6.1 1.6 14.2 1.2 19.1-2.8s11.5-23.4 12.6-32.6c4.3-2.7 10.4-6.8 13.8-11.1 11.7-7.3 3.7-19.3-6.8-5.3-3.1.7-4.1 1.5-7.3 3.7s-6.3 6-9.6 5.9c-10.2-6.7-13-9.3-16.8-9.5-6.2-1.8-12 2.9-18.3 1.4-.3-6.4-1.4-11.5-3.5-15.2-1.1-5.6-1.6-13.9-4-18-5.1-4.6-9.5-.3-9.5 1.5-.5 5.9 3.1 13.5 3.1 18.7s2.8 12 4.6 19.9c.4.5 2.3-5.8 4.8-6-6.3 1.3-6.1 9.1-3 14.4.3.5 3.9 1.8 4.1 2.3s-5.3-12.7-5.7-12.3c-.8 2 .5 16.2-1.3 17.5-7.5 3.9-9-13.1-18.3-14.4-17-.5-1.7 17.6 4.3 21z"/></g></g></svg>