<svg xmlns="http://www.w3.org/2000/svg" width="64" height="52.9" viewBox="0 0 64 52.9"><path fill="#faaa19" d="M.9 42.2h4.5c3.3 0 5.7 2 5.7 5.2s-2.4 5.3-5.7 5.3H.9zm4.5 8.2a2.9 2.9 0 0 0 2.9-3 2.7 2.7 0 0 0-2.9-2.9H3.7v5.9zm6.4-8.2h7.8v2.3h-5v1.7h4.9v2.3h-4.9v1.9h5v2.3h-7.8zm9.4 7a4.8 4.8 0 0 0 3.4 1.4c.9 0 1.5-.4 1.5-.9s-.7-.8-1.8-1.1-4.2-.8-4.2-3.3 1.5-3.3 4.2-3.3a6.3 6.3 0 0 1 4.3 1.5l-1.5 1.9a5 5 0 0 0-2.9-1.1c-1 0-1.3.4-1.3.9s.7.7 1.8.9 4.2.9 4.2 3.3-1.6 3.5-4.4 3.5a6.3 6.3 0 0 1-4.7-1.6zm8.3-7h2.7v10.5h-2.7zm9.2-.2a4.9 4.9 0 0 1 4.5 2.5l-2.3 1.2a2.6 2.6 0 0 0-2.2-1.3 3.1 3.1 0 0 0 0 6.1 3.6 3.6 0 0 0 2-.6V49h-2.4v-2.3h5.1v4.2a6.4 6.4 0 0 1-4.7 2c-3.2 0-5.7-2.1-5.7-5.4a5.4 5.4 0 0 1 5.7-5.5zm8.1 4.4v6.3H44V42.2h2.8l4.3 6.1v-6.1h2.8v10.5h-2.7zm9 2.8a4.8 4.8 0 0 0 3.4 1.4c.9 0 1.5-.4 1.5-.9s-.7-.8-1.8-1.1-4.2-.8-4.2-3.3 1.5-3.3 4.2-3.3a6.3 6.3 0 0 1 4.3 1.5l-1.5 1.9a4.8 4.8 0 0 0-2.9-1.1c-.9 0-1.3.4-1.3.9s.7.7 1.8.9 4.2.9 4.2 3.3-1.6 3.5-4.4 3.5a6.3 6.3 0 0 1-4.7-1.6zM5.4 8.6H3.7v4.2H.5V.2h6.3a4.1 4.1 0 0 1 4.4 4.2 3.9 3.9 0 0 1-2.5 3.8l2.5 4.6H7.5zM6.3 3H3.7v2.8h2.6a1.5 1.5 0 0 0 1.6-1.4A1.5 1.5 0 0 0 6.3 3zm12-3a6.4 6.4 0 0 1 6.8 6.5 6.5 6.5 0 0 1-6.8 6.6 6.4 6.4 0 0 1-6.7-6.6A6.4 6.4 0 0 1 18.3 0zm0 2.9a3.4 3.4 0 0 0-3.4 3.6 3.4 3.4 0 0 0 3.4 3.7 3.5 3.5 0 0 0 3.5-3.7 3.4 3.4 0 0 0-3.5-3.6zM32.1 0a6.4 6.4 0 0 1 6.7 6.5 6.4 6.4 0 0 1-6.7 6.6 6.5 6.5 0 0 1-6.8-6.6A6.4 6.4 0 0 1 32.1 0zm0 2.9a3.4 3.4 0 0 0-3.5 3.6 3.5 3.5 0 0 0 3.5 3.7 3.4 3.4 0 0 0 3.4-3.7 3.4 3.4 0 0 0-3.4-3.6zm11.3 5.2l-.8 1v3.7h-3.3V.2h3.3v5.2L46.5.2h4l-4.9 5.9 5.2 6.7h-4z"/><path fill="#faaa19" d="M59.8 10.9h-5.2l-.7 1.9h-3.5L55.1.2h4.1L64 12.8h-3.5zm-4.4-2.7H59L57.2 3zM17.2 24l-4.3 13.5a1.5 1.5 0 0 1-1.5 1 1.6 1.6 0 0 1-1.6-1.1L5.6 24a.1.1 0 0 0-.1.1v14.4H0V20.4a5.1 5.1 0 0 1 5.1-5.1h2.4l3.9 12.5h.1l3.9-12.5h2.5a5 5 0 0 1 4.9 5v18.2h-5.5V24.1a.1.1 0 0 0-.1-.1zm20.3 10.9h-7.1l-.9 3.6h-5.8l5.9-19.9a4.5 4.5 0 0 1 4.4-3.3 4.5 4.5 0 0 1 4.3 3.2l5.9 20h-5.8zm-6-4.8h4.9L34 20.3zm19.2-4.9v13.3h-2.1a3.5 3.5 0 0 1-3.5-3.5V18.7a3.4 3.4 0 0 1 3.4-3.4h2.3L57.5 28V15.3h2.3a3.3 3.3 0 0 1 3.3 3.3v16.6a3.3 3.3 0 0 1-3.4 3.3h-1.9z"/><circle cx="15.5" cy="6.4" r="3.9" fill="#faaa19"/><circle cx="29.2" cy="6.4" r="3.9" fill="#faaa19"/></svg>